<?xml version="1.0" encoding="utf-8" standalone="no"?>
<!DOCTYPE svg PUBLIC "-//W3C//DTD SVG 1.1//EN"
  "http://www.w3.org/Graphics/SVG/1.1/DTD/svg11.dtd">
<!-- Created with matplotlib (https://matplotlib.org/) -->
<svg height="1152pt" version="1.1" viewBox="0 0 1152 1152" width="1152pt" xmlns="http://www.w3.org/2000/svg" xmlns:xlink="http://www.w3.org/1999/xlink">
 <defs>
  <style type="text/css">
*{stroke-linecap:butt;stroke-linejoin:round;}
  </style>
 </defs>
 <g id="figure_1">
  <g id="patch_1">
   <path d="M 0 1152 
L 1152 1152 
L 1152 0 
L 0 0 
z
" style="fill:none;"/>
  </g>
  <g id="axes_1">
   <g id="patch_2">
    <path d="M 144 541.44 
L 549.818182 541.44 
L 549.818182 138.24 
L 144 138.24 
z
" style="fill:none;"/>
   </g>
   <g id="matplotlib.axis_1">
    <g id="xtick_1">
     <g id="line2d_1">
      <defs>
       <path d="M 0 0 
L 0 5 
" id="meb5d98f1a1" style="stroke:#000000;stroke-width:1.5;"/>
      </defs>
      <g>
       <use style="stroke:#000000;stroke-width:1.5;" x="162.446281" xlink:href="#meb5d98f1a1" y="541.44"/>
      </g>
     </g>
     <g id="text_1">
      <!-- 0 -->
      <defs>
       <path d="M 4.15625 35.296875 
Q 4.15625 48 6.765625 55.734375 
Q 9.375 63.484375 14.515625 67.671875 
Q 19.671875 71.875 27.484375 71.875 
Q 33.25 71.875 37.59375 69.546875 
Q 41.9375 67.234375 44.765625 62.859375 
Q 47.609375 58.5 49.21875 52.21875 
Q 50.828125 45.953125 50.828125 35.296875 
Q 50.828125 22.703125 48.234375 14.96875 
Q 45.65625 7.234375 40.5 3 
Q 35.359375 -1.21875 27.484375 -1.21875 
Q 17.140625 -1.21875 11.234375 6.203125 
Q 4.15625 15.140625 4.15625 35.296875 
z
M 13.1875 35.296875 
Q 13.1875 17.671875 17.3125 11.828125 
Q 21.4375 6 27.484375 6 
Q 33.546875 6 37.671875 11.859375 
Q 41.796875 17.71875 41.796875 35.296875 
Q 41.796875 52.984375 37.671875 58.78125 
Q 33.546875 64.59375 27.390625 64.59375 
Q 21.34375 64.59375 17.71875 59.46875 
Q 13.1875 52.9375 13.1875 35.296875 
z
" id="ArialMT-48"/>
      </defs>
      <g transform="translate(156.885343 564.255625)scale(0.2 -0.2)">
       <use xlink:href="#ArialMT-48"/>
      </g>
     </g>
    </g>
    <g id="xtick_2">
     <g id="line2d_2">
      <g>
       <use style="stroke:#000000;stroke-width:1.5;" x="285.421488" xlink:href="#meb5d98f1a1" y="541.44"/>
      </g>
     </g>
     <g id="text_2">
      <!-- 10 -->
      <defs>
       <path d="M 37.25 0 
L 28.46875 0 
L 28.46875 56 
Q 25.296875 52.984375 20.140625 49.953125 
Q 14.984375 46.921875 10.890625 45.40625 
L 10.890625 53.90625 
Q 18.265625 57.375 23.78125 62.296875 
Q 29.296875 67.234375 31.59375 71.875 
L 37.25 71.875 
z
" id="ArialMT-49"/>
      </defs>
      <g transform="translate(274.299613 564.255625)scale(0.2 -0.2)">
       <use xlink:href="#ArialMT-49"/>
       <use x="55.615234" xlink:href="#ArialMT-48"/>
      </g>
     </g>
    </g>
    <g id="xtick_3">
     <g id="line2d_3">
      <g>
       <use style="stroke:#000000;stroke-width:1.5;" x="408.396694" xlink:href="#meb5d98f1a1" y="541.44"/>
      </g>
     </g>
     <g id="text_3">
      <!-- 20 -->
      <defs>
       <path d="M 50.34375 8.453125 
L 50.34375 0 
L 3.03125 0 
Q 2.9375 3.171875 4.046875 6.109375 
Q 5.859375 10.9375 9.828125 15.625 
Q 13.8125 20.3125 21.34375 26.46875 
Q 33.015625 36.03125 37.109375 41.625 
Q 41.21875 47.21875 41.21875 52.203125 
Q 41.21875 57.421875 37.46875 61 
Q 33.734375 64.59375 27.734375 64.59375 
Q 21.390625 64.59375 17.578125 60.78125 
Q 13.765625 56.984375 13.71875 50.25 
L 4.6875 51.171875 
Q 5.609375 61.28125 11.65625 66.578125 
Q 17.71875 71.875 27.9375 71.875 
Q 38.234375 71.875 44.234375 66.15625 
Q 50.25 60.453125 50.25 52 
Q 50.25 47.703125 48.484375 43.546875 
Q 46.734375 39.40625 42.65625 34.8125 
Q 38.578125 30.21875 29.109375 22.21875 
Q 21.1875 15.578125 18.9375 13.203125 
Q 16.703125 10.84375 15.234375 8.453125 
z
" id="ArialMT-50"/>
      </defs>
      <g transform="translate(397.274819 564.255625)scale(0.2 -0.2)">
       <use xlink:href="#ArialMT-50"/>
       <use x="55.615234" xlink:href="#ArialMT-48"/>
      </g>
     </g>
    </g>
    <g id="xtick_4">
     <g id="line2d_4">
      <g>
       <use style="stroke:#000000;stroke-width:1.5;" x="531.371901" xlink:href="#meb5d98f1a1" y="541.44"/>
      </g>
     </g>
     <g id="text_4">
      <!-- 30 -->
      <defs>
       <path d="M 4.203125 18.890625 
L 12.984375 20.0625 
Q 14.5 12.59375 18.140625 9.296875 
Q 21.78125 6 27 6 
Q 33.203125 6 37.46875 10.296875 
Q 41.75 14.59375 41.75 20.953125 
Q 41.75 27 37.796875 30.921875 
Q 33.84375 34.859375 27.734375 34.859375 
Q 25.25 34.859375 21.53125 33.890625 
L 22.515625 41.609375 
Q 23.390625 41.5 23.921875 41.5 
Q 29.546875 41.5 34.03125 44.421875 
Q 38.53125 47.359375 38.53125 53.46875 
Q 38.53125 58.296875 35.25 61.46875 
Q 31.984375 64.65625 26.8125 64.65625 
Q 21.6875 64.65625 18.265625 61.421875 
Q 14.84375 58.203125 13.875 51.765625 
L 5.078125 53.328125 
Q 6.6875 62.15625 12.390625 67.015625 
Q 18.109375 71.875 26.609375 71.875 
Q 32.46875 71.875 37.390625 69.359375 
Q 42.328125 66.84375 44.9375 62.5 
Q 47.5625 58.15625 47.5625 53.265625 
Q 47.5625 48.640625 45.0625 44.828125 
Q 42.578125 41.015625 37.703125 38.765625 
Q 44.046875 37.3125 47.5625 32.6875 
Q 51.078125 28.078125 51.078125 21.140625 
Q 51.078125 11.765625 44.234375 5.25 
Q 37.40625 -1.265625 26.953125 -1.265625 
Q 17.53125 -1.265625 11.296875 4.34375 
Q 5.078125 9.96875 4.203125 18.890625 
z
" id="ArialMT-51"/>
      </defs>
      <g transform="translate(520.250026 564.255625)scale(0.2 -0.2)">
       <use xlink:href="#ArialMT-51"/>
       <use x="55.615234" xlink:href="#ArialMT-48"/>
      </g>
     </g>
    </g>
    <g id="text_5">
     <!-- Distance green to green cell -->
     <defs>
      <path d="M 7.71875 0 
L 7.71875 71.578125 
L 32.375 71.578125 
Q 40.71875 71.578125 45.125 70.5625 
Q 51.265625 69.140625 55.609375 65.4375 
Q 61.28125 60.640625 64.078125 53.1875 
Q 66.890625 45.75 66.890625 36.1875 
Q 66.890625 28.03125 64.984375 21.734375 
Q 63.09375 15.4375 60.109375 11.296875 
Q 57.125 7.171875 53.578125 4.796875 
Q 50.046875 2.4375 45.046875 1.21875 
Q 40.046875 0 33.546875 0 
z
M 17.1875 8.453125 
L 32.46875 8.453125 
Q 39.546875 8.453125 43.578125 9.765625 
Q 47.609375 11.078125 50 13.484375 
Q 53.375 16.84375 55.25 22.53125 
Q 57.125 28.21875 57.125 36.328125 
Q 57.125 47.5625 53.4375 53.59375 
Q 49.75 59.625 44.484375 61.671875 
Q 40.671875 63.140625 32.234375 63.140625 
L 17.1875 63.140625 
z
" id="ArialMT-68"/>
      <path d="M 6.640625 61.46875 
L 6.640625 71.578125 
L 15.4375 71.578125 
L 15.4375 61.46875 
z
M 6.640625 0 
L 6.640625 51.859375 
L 15.4375 51.859375 
L 15.4375 0 
z
" id="ArialMT-105"/>
      <path d="M 3.078125 15.484375 
L 11.765625 16.84375 
Q 12.5 11.625 15.84375 8.84375 
Q 19.1875 6.0625 25.203125 6.0625 
Q 31.25 6.0625 34.171875 8.515625 
Q 37.109375 10.984375 37.109375 14.3125 
Q 37.109375 17.28125 34.515625 19 
Q 32.71875 20.171875 25.53125 21.96875 
Q 15.875 24.421875 12.140625 26.203125 
Q 8.40625 27.984375 6.46875 31.125 
Q 4.546875 34.28125 4.546875 38.09375 
Q 4.546875 41.546875 6.125 44.5 
Q 7.71875 47.46875 10.453125 49.421875 
Q 12.5 50.921875 16.03125 51.96875 
Q 19.578125 53.03125 23.640625 53.03125 
Q 29.734375 53.03125 34.34375 51.265625 
Q 38.96875 49.515625 41.15625 46.5 
Q 43.359375 43.5 44.1875 38.484375 
L 35.59375 37.3125 
Q 35.015625 41.3125 32.203125 43.546875 
Q 29.390625 45.796875 24.265625 45.796875 
Q 18.21875 45.796875 15.625 43.796875 
Q 13.03125 41.796875 13.03125 39.109375 
Q 13.03125 37.40625 14.109375 36.03125 
Q 15.1875 34.625 17.484375 33.6875 
Q 18.796875 33.203125 25.25 31.453125 
Q 34.578125 28.953125 38.25 27.359375 
Q 41.9375 25.78125 44.03125 22.75 
Q 46.140625 19.734375 46.140625 15.234375 
Q 46.140625 10.84375 43.578125 6.953125 
Q 41.015625 3.078125 36.171875 0.953125 
Q 31.34375 -1.171875 25.25 -1.171875 
Q 15.140625 -1.171875 9.84375 3.03125 
Q 4.546875 7.234375 3.078125 15.484375 
z
" id="ArialMT-115"/>
      <path d="M 25.78125 7.859375 
L 27.046875 0.09375 
Q 23.34375 -0.6875 20.40625 -0.6875 
Q 15.625 -0.6875 12.984375 0.828125 
Q 10.359375 2.34375 9.28125 4.8125 
Q 8.203125 7.28125 8.203125 15.1875 
L 8.203125 45.015625 
L 1.765625 45.015625 
L 1.765625 51.859375 
L 8.203125 51.859375 
L 8.203125 64.703125 
L 16.9375 69.96875 
L 16.9375 51.859375 
L 25.78125 51.859375 
L 25.78125 45.015625 
L 16.9375 45.015625 
L 16.9375 14.703125 
Q 16.9375 10.9375 17.40625 9.859375 
Q 17.875 8.796875 18.921875 8.15625 
Q 19.96875 7.515625 21.921875 7.515625 
Q 23.390625 7.515625 25.78125 7.859375 
z
" id="ArialMT-116"/>
      <path d="M 40.4375 6.390625 
Q 35.546875 2.25 31.03125 0.53125 
Q 26.515625 -1.171875 21.34375 -1.171875 
Q 12.796875 -1.171875 8.203125 3 
Q 3.609375 7.171875 3.609375 13.671875 
Q 3.609375 17.484375 5.34375 20.625 
Q 7.078125 23.78125 9.890625 25.6875 
Q 12.703125 27.59375 16.21875 28.5625 
Q 18.796875 29.25 24.03125 29.890625 
Q 34.671875 31.15625 39.703125 32.90625 
Q 39.75 34.71875 39.75 35.203125 
Q 39.75 40.578125 37.25 42.78125 
Q 33.890625 45.75 27.25 45.75 
Q 21.046875 45.75 18.09375 43.578125 
Q 15.140625 41.40625 13.71875 35.890625 
L 5.125 37.0625 
Q 6.296875 42.578125 8.984375 45.96875 
Q 11.671875 49.359375 16.75 51.1875 
Q 21.828125 53.03125 28.515625 53.03125 
Q 35.15625 53.03125 39.296875 51.46875 
Q 43.453125 49.90625 45.40625 47.53125 
Q 47.359375 45.171875 48.140625 41.546875 
Q 48.578125 39.3125 48.578125 33.453125 
L 48.578125 21.734375 
Q 48.578125 9.46875 49.140625 6.21875 
Q 49.703125 2.984375 51.375 0 
L 42.1875 0 
Q 40.828125 2.734375 40.4375 6.390625 
z
M 39.703125 26.03125 
Q 34.90625 24.078125 25.34375 22.703125 
Q 19.921875 21.921875 17.671875 20.9375 
Q 15.4375 19.96875 14.203125 18.09375 
Q 12.984375 16.21875 12.984375 13.921875 
Q 12.984375 10.40625 15.640625 8.0625 
Q 18.3125 5.71875 23.4375 5.71875 
Q 28.515625 5.71875 32.46875 7.9375 
Q 36.421875 10.15625 38.28125 14.015625 
Q 39.703125 17 39.703125 22.796875 
z
" id="ArialMT-97"/>
      <path d="M 6.59375 0 
L 6.59375 51.859375 
L 14.5 51.859375 
L 14.5 44.484375 
Q 20.21875 53.03125 31 53.03125 
Q 35.6875 53.03125 39.625 51.34375 
Q 43.5625 49.65625 45.515625 46.921875 
Q 47.46875 44.1875 48.25 40.4375 
Q 48.734375 37.984375 48.734375 31.890625 
L 48.734375 0 
L 39.9375 0 
L 39.9375 31.546875 
Q 39.9375 36.921875 38.90625 39.578125 
Q 37.890625 42.234375 35.28125 43.8125 
Q 32.671875 45.40625 29.15625 45.40625 
Q 23.53125 45.40625 19.453125 41.84375 
Q 15.375 38.28125 15.375 28.328125 
L 15.375 0 
z
" id="ArialMT-110"/>
      <path d="M 40.4375 19 
L 49.078125 17.875 
Q 47.65625 8.9375 41.8125 3.875 
Q 35.984375 -1.171875 27.484375 -1.171875 
Q 16.84375 -1.171875 10.375 5.78125 
Q 3.90625 12.75 3.90625 25.734375 
Q 3.90625 34.125 6.6875 40.421875 
Q 9.46875 46.734375 15.15625 49.875 
Q 20.84375 53.03125 27.546875 53.03125 
Q 35.984375 53.03125 41.359375 48.75 
Q 46.734375 44.484375 48.25 36.625 
L 39.703125 35.296875 
Q 38.484375 40.53125 35.375 43.15625 
Q 32.28125 45.796875 27.875 45.796875 
Q 21.234375 45.796875 17.078125 41.03125 
Q 12.9375 36.28125 12.9375 25.984375 
Q 12.9375 15.53125 16.9375 10.796875 
Q 20.953125 6.0625 27.390625 6.0625 
Q 32.5625 6.0625 36.03125 9.234375 
Q 39.5 12.40625 40.4375 19 
z
" id="ArialMT-99"/>
      <path d="M 42.09375 16.703125 
L 51.171875 15.578125 
Q 49.03125 7.625 43.21875 3.21875 
Q 37.40625 -1.171875 28.375 -1.171875 
Q 17 -1.171875 10.328125 5.828125 
Q 3.65625 12.84375 3.65625 25.484375 
Q 3.65625 38.578125 10.390625 45.796875 
Q 17.140625 53.03125 27.875 53.03125 
Q 38.28125 53.03125 44.875 45.953125 
Q 51.46875 38.875 51.46875 26.03125 
Q 51.46875 25.25 51.421875 23.6875 
L 12.75 23.6875 
Q 13.234375 15.140625 17.578125 10.59375 
Q 21.921875 6.0625 28.421875 6.0625 
Q 33.25 6.0625 36.671875 8.59375 
Q 40.09375 11.140625 42.09375 16.703125 
z
M 13.234375 30.90625 
L 42.1875 30.90625 
Q 41.609375 37.453125 38.875 40.71875 
Q 34.671875 45.796875 27.984375 45.796875 
Q 21.921875 45.796875 17.796875 41.75 
Q 13.671875 37.703125 13.234375 30.90625 
z
" id="ArialMT-101"/>
      <path id="ArialMT-32"/>
      <path d="M 4.984375 -4.296875 
L 13.53125 -5.5625 
Q 14.0625 -9.515625 16.5 -11.328125 
Q 19.78125 -13.765625 25.4375 -13.765625 
Q 31.546875 -13.765625 34.859375 -11.328125 
Q 38.1875 -8.890625 39.359375 -4.5 
Q 40.046875 -1.8125 39.984375 6.78125 
Q 34.234375 0 25.640625 0 
Q 14.9375 0 9.078125 7.71875 
Q 3.21875 15.4375 3.21875 26.21875 
Q 3.21875 33.640625 5.90625 39.90625 
Q 8.59375 46.1875 13.6875 49.609375 
Q 18.796875 53.03125 25.6875 53.03125 
Q 34.859375 53.03125 40.828125 45.609375 
L 40.828125 51.859375 
L 48.921875 51.859375 
L 48.921875 7.03125 
Q 48.921875 -5.078125 46.453125 -10.125 
Q 44 -15.1875 38.640625 -18.109375 
Q 33.296875 -21.046875 25.484375 -21.046875 
Q 16.21875 -21.046875 10.5 -16.875 
Q 4.78125 -12.703125 4.984375 -4.296875 
z
M 12.25 26.859375 
Q 12.25 16.65625 16.296875 11.96875 
Q 20.359375 7.28125 26.46875 7.28125 
Q 32.515625 7.28125 36.609375 11.9375 
Q 40.71875 16.609375 40.71875 26.5625 
Q 40.71875 36.078125 36.5 40.90625 
Q 32.28125 45.75 26.3125 45.75 
Q 20.453125 45.75 16.34375 40.984375 
Q 12.25 36.234375 12.25 26.859375 
z
" id="ArialMT-103"/>
      <path d="M 6.5 0 
L 6.5 51.859375 
L 14.40625 51.859375 
L 14.40625 44 
Q 17.4375 49.515625 20 51.265625 
Q 22.5625 53.03125 25.640625 53.03125 
Q 30.078125 53.03125 34.671875 50.203125 
L 31.640625 42.046875 
Q 28.421875 43.953125 25.203125 43.953125 
Q 22.3125 43.953125 20.015625 42.21875 
Q 17.71875 40.484375 16.75 37.40625 
Q 15.28125 32.71875 15.28125 27.15625 
L 15.28125 0 
z
" id="ArialMT-114"/>
      <path d="M 3.328125 25.921875 
Q 3.328125 40.328125 11.328125 47.265625 
Q 18.015625 53.03125 27.640625 53.03125 
Q 38.328125 53.03125 45.109375 46.015625 
Q 51.90625 39.015625 51.90625 26.65625 
Q 51.90625 16.65625 48.90625 10.90625 
Q 45.90625 5.171875 40.15625 2 
Q 34.421875 -1.171875 27.640625 -1.171875 
Q 16.75 -1.171875 10.03125 5.8125 
Q 3.328125 12.796875 3.328125 25.921875 
z
M 12.359375 25.921875 
Q 12.359375 15.96875 16.703125 11.015625 
Q 21.046875 6.0625 27.640625 6.0625 
Q 34.1875 6.0625 38.53125 11.03125 
Q 42.875 16.015625 42.875 26.21875 
Q 42.875 35.84375 38.5 40.796875 
Q 34.125 45.75 27.640625 45.75 
Q 21.046875 45.75 16.703125 40.8125 
Q 12.359375 35.890625 12.359375 25.921875 
z
" id="ArialMT-111"/>
      <path d="M 6.390625 0 
L 6.390625 71.578125 
L 15.1875 71.578125 
L 15.1875 0 
z
" id="ArialMT-108"/>
     </defs>
     <g transform="translate(222.401278 586.54625)scale(0.2 -0.2)">
      <use xlink:href="#ArialMT-68"/>
      <use x="72.216797" xlink:href="#ArialMT-105"/>
      <use x="94.433594" xlink:href="#ArialMT-115"/>
      <use x="144.433594" xlink:href="#ArialMT-116"/>
      <use x="172.216797" xlink:href="#ArialMT-97"/>
      <use x="227.832031" xlink:href="#ArialMT-110"/>
      <use x="283.447266" xlink:href="#ArialMT-99"/>
      <use x="333.447266" xlink:href="#ArialMT-101"/>
      <use x="389.0625" xlink:href="#ArialMT-32"/>
      <use x="416.845703" xlink:href="#ArialMT-103"/>
      <use x="472.460938" xlink:href="#ArialMT-114"/>
      <use x="505.761719" xlink:href="#ArialMT-101"/>
      <use x="561.376953" xlink:href="#ArialMT-101"/>
      <use x="616.992188" xlink:href="#ArialMT-110"/>
      <use x="672.607422" xlink:href="#ArialMT-32"/>
      <use x="700.390625" xlink:href="#ArialMT-116"/>
      <use x="728.173828" xlink:href="#ArialMT-111"/>
      <use x="783.789062" xlink:href="#ArialMT-32"/>
      <use x="811.572266" xlink:href="#ArialMT-103"/>
      <use x="867.1875" xlink:href="#ArialMT-114"/>
      <use x="900.488281" xlink:href="#ArialMT-101"/>
      <use x="956.103516" xlink:href="#ArialMT-101"/>
      <use x="1011.71875" xlink:href="#ArialMT-110"/>
      <use x="1067.333984" xlink:href="#ArialMT-32"/>
      <use x="1095.117188" xlink:href="#ArialMT-99"/>
      <use x="1145.117188" xlink:href="#ArialMT-101"/>
      <use x="1200.732422" xlink:href="#ArialMT-108"/>
      <use x="1222.949219" xlink:href="#ArialMT-108"/>
     </g>
    </g>
   </g>
   <g id="matplotlib.axis_2">
    <g id="ytick_1">
     <g id="line2d_5">
      <defs>
       <path d="M 0 0 
L -5 0 
" id="mb91c6667dd" style="stroke:#000000;stroke-width:1.5;"/>
      </defs>
      <g>
       <use style="stroke:#000000;stroke-width:1.5;" x="144" xlink:href="#mb91c6667dd" y="541.44"/>
      </g>
     </g>
     <g id="text_6">
      <!-- 0 -->
      <g transform="translate(124.378125 548.597812)scale(0.2 -0.2)">
       <use xlink:href="#ArialMT-48"/>
      </g>
     </g>
    </g>
    <g id="ytick_2">
     <g id="line2d_6">
      <g>
       <use style="stroke:#000000;stroke-width:1.5;" x="144" xlink:href="#mb91c6667dd" y="486.582857"/>
      </g>
     </g>
     <g id="text_7">
      <!-- 5 -->
      <defs>
       <path d="M 4.15625 18.75 
L 13.375 19.53125 
Q 14.40625 12.796875 18.140625 9.390625 
Q 21.875 6 27.15625 6 
Q 33.5 6 37.890625 10.78125 
Q 42.28125 15.578125 42.28125 23.484375 
Q 42.28125 31 38.0625 35.34375 
Q 33.84375 39.703125 27 39.703125 
Q 22.75 39.703125 19.328125 37.765625 
Q 15.921875 35.84375 13.96875 32.765625 
L 5.71875 33.84375 
L 12.640625 70.609375 
L 48.25 70.609375 
L 48.25 62.203125 
L 19.671875 62.203125 
L 15.828125 42.96875 
Q 22.265625 47.46875 29.34375 47.46875 
Q 38.71875 47.46875 45.15625 40.96875 
Q 51.609375 34.46875 51.609375 24.265625 
Q 51.609375 14.546875 45.953125 7.46875 
Q 39.0625 -1.21875 27.15625 -1.21875 
Q 17.390625 -1.21875 11.203125 4.25 
Q 5.03125 9.71875 4.15625 18.75 
z
" id="ArialMT-53"/>
      </defs>
      <g transform="translate(124.378125 493.74067)scale(0.2 -0.2)">
       <use xlink:href="#ArialMT-53"/>
      </g>
     </g>
    </g>
    <g id="ytick_3">
     <g id="line2d_7">
      <g>
       <use style="stroke:#000000;stroke-width:1.5;" x="144" xlink:href="#mb91c6667dd" y="431.725714"/>
      </g>
     </g>
     <g id="text_8">
      <!-- 10 -->
      <g transform="translate(113.25625 438.883527)scale(0.2 -0.2)">
       <use xlink:href="#ArialMT-49"/>
       <use x="55.615234" xlink:href="#ArialMT-48"/>
      </g>
     </g>
    </g>
    <g id="ytick_4">
     <g id="line2d_8">
      <g>
       <use style="stroke:#000000;stroke-width:1.5;" x="144" xlink:href="#mb91c6667dd" y="376.868571"/>
      </g>
     </g>
     <g id="text_9">
      <!-- 15 -->
      <g transform="translate(113.25625 384.026384)scale(0.2 -0.2)">
       <use xlink:href="#ArialMT-49"/>
       <use x="55.615234" xlink:href="#ArialMT-53"/>
      </g>
     </g>
    </g>
    <g id="ytick_5">
     <g id="line2d_9">
      <g>
       <use style="stroke:#000000;stroke-width:1.5;" x="144" xlink:href="#mb91c6667dd" y="322.011429"/>
      </g>
     </g>
     <g id="text_10">
      <!-- 20 -->
      <g transform="translate(113.25625 329.169241)scale(0.2 -0.2)">
       <use xlink:href="#ArialMT-50"/>
       <use x="55.615234" xlink:href="#ArialMT-48"/>
      </g>
     </g>
    </g>
    <g id="ytick_6">
     <g id="line2d_10">
      <g>
       <use style="stroke:#000000;stroke-width:1.5;" x="144" xlink:href="#mb91c6667dd" y="267.154286"/>
      </g>
     </g>
     <g id="text_11">
      <!-- 25 -->
      <g transform="translate(113.25625 274.312098)scale(0.2 -0.2)">
       <use xlink:href="#ArialMT-50"/>
       <use x="55.615234" xlink:href="#ArialMT-53"/>
      </g>
     </g>
    </g>
    <g id="ytick_7">
     <g id="line2d_11">
      <g>
       <use style="stroke:#000000;stroke-width:1.5;" x="144" xlink:href="#mb91c6667dd" y="212.297143"/>
      </g>
     </g>
     <g id="text_12">
      <!-- 30 -->
      <g transform="translate(113.25625 219.454955)scale(0.2 -0.2)">
       <use xlink:href="#ArialMT-51"/>
       <use x="55.615234" xlink:href="#ArialMT-48"/>
      </g>
     </g>
    </g>
    <g id="ytick_8">
     <g id="line2d_12">
      <g>
       <use style="stroke:#000000;stroke-width:1.5;" x="144" xlink:href="#mb91c6667dd" y="157.44"/>
      </g>
     </g>
     <g id="text_13">
      <!-- 35 -->
      <g transform="translate(113.25625 164.597813)scale(0.2 -0.2)">
       <use xlink:href="#ArialMT-51"/>
       <use x="55.615234" xlink:href="#ArialMT-53"/>
      </g>
     </g>
    </g>
    <g id="text_14">
     <!-- Counts -->
     <defs>
      <path d="M 58.796875 25.09375 
L 68.265625 22.703125 
Q 65.28125 11.03125 57.546875 4.90625 
Q 49.8125 -1.21875 38.625 -1.21875 
Q 27.046875 -1.21875 19.796875 3.484375 
Q 12.546875 8.203125 8.765625 17.140625 
Q 4.984375 26.078125 4.984375 36.328125 
Q 4.984375 47.515625 9.25 55.828125 
Q 13.53125 64.15625 21.40625 68.46875 
Q 29.296875 72.796875 38.765625 72.796875 
Q 49.515625 72.796875 56.828125 67.328125 
Q 64.15625 61.859375 67.046875 51.953125 
L 57.71875 49.75 
Q 55.21875 57.5625 50.484375 61.125 
Q 45.75 64.703125 38.578125 64.703125 
Q 30.328125 64.703125 24.78125 60.734375 
Q 19.234375 56.78125 16.984375 50.109375 
Q 14.75 43.453125 14.75 36.375 
Q 14.75 27.25 17.40625 20.4375 
Q 20.0625 13.625 25.671875 10.25 
Q 31.296875 6.890625 37.84375 6.890625 
Q 45.796875 6.890625 51.3125 11.46875 
Q 56.84375 16.0625 58.796875 25.09375 
z
" id="ArialMT-67"/>
      <path d="M 40.578125 0 
L 40.578125 7.625 
Q 34.515625 -1.171875 24.125 -1.171875 
Q 19.53125 -1.171875 15.546875 0.578125 
Q 11.578125 2.34375 9.640625 5 
Q 7.71875 7.671875 6.9375 11.53125 
Q 6.390625 14.109375 6.390625 19.734375 
L 6.390625 51.859375 
L 15.1875 51.859375 
L 15.1875 23.09375 
Q 15.1875 16.21875 15.71875 13.8125 
Q 16.546875 10.359375 19.234375 8.375 
Q 21.921875 6.390625 25.875 6.390625 
Q 29.828125 6.390625 33.296875 8.421875 
Q 36.765625 10.453125 38.203125 13.9375 
Q 39.65625 17.4375 39.65625 24.078125 
L 39.65625 51.859375 
L 48.4375 51.859375 
L 48.4375 0 
z
" id="ArialMT-117"/>
     </defs>
     <g transform="translate(105.28125 371.522812)rotate(-90)scale(0.2 -0.2)">
      <use xlink:href="#ArialMT-67"/>
      <use x="72.216797" xlink:href="#ArialMT-111"/>
      <use x="127.832031" xlink:href="#ArialMT-117"/>
      <use x="183.447266" xlink:href="#ArialMT-110"/>
      <use x="239.0625" xlink:href="#ArialMT-116"/>
      <use x="266.845703" xlink:href="#ArialMT-115"/>
     </g>
    </g>
   </g>
   <g id="patch_3">
    <path clip-path="url(#p6b11753db7)" d="M 167.980165 541.44 
L 193.804959 541.44 
L 193.804959 541.44 
L 167.980165 541.44 
z
" style="fill:#1f77b4;"/>
   </g>
   <g id="patch_4">
    <path clip-path="url(#p6b11753db7)" d="M 204.872727 541.44 
L 230.697521 541.44 
L 230.697521 497.554286 
L 204.872727 497.554286 
z
" style="fill:#1f77b4;"/>
   </g>
   <g id="patch_5">
    <path clip-path="url(#p6b11753db7)" d="M 241.765289 541.44 
L 267.590083 541.44 
L 267.590083 387.84 
L 241.765289 387.84 
z
" style="fill:#1f77b4;"/>
   </g>
   <g id="patch_6">
    <path clip-path="url(#p6b11753db7)" d="M 278.657851 541.44 
L 304.482645 541.44 
L 304.482645 212.297143 
L 278.657851 212.297143 
z
" style="fill:#1f77b4;"/>
   </g>
   <g id="patch_7">
    <path clip-path="url(#p6b11753db7)" d="M 315.550413 541.44 
L 341.375207 541.44 
L 341.375207 157.44 
L 315.550413 157.44 
z
" style="fill:#1f77b4;"/>
   </g>
   <g id="patch_8">
    <path clip-path="url(#p6b11753db7)" d="M 352.442975 541.44 
L 378.267769 541.44 
L 378.267769 278.125714 
L 352.442975 278.125714 
z
" style="fill:#1f77b4;"/>
   </g>
   <g id="patch_9">
    <path clip-path="url(#p6b11753db7)" d="M 389.335537 541.44 
L 415.160331 541.44 
L 415.160331 464.64 
L 389.335537 464.64 
z
" style="fill:#1f77b4;"/>
   </g>
   <g id="patch_10">
    <path clip-path="url(#p6b11753db7)" d="M 426.228099 541.44 
L 452.052893 541.44 
L 452.052893 442.697143 
L 426.228099 442.697143 
z
" style="fill:#1f77b4;"/>
   </g>
   <g id="patch_11">
    <path clip-path="url(#p6b11753db7)" d="M 463.120661 541.44 
L 488.945455 541.44 
L 488.945455 519.497143 
L 463.120661 519.497143 
z
" style="fill:#1f77b4;"/>
   </g>
   <g id="patch_12">
    <path clip-path="url(#p6b11753db7)" d="M 500.013223 541.44 
L 525.838017 541.44 
L 525.838017 530.468571 
L 500.013223 530.468571 
z
" style="fill:#1f77b4;"/>
   </g>
   <g id="line2d_13">
    <path clip-path="url(#p6b11753db7)" d="M 162.446281 540.977671 
L 166.172802 540.697364 
L 169.899324 540.274741 
L 173.625845 539.653518 
L 177.352367 538.763136 
L 181.078888 537.518618 
L 184.805409 535.821956 
L 188.531931 533.565396 
L 192.258452 530.636801 
L 195.984974 526.926949 
L 199.711495 522.338237 
L 203.438017 516.793911 
L 207.164538 510.246601 
L 210.891059 502.684796 
L 214.617581 494.136005 
L 218.344102 484.665681 
L 222.070624 474.371592 
L 225.797145 463.374085 
L 229.523666 451.803477 
L 233.250188 439.786403 
L 236.976709 427.433356 
L 240.703231 414.829543 
L 244.429752 402.0307 
L 248.156273 389.064687 
L 251.882795 375.938589 
L 255.609316 362.650068 
L 259.335838 349.200921 
L 263.062359 335.610421 
L 266.788881 321.926186 
L 270.515402 308.230838 
L 274.241923 294.643557 
L 277.968445 281.316514 
L 281.694966 268.426896 
L 285.421488 256.165754 
L 289.148009 244.72511 
L 292.87453 234.284808 
L 296.601052 225.000481 
L 300.327573 216.993921 
L 304.054095 210.346931 
L 307.780616 205.099505 
L 311.507137 201.252747 
L 315.233659 198.77632 
L 318.96018 197.619513 
L 322.686702 197.72427 
L 326.413223 199.03809 
L 330.139745 201.524567 
L 333.866266 205.169725 
L 337.592787 209.982969 
L 341.319309 215.992438 
L 345.04583 223.235411 
L 348.772352 231.745158 
L 352.498873 241.536016 
L 356.225394 252.588603 
L 359.951916 264.836975 
L 363.678437 278.159304 
L 367.404959 292.373352 
L 371.13148 307.237727 
L 374.858002 322.459475 
L 378.584523 337.70809 
L 382.311044 352.635359 
L 386.037566 366.899687 
L 389.764087 380.192762 
L 393.490609 392.265714 
L 397.21713 402.951528 
L 400.943651 412.180539 
L 404.670173 419.986386 
L 408.396694 426.500964 
L 412.123216 431.938382 
L 415.849737 436.569657 
L 419.576258 440.691321 
L 423.30278 444.592213 
L 427.029301 448.523006 
L 430.755823 452.672593 
L 434.482344 457.154221 
L 438.208866 462.002619 
L 441.935387 467.181508 
L 445.661908 472.599307 
L 449.38843 478.129711 
L 453.114951 483.633462 
L 456.841473 488.977896 
L 460.567994 494.051742 
L 464.294515 498.773875 
L 468.021037 503.095986 
L 471.747558 507.000193 
L 475.47408 510.493305 
L 479.200601 513.599622 
L 482.927122 516.353923 
L 486.653644 518.795738 
L 490.380165 520.965336 
L 494.106687 522.90127 
L 497.833208 524.638955 
L 501.55973 526.209659 
L 505.286251 527.639451 
L 509.012772 528.947974 
L 512.739294 530.147229 
L 516.465815 531.240806 
L 520.192337 532.224046 
L 523.918858 533.08547 
L 527.645379 533.809569 
L 531.371901 534.380668 
" style="fill:none;stroke:#00bfbf;stroke-linecap:square;stroke-linejoin:miter;stroke-width:5;"/>
   </g>
   <g id="patch_13">
    <path d="M 144 541.44 
L 144 138.24 
" style="fill:none;stroke:#000000;stroke-linecap:square;stroke-linejoin:miter;stroke-width:2;"/>
   </g>
   <g id="patch_14">
    <path d="M 144 541.44 
L 549.818182 541.44 
" style="fill:none;stroke:#000000;stroke-linecap:square;stroke-linejoin:miter;stroke-width:2;"/>
   </g>
   <g id="text_15">
    <!-- uniform01 (n=127) -->
    <defs>
     <path d="M 8.6875 0 
L 8.6875 45.015625 
L 0.921875 45.015625 
L 0.921875 51.859375 
L 8.6875 51.859375 
L 8.6875 57.375 
Q 8.6875 62.59375 9.625 65.140625 
Q 10.890625 68.5625 14.078125 70.671875 
Q 17.28125 72.796875 23.046875 72.796875 
Q 26.765625 72.796875 31.25 71.921875 
L 29.9375 64.265625 
Q 27.203125 64.75 24.75 64.75 
Q 20.75 64.75 19.09375 63.03125 
Q 17.4375 61.328125 17.4375 56.640625 
L 17.4375 51.859375 
L 27.546875 51.859375 
L 27.546875 45.015625 
L 17.4375 45.015625 
L 17.4375 0 
z
" id="ArialMT-102"/>
     <path d="M 6.59375 0 
L 6.59375 51.859375 
L 14.453125 51.859375 
L 14.453125 44.578125 
Q 16.890625 48.390625 20.9375 50.703125 
Q 25 53.03125 30.171875 53.03125 
Q 35.9375 53.03125 39.625 50.640625 
Q 43.3125 48.25 44.828125 43.953125 
Q 50.984375 53.03125 60.84375 53.03125 
Q 68.5625 53.03125 72.703125 48.75 
Q 76.859375 44.484375 76.859375 35.59375 
L 76.859375 0 
L 68.109375 0 
L 68.109375 32.671875 
Q 68.109375 37.9375 67.25 40.25 
Q 66.40625 42.578125 64.15625 43.984375 
Q 61.921875 45.40625 58.890625 45.40625 
Q 53.421875 45.40625 49.796875 41.765625 
Q 46.1875 38.140625 46.1875 30.125 
L 46.1875 0 
L 37.40625 0 
L 37.40625 33.6875 
Q 37.40625 39.546875 35.25 42.46875 
Q 33.109375 45.40625 28.21875 45.40625 
Q 24.515625 45.40625 21.359375 43.453125 
Q 18.21875 41.5 16.796875 37.734375 
Q 15.375 33.984375 15.375 26.90625 
L 15.375 0 
z
" id="ArialMT-109"/>
     <path d="M 23.390625 -21.046875 
Q 16.109375 -11.859375 11.078125 0.4375 
Q 6.0625 12.75 6.0625 25.921875 
Q 6.0625 37.546875 9.8125 48.1875 
Q 14.203125 60.546875 23.390625 72.796875 
L 29.6875 72.796875 
Q 23.78125 62.640625 21.875 58.296875 
Q 18.890625 51.5625 17.1875 44.234375 
Q 15.09375 35.109375 15.09375 25.875 
Q 15.09375 2.390625 29.6875 -21.046875 
z
" id="ArialMT-40"/>
     <path d="M 52.828125 42.09375 
L 5.5625 42.09375 
L 5.5625 50.296875 
L 52.828125 50.296875 
z
M 52.828125 20.359375 
L 5.5625 20.359375 
L 5.5625 28.5625 
L 52.828125 28.5625 
z
" id="ArialMT-61"/>
     <path d="M 4.734375 62.203125 
L 4.734375 70.65625 
L 51.078125 70.65625 
L 51.078125 63.8125 
Q 44.234375 56.546875 37.515625 44.484375 
Q 30.8125 32.421875 27.15625 19.671875 
Q 24.515625 10.6875 23.78125 0 
L 14.75 0 
Q 14.890625 8.453125 18.0625 20.40625 
Q 21.234375 32.375 27.171875 43.484375 
Q 33.109375 54.59375 39.796875 62.203125 
z
" id="ArialMT-55"/>
     <path d="M 12.359375 -21.046875 
L 6.0625 -21.046875 
Q 20.65625 2.390625 20.65625 25.875 
Q 20.65625 35.0625 18.5625 44.09375 
Q 16.890625 51.421875 13.921875 58.15625 
Q 12.015625 62.546875 6.0625 72.796875 
L 12.359375 72.796875 
Q 21.53125 60.546875 25.921875 48.1875 
Q 29.6875 37.546875 29.6875 25.921875 
Q 29.6875 12.75 24.625 0.4375 
Q 19.578125 -11.859375 12.359375 -21.046875 
z
" id="ArialMT-41"/>
    </defs>
    <g transform="translate(248.525966 132.24)scale(0.24 -0.24)">
     <use xlink:href="#ArialMT-117"/>
     <use x="55.615234" xlink:href="#ArialMT-110"/>
     <use x="111.230469" xlink:href="#ArialMT-105"/>
     <use x="133.447266" xlink:href="#ArialMT-102"/>
     <use x="161.230469" xlink:href="#ArialMT-111"/>
     <use x="216.845703" xlink:href="#ArialMT-114"/>
     <use x="250.146484" xlink:href="#ArialMT-109"/>
     <use x="333.447266" xlink:href="#ArialMT-48"/>
     <use x="389.0625" xlink:href="#ArialMT-49"/>
     <use x="444.677734" xlink:href="#ArialMT-32"/>
     <use x="472.460938" xlink:href="#ArialMT-40"/>
     <use x="505.761719" xlink:href="#ArialMT-110"/>
     <use x="561.376953" xlink:href="#ArialMT-61"/>
     <use x="619.775391" xlink:href="#ArialMT-49"/>
     <use x="675.390625" xlink:href="#ArialMT-50"/>
     <use x="731.005859" xlink:href="#ArialMT-55"/>
     <use x="786.621094" xlink:href="#ArialMT-41"/>
    </g>
   </g>
  </g>
  <g id="axes_2">
   <g id="patch_15">
    <path d="M 630.981818 541.44 
L 1036.8 541.44 
L 1036.8 138.24 
L 630.981818 138.24 
z
" style="fill:none;"/>
   </g>
   <g id="matplotlib.axis_3">
    <g id="xtick_5">
     <g id="line2d_14">
      <g>
       <use style="stroke:#000000;stroke-width:1.5;" x="649.428099" xlink:href="#meb5d98f1a1" y="541.44"/>
      </g>
     </g>
     <g id="text_16">
      <!-- 0 -->
      <g transform="translate(643.867162 564.255625)scale(0.2 -0.2)">
       <use xlink:href="#ArialMT-48"/>
      </g>
     </g>
    </g>
    <g id="xtick_6">
     <g id="line2d_15">
      <g>
       <use style="stroke:#000000;stroke-width:1.5;" x="772.403306" xlink:href="#meb5d98f1a1" y="541.44"/>
      </g>
     </g>
     <g id="text_17">
      <!-- 10 -->
      <g transform="translate(761.281431 564.255625)scale(0.2 -0.2)">
       <use xlink:href="#ArialMT-49"/>
       <use x="55.615234" xlink:href="#ArialMT-48"/>
      </g>
     </g>
    </g>
    <g id="xtick_7">
     <g id="line2d_16">
      <g>
       <use style="stroke:#000000;stroke-width:1.5;" x="895.378512" xlink:href="#meb5d98f1a1" y="541.44"/>
      </g>
     </g>
     <g id="text_18">
      <!-- 20 -->
      <g transform="translate(884.256637 564.255625)scale(0.2 -0.2)">
       <use xlink:href="#ArialMT-50"/>
       <use x="55.615234" xlink:href="#ArialMT-48"/>
      </g>
     </g>
    </g>
    <g id="xtick_8">
     <g id="line2d_17">
      <g>
       <use style="stroke:#000000;stroke-width:1.5;" x="1018.353719" xlink:href="#meb5d98f1a1" y="541.44"/>
      </g>
     </g>
     <g id="text_19">
      <!-- 30 -->
      <g transform="translate(1007.231844 564.255625)scale(0.2 -0.2)">
       <use xlink:href="#ArialMT-51"/>
       <use x="55.615234" xlink:href="#ArialMT-48"/>
      </g>
     </g>
    </g>
    <g id="text_20">
     <!-- Distance green to red cell -->
     <defs>
      <path d="M 40.234375 0 
L 40.234375 6.546875 
Q 35.296875 -1.171875 25.734375 -1.171875 
Q 19.53125 -1.171875 14.328125 2.25 
Q 9.125 5.671875 6.265625 11.796875 
Q 3.421875 17.921875 3.421875 25.875 
Q 3.421875 33.640625 6 39.96875 
Q 8.59375 46.296875 13.765625 49.65625 
Q 18.953125 53.03125 25.34375 53.03125 
Q 30.03125 53.03125 33.6875 51.046875 
Q 37.359375 49.078125 39.65625 45.90625 
L 39.65625 71.578125 
L 48.390625 71.578125 
L 48.390625 0 
z
M 12.453125 25.875 
Q 12.453125 15.921875 16.640625 10.984375 
Q 20.84375 6.0625 26.5625 6.0625 
Q 32.328125 6.0625 36.34375 10.765625 
Q 40.375 15.484375 40.375 25.140625 
Q 40.375 35.796875 36.265625 40.765625 
Q 32.171875 45.75 26.171875 45.75 
Q 20.3125 45.75 16.375 40.96875 
Q 12.453125 36.1875 12.453125 25.875 
z
" id="ArialMT-100"/>
     </defs>
     <g transform="translate(720.504972 586.54625)scale(0.2 -0.2)">
      <use xlink:href="#ArialMT-68"/>
      <use x="72.216797" xlink:href="#ArialMT-105"/>
      <use x="94.433594" xlink:href="#ArialMT-115"/>
      <use x="144.433594" xlink:href="#ArialMT-116"/>
      <use x="172.216797" xlink:href="#ArialMT-97"/>
      <use x="227.832031" xlink:href="#ArialMT-110"/>
      <use x="283.447266" xlink:href="#ArialMT-99"/>
      <use x="333.447266" xlink:href="#ArialMT-101"/>
      <use x="389.0625" xlink:href="#ArialMT-32"/>
      <use x="416.845703" xlink:href="#ArialMT-103"/>
      <use x="472.460938" xlink:href="#ArialMT-114"/>
      <use x="505.761719" xlink:href="#ArialMT-101"/>
      <use x="561.376953" xlink:href="#ArialMT-101"/>
      <use x="616.992188" xlink:href="#ArialMT-110"/>
      <use x="672.607422" xlink:href="#ArialMT-32"/>
      <use x="700.390625" xlink:href="#ArialMT-116"/>
      <use x="728.173828" xlink:href="#ArialMT-111"/>
      <use x="783.789062" xlink:href="#ArialMT-32"/>
      <use x="811.572266" xlink:href="#ArialMT-114"/>
      <use x="844.873047" xlink:href="#ArialMT-101"/>
      <use x="900.488281" xlink:href="#ArialMT-100"/>
      <use x="956.103516" xlink:href="#ArialMT-32"/>
      <use x="983.886719" xlink:href="#ArialMT-99"/>
      <use x="1033.886719" xlink:href="#ArialMT-101"/>
      <use x="1089.501953" xlink:href="#ArialMT-108"/>
      <use x="1111.71875" xlink:href="#ArialMT-108"/>
     </g>
    </g>
   </g>
   <g id="matplotlib.axis_4">
    <g id="ytick_9">
     <g id="line2d_18">
      <g>
       <use style="stroke:#000000;stroke-width:1.5;" x="630.981818" xlink:href="#mb91c6667dd" y="541.44"/>
      </g>
     </g>
     <g id="text_21">
      <!-- 0 -->
      <g transform="translate(611.359943 548.597812)scale(0.2 -0.2)">
       <use xlink:href="#ArialMT-48"/>
      </g>
     </g>
    </g>
    <g id="ytick_10">
     <g id="line2d_19">
      <g>
       <use style="stroke:#000000;stroke-width:1.5;" x="630.981818" xlink:href="#mb91c6667dd" y="460.561761"/>
      </g>
     </g>
     <g id="text_22">
      <!-- 10 -->
      <g transform="translate(600.238068 467.719574)scale(0.2 -0.2)">
       <use xlink:href="#ArialMT-49"/>
       <use x="55.615234" xlink:href="#ArialMT-48"/>
      </g>
     </g>
    </g>
    <g id="ytick_11">
     <g id="line2d_20">
      <g>
       <use style="stroke:#000000;stroke-width:1.5;" x="630.981818" xlink:href="#mb91c6667dd" y="379.683523"/>
      </g>
     </g>
     <g id="text_23">
      <!-- 20 -->
      <g transform="translate(600.238068 386.841335)scale(0.2 -0.2)">
       <use xlink:href="#ArialMT-50"/>
       <use x="55.615234" xlink:href="#ArialMT-48"/>
      </g>
     </g>
    </g>
    <g id="ytick_12">
     <g id="line2d_21">
      <g>
       <use style="stroke:#000000;stroke-width:1.5;" x="630.981818" xlink:href="#mb91c6667dd" y="298.805284"/>
      </g>
     </g>
     <g id="text_24">
      <!-- 30 -->
      <g transform="translate(600.238068 305.963096)scale(0.2 -0.2)">
       <use xlink:href="#ArialMT-51"/>
       <use x="55.615234" xlink:href="#ArialMT-48"/>
      </g>
     </g>
    </g>
    <g id="ytick_13">
     <g id="line2d_22">
      <g>
       <use style="stroke:#000000;stroke-width:1.5;" x="630.981818" xlink:href="#mb91c6667dd" y="217.927045"/>
      </g>
     </g>
     <g id="text_25">
      <!-- 40 -->
      <defs>
       <path d="M 32.328125 0 
L 32.328125 17.140625 
L 1.265625 17.140625 
L 1.265625 25.203125 
L 33.9375 71.578125 
L 41.109375 71.578125 
L 41.109375 25.203125 
L 50.78125 25.203125 
L 50.78125 17.140625 
L 41.109375 17.140625 
L 41.109375 0 
z
M 32.328125 25.203125 
L 32.328125 57.46875 
L 9.90625 25.203125 
z
" id="ArialMT-52"/>
      </defs>
      <g transform="translate(600.238068 225.084858)scale(0.2 -0.2)">
       <use xlink:href="#ArialMT-52"/>
       <use x="55.615234" xlink:href="#ArialMT-48"/>
      </g>
     </g>
    </g>
    <g id="text_26">
     <!-- Counts -->
     <g transform="translate(592.263068 371.522812)rotate(-90)scale(0.2 -0.2)">
      <use xlink:href="#ArialMT-67"/>
      <use x="72.216797" xlink:href="#ArialMT-111"/>
      <use x="127.832031" xlink:href="#ArialMT-117"/>
      <use x="183.447266" xlink:href="#ArialMT-110"/>
      <use x="239.0625" xlink:href="#ArialMT-116"/>
      <use x="266.845703" xlink:href="#ArialMT-115"/>
     </g>
    </g>
   </g>
   <g id="patch_16">
    <path clip-path="url(#p3ed7a3e8a4)" d="M 654.961983 541.44 
L 680.786777 541.44 
L 680.786777 541.44 
L 654.961983 541.44 
z
" style="fill:#1f77b4;"/>
   </g>
   <g id="patch_17">
    <path clip-path="url(#p3ed7a3e8a4)" d="M 691.854545 541.44 
L 717.679339 541.44 
L 717.679339 436.29829 
L 691.854545 436.29829 
z
" style="fill:#1f77b4;"/>
   </g>
   <g id="patch_18">
    <path clip-path="url(#p3ed7a3e8a4)" d="M 728.747107 541.44 
L 754.571901 541.44 
L 754.571901 193.663574 
L 728.747107 193.663574 
z
" style="fill:#1f77b4;"/>
   </g>
   <g id="patch_19">
    <path clip-path="url(#p3ed7a3e8a4)" d="M 765.639669 541.44 
L 791.464463 541.44 
L 791.464463 169.400102 
L 765.639669 169.400102 
z
" style="fill:#1f77b4;"/>
   </g>
   <g id="patch_20">
    <path clip-path="url(#p3ed7a3e8a4)" d="M 802.532231 541.44 
L 828.357025 541.44 
L 828.357025 387.771346 
L 802.532231 387.771346 
z
" style="fill:#1f77b4;"/>
   </g>
   <g id="patch_21">
    <path clip-path="url(#p3ed7a3e8a4)" d="M 839.424793 541.44 
L 865.249587 541.44 
L 865.249587 501.000881 
L 839.424793 501.000881 
z
" style="fill:#1f77b4;"/>
   </g>
   <g id="patch_22">
    <path clip-path="url(#p3ed7a3e8a4)" d="M 876.317355 541.44 
L 902.142149 541.44 
L 902.142149 533.352176 
L 876.317355 533.352176 
z
" style="fill:#1f77b4;"/>
   </g>
   <g id="patch_23">
    <path clip-path="url(#p3ed7a3e8a4)" d="M 913.209917 541.44 
L 939.034711 541.44 
L 939.034711 541.44 
L 913.209917 541.44 
z
" style="fill:#1f77b4;"/>
   </g>
   <g id="patch_24">
    <path clip-path="url(#p3ed7a3e8a4)" d="M 950.102479 541.44 
L 975.927273 541.44 
L 975.927273 541.44 
L 950.102479 541.44 
z
" style="fill:#1f77b4;"/>
   </g>
   <g id="patch_25">
    <path clip-path="url(#p3ed7a3e8a4)" d="M 986.995041 541.44 
L 1012.819835 541.44 
L 1012.819835 541.44 
L 986.995041 541.44 
z
" style="fill:#1f77b4;"/>
   </g>
   <g id="line2d_23">
    <path clip-path="url(#p3ed7a3e8a4)" d="M 649.428099 541.439669 
L 653.154621 541.43872 
L 656.881142 541.435411 
L 660.607663 541.424746 
L 664.334185 541.392968 
L 668.060706 541.305431 
L 671.787228 541.082535 
L 675.513749 540.557957 
L 679.24027 539.417009 
L 682.966792 537.123911 
L 686.693313 532.865492 
L 690.419835 525.558393 
L 694.146356 513.971104 
L 697.872878 496.982865 
L 701.599399 473.934622 
L 705.32592 444.949836 
L 709.052442 411.068494 
L 712.778963 374.092907 
L 716.505485 336.181341 
L 720.232006 299.36827 
L 723.958527 265.235272 
L 727.685049 234.857616 
L 731.41157 208.967395 
L 735.138092 188.135416 
L 738.864613 172.784157 
L 742.591134 162.996877 
L 746.317656 158.270756 
L 750.044177 157.44 
L 753.770699 158.908754 
L 757.49722 161.139152 
L 761.223742 163.166938 
L 764.950263 164.881335 
L 768.676784 166.93238 
L 772.403306 170.338026 
L 776.129827 176.023726 
L 779.856349 184.54081 
L 783.58287 196.073236 
L 787.309391 210.647388 
L 791.035913 228.334607 
L 794.762434 249.261585 
L 798.488956 273.398221 
L 802.215477 300.265935 
L 805.941998 328.780223 
L 809.66852 357.36282 
L 813.395041 384.292019 
L 817.121563 408.123192 
L 820.848084 427.99164 
L 824.574606 443.701125 
L 828.301127 455.623775 
L 832.027648 464.507123 
L 835.75417 471.275985 
L 839.480691 476.866685 
L 843.207213 482.09187 
L 846.933734 487.530274 
L 850.660255 493.453094 
L 854.386777 499.809583 
L 858.113298 506.285158 
L 861.83982 512.422699 
L 865.566341 517.77574 
L 869.292863 522.049992 
L 873.019384 525.189973 
L 876.745905 527.382085 
L 880.472427 528.973743 
L 884.198948 530.341704 
L 887.92547 531.764955 
L 891.651991 533.353601 
L 895.378512 535.055242 
L 899.105034 536.721704 
L 902.831555 538.194499 
L 906.558077 539.368659 
L 910.284598 540.215646 
L 914.011119 540.770422 
L 917.737641 541.101406 
L 921.464162 541.28173 
L 925.190684 541.371628 
L 928.917205 541.412706 
L 932.643727 541.429932 
L 936.370248 541.436569 
L 940.096769 541.438919 
L 943.823291 541.439686 
L 947.549812 541.439915 
L 951.276334 541.439979 
L 955.002855 541.439995 
L 958.729376 541.439999 
L 962.455898 541.44 
L 966.182419 541.44 
L 969.908941 541.44 
L 973.635462 541.44 
L 977.361983 541.44 
L 981.088505 541.44 
L 984.815026 541.44 
L 988.541548 541.44 
L 992.268069 541.44 
L 995.994591 541.44 
L 999.721112 541.44 
L 1003.447633 541.44 
L 1007.174155 541.44 
L 1010.900676 541.44 
L 1014.627198 541.44 
L 1018.353719 541.44 
" style="fill:none;stroke:#00bfbf;stroke-linecap:square;stroke-linejoin:miter;stroke-width:5;"/>
   </g>
   <g id="patch_26">
    <path d="M 630.981818 541.44 
L 630.981818 138.24 
" style="fill:none;stroke:#000000;stroke-linecap:square;stroke-linejoin:miter;stroke-width:2;"/>
   </g>
   <g id="patch_27">
    <path d="M 630.981818 541.44 
L 1036.8 541.44 
" style="fill:none;stroke:#000000;stroke-linecap:square;stroke-linejoin:miter;stroke-width:2;"/>
   </g>
   <g id="text_27">
    <!-- uniform01 (n=127) -->
    <g transform="translate(735.507784 132.24)scale(0.24 -0.24)">
     <use xlink:href="#ArialMT-117"/>
     <use x="55.615234" xlink:href="#ArialMT-110"/>
     <use x="111.230469" xlink:href="#ArialMT-105"/>
     <use x="133.447266" xlink:href="#ArialMT-102"/>
     <use x="161.230469" xlink:href="#ArialMT-111"/>
     <use x="216.845703" xlink:href="#ArialMT-114"/>
     <use x="250.146484" xlink:href="#ArialMT-109"/>
     <use x="333.447266" xlink:href="#ArialMT-48"/>
     <use x="389.0625" xlink:href="#ArialMT-49"/>
     <use x="444.677734" xlink:href="#ArialMT-32"/>
     <use x="472.460938" xlink:href="#ArialMT-40"/>
     <use x="505.761719" xlink:href="#ArialMT-110"/>
     <use x="561.376953" xlink:href="#ArialMT-61"/>
     <use x="619.775391" xlink:href="#ArialMT-49"/>
     <use x="675.390625" xlink:href="#ArialMT-50"/>
     <use x="731.005859" xlink:href="#ArialMT-55"/>
     <use x="786.621094" xlink:href="#ArialMT-41"/>
    </g>
   </g>
  </g>
  <g id="axes_3">
   <g id="patch_28">
    <path d="M 144 1025.28 
L 549.818182 1025.28 
L 549.818182 622.08 
L 144 622.08 
z
" style="fill:none;"/>
   </g>
   <g id="matplotlib.axis_5">
    <g id="xtick_9">
     <g id="line2d_24">
      <g>
       <use style="stroke:#000000;stroke-width:1.5;" x="162.446281" xlink:href="#meb5d98f1a1" y="1025.28"/>
      </g>
     </g>
     <g id="text_28">
      <!-- 0 -->
      <g transform="translate(156.885343 1048.095625)scale(0.2 -0.2)">
       <use xlink:href="#ArialMT-48"/>
      </g>
     </g>
    </g>
    <g id="xtick_10">
     <g id="line2d_25">
      <g>
       <use style="stroke:#000000;stroke-width:1.5;" x="254.677686" xlink:href="#meb5d98f1a1" y="1025.28"/>
      </g>
     </g>
     <g id="text_29">
      <!-- 5 -->
      <g transform="translate(249.116748 1048.095625)scale(0.2 -0.2)">
       <use xlink:href="#ArialMT-53"/>
      </g>
     </g>
    </g>
    <g id="xtick_11">
     <g id="line2d_26">
      <g>
       <use style="stroke:#000000;stroke-width:1.5;" x="346.909091" xlink:href="#meb5d98f1a1" y="1025.28"/>
      </g>
     </g>
     <g id="text_30">
      <!-- 10 -->
      <g transform="translate(335.787216 1048.095625)scale(0.2 -0.2)">
       <use xlink:href="#ArialMT-49"/>
       <use x="55.615234" xlink:href="#ArialMT-48"/>
      </g>
     </g>
    </g>
    <g id="xtick_12">
     <g id="line2d_27">
      <g>
       <use style="stroke:#000000;stroke-width:1.5;" x="439.140496" xlink:href="#meb5d98f1a1" y="1025.28"/>
      </g>
     </g>
     <g id="text_31">
      <!-- 15 -->
      <g transform="translate(428.018621 1048.095625)scale(0.2 -0.2)">
       <use xlink:href="#ArialMT-49"/>
       <use x="55.615234" xlink:href="#ArialMT-53"/>
      </g>
     </g>
    </g>
    <g id="xtick_13">
     <g id="line2d_28">
      <g>
       <use style="stroke:#000000;stroke-width:1.5;" x="531.371901" xlink:href="#meb5d98f1a1" y="1025.28"/>
      </g>
     </g>
     <g id="text_32">
      <!-- 20 -->
      <g transform="translate(520.250026 1048.095625)scale(0.2 -0.2)">
       <use xlink:href="#ArialMT-50"/>
       <use x="55.615234" xlink:href="#ArialMT-48"/>
      </g>
     </g>
    </g>
    <g id="text_33">
     <!-- Number of green neighbors for green -->
     <defs>
      <path d="M 7.625 0 
L 7.625 71.578125 
L 17.328125 71.578125 
L 54.9375 15.375 
L 54.9375 71.578125 
L 64.015625 71.578125 
L 64.015625 0 
L 54.296875 0 
L 16.703125 56.25 
L 16.703125 0 
z
" id="ArialMT-78"/>
      <path d="M 14.703125 0 
L 6.546875 0 
L 6.546875 71.578125 
L 15.328125 71.578125 
L 15.328125 46.046875 
Q 20.90625 53.03125 29.546875 53.03125 
Q 34.328125 53.03125 38.59375 51.09375 
Q 42.875 49.171875 45.625 45.671875 
Q 48.390625 42.1875 49.953125 37.25 
Q 51.515625 32.328125 51.515625 26.703125 
Q 51.515625 13.375 44.921875 6.09375 
Q 38.328125 -1.171875 29.109375 -1.171875 
Q 19.921875 -1.171875 14.703125 6.5 
z
M 14.59375 26.3125 
Q 14.59375 17 17.140625 12.84375 
Q 21.296875 6.0625 28.375 6.0625 
Q 34.125 6.0625 38.328125 11.0625 
Q 42.53125 16.0625 42.53125 25.984375 
Q 42.53125 36.140625 38.5 40.96875 
Q 34.46875 45.796875 28.765625 45.796875 
Q 23 45.796875 18.796875 40.796875 
Q 14.59375 35.796875 14.59375 26.3125 
z
" id="ArialMT-98"/>
      <path d="M 6.59375 0 
L 6.59375 71.578125 
L 15.375 71.578125 
L 15.375 45.90625 
Q 21.53125 53.03125 30.90625 53.03125 
Q 36.671875 53.03125 40.921875 50.75 
Q 45.171875 48.484375 47 44.484375 
Q 48.828125 40.484375 48.828125 32.859375 
L 48.828125 0 
L 40.046875 0 
L 40.046875 32.859375 
Q 40.046875 39.453125 37.1875 42.453125 
Q 34.328125 45.453125 29.109375 45.453125 
Q 25.203125 45.453125 21.75 43.421875 
Q 18.3125 41.40625 16.84375 37.9375 
Q 15.375 34.46875 15.375 28.375 
L 15.375 0 
z
" id="ArialMT-104"/>
     </defs>
     <g transform="translate(182.382528 1070.63)scale(0.2 -0.2)">
      <use xlink:href="#ArialMT-78"/>
      <use x="72.216797" xlink:href="#ArialMT-117"/>
      <use x="127.832031" xlink:href="#ArialMT-109"/>
      <use x="211.132812" xlink:href="#ArialMT-98"/>
      <use x="266.748047" xlink:href="#ArialMT-101"/>
      <use x="322.363281" xlink:href="#ArialMT-114"/>
      <use x="355.664062" xlink:href="#ArialMT-32"/>
      <use x="383.447266" xlink:href="#ArialMT-111"/>
      <use x="439.0625" xlink:href="#ArialMT-102"/>
      <use x="466.845703" xlink:href="#ArialMT-32"/>
      <use x="494.628906" xlink:href="#ArialMT-103"/>
      <use x="550.244141" xlink:href="#ArialMT-114"/>
      <use x="583.544922" xlink:href="#ArialMT-101"/>
      <use x="639.160156" xlink:href="#ArialMT-101"/>
      <use x="694.775391" xlink:href="#ArialMT-110"/>
      <use x="750.390625" xlink:href="#ArialMT-32"/>
      <use x="778.173828" xlink:href="#ArialMT-110"/>
      <use x="833.789062" xlink:href="#ArialMT-101"/>
      <use x="889.404297" xlink:href="#ArialMT-105"/>
      <use x="911.621094" xlink:href="#ArialMT-103"/>
      <use x="967.236328" xlink:href="#ArialMT-104"/>
      <use x="1022.851562" xlink:href="#ArialMT-98"/>
      <use x="1078.466797" xlink:href="#ArialMT-111"/>
      <use x="1134.082031" xlink:href="#ArialMT-114"/>
      <use x="1167.382812" xlink:href="#ArialMT-115"/>
      <use x="1217.382812" xlink:href="#ArialMT-32"/>
      <use x="1245.166016" xlink:href="#ArialMT-102"/>
      <use x="1272.949219" xlink:href="#ArialMT-111"/>
      <use x="1328.564453" xlink:href="#ArialMT-114"/>
      <use x="1361.865234" xlink:href="#ArialMT-32"/>
      <use x="1389.648438" xlink:href="#ArialMT-103"/>
      <use x="1445.263672" xlink:href="#ArialMT-114"/>
      <use x="1478.564453" xlink:href="#ArialMT-101"/>
      <use x="1534.179688" xlink:href="#ArialMT-101"/>
      <use x="1589.794922" xlink:href="#ArialMT-110"/>
     </g>
    </g>
   </g>
   <g id="matplotlib.axis_6">
    <g id="ytick_14">
     <g id="line2d_29">
      <g>
       <use style="stroke:#000000;stroke-width:1.5;" x="144" xlink:href="#mb91c6667dd" y="1025.28"/>
      </g>
     </g>
     <g id="text_34">
      <!-- 0 -->
      <g transform="translate(124.378125 1032.437813)scale(0.2 -0.2)">
       <use xlink:href="#ArialMT-48"/>
      </g>
     </g>
    </g>
    <g id="ytick_15">
     <g id="line2d_30">
      <g>
       <use style="stroke:#000000;stroke-width:1.5;" x="144" xlink:href="#mb91c6667dd" y="965.28"/>
      </g>
     </g>
     <g id="text_35">
      <!-- 5 -->
      <g transform="translate(124.378125 972.437813)scale(0.2 -0.2)">
       <use xlink:href="#ArialMT-53"/>
      </g>
     </g>
    </g>
    <g id="ytick_16">
     <g id="line2d_31">
      <g>
       <use style="stroke:#000000;stroke-width:1.5;" x="144" xlink:href="#mb91c6667dd" y="905.28"/>
      </g>
     </g>
     <g id="text_36">
      <!-- 10 -->
      <g transform="translate(113.25625 912.437813)scale(0.2 -0.2)">
       <use xlink:href="#ArialMT-49"/>
       <use x="55.615234" xlink:href="#ArialMT-48"/>
      </g>
     </g>
    </g>
    <g id="ytick_17">
     <g id="line2d_32">
      <g>
       <use style="stroke:#000000;stroke-width:1.5;" x="144" xlink:href="#mb91c6667dd" y="845.28"/>
      </g>
     </g>
     <g id="text_37">
      <!-- 15 -->
      <g transform="translate(113.25625 852.437812)scale(0.2 -0.2)">
       <use xlink:href="#ArialMT-49"/>
       <use x="55.615234" xlink:href="#ArialMT-53"/>
      </g>
     </g>
    </g>
    <g id="ytick_18">
     <g id="line2d_33">
      <g>
       <use style="stroke:#000000;stroke-width:1.5;" x="144" xlink:href="#mb91c6667dd" y="785.28"/>
      </g>
     </g>
     <g id="text_38">
      <!-- 20 -->
      <g transform="translate(113.25625 792.437812)scale(0.2 -0.2)">
       <use xlink:href="#ArialMT-50"/>
       <use x="55.615234" xlink:href="#ArialMT-48"/>
      </g>
     </g>
    </g>
    <g id="ytick_19">
     <g id="line2d_34">
      <g>
       <use style="stroke:#000000;stroke-width:1.5;" x="144" xlink:href="#mb91c6667dd" y="725.28"/>
      </g>
     </g>
     <g id="text_39">
      <!-- 25 -->
      <g transform="translate(113.25625 732.437812)scale(0.2 -0.2)">
       <use xlink:href="#ArialMT-50"/>
       <use x="55.615234" xlink:href="#ArialMT-53"/>
      </g>
     </g>
    </g>
    <g id="ytick_20">
     <g id="line2d_35">
      <g>
       <use style="stroke:#000000;stroke-width:1.5;" x="144" xlink:href="#mb91c6667dd" y="665.28"/>
      </g>
     </g>
     <g id="text_40">
      <!-- 30 -->
      <g transform="translate(113.25625 672.437812)scale(0.2 -0.2)">
       <use xlink:href="#ArialMT-51"/>
       <use x="55.615234" xlink:href="#ArialMT-48"/>
      </g>
     </g>
    </g>
    <g id="text_41">
     <!-- Counts -->
     <g transform="translate(105.28125 855.362813)rotate(-90)scale(0.2 -0.2)">
      <use xlink:href="#ArialMT-67"/>
      <use x="72.216797" xlink:href="#ArialMT-111"/>
      <use x="127.832031" xlink:href="#ArialMT-117"/>
      <use x="183.447266" xlink:href="#ArialMT-110"/>
      <use x="239.0625" xlink:href="#ArialMT-116"/>
      <use x="266.845703" xlink:href="#ArialMT-115"/>
     </g>
    </g>
   </g>
   <g id="patch_29">
    <path clip-path="url(#peef5adb99f)" d="M 165.213223 1025.28 
L 178.12562 1025.28 
L 178.12562 845.28 
L 165.213223 845.28 
z
" style="fill:#1f77b4;"/>
   </g>
   <g id="patch_30">
    <path clip-path="url(#peef5adb99f)" d="M 183.659504 1025.28 
L 196.571901 1025.28 
L 196.571901 761.28 
L 183.659504 761.28 
z
" style="fill:#1f77b4;"/>
   </g>
   <g id="patch_31">
    <path clip-path="url(#peef5adb99f)" d="M 202.105785 1025.28 
L 215.018182 1025.28 
L 215.018182 641.28 
L 202.105785 641.28 
z
" style="fill:#1f77b4;"/>
   </g>
   <g id="patch_32">
    <path clip-path="url(#peef5adb99f)" d="M 220.552066 1025.28 
L 233.464463 1025.28 
L 233.464463 761.28 
L 220.552066 761.28 
z
" style="fill:#1f77b4;"/>
   </g>
   <g id="patch_33">
    <path clip-path="url(#peef5adb99f)" d="M 238.998347 1025.28 
L 251.910744 1025.28 
L 251.910744 821.28 
L 238.998347 821.28 
z
" style="fill:#1f77b4;"/>
   </g>
   <g id="patch_34">
    <path clip-path="url(#peef5adb99f)" d="M 257.444628 1025.28 
L 270.357025 1025.28 
L 270.357025 905.28 
L 257.444628 905.28 
z
" style="fill:#1f77b4;"/>
   </g>
   <g id="patch_35">
    <path clip-path="url(#peef5adb99f)" d="M 275.890909 1025.28 
L 288.803306 1025.28 
L 288.803306 953.28 
L 275.890909 953.28 
z
" style="fill:#1f77b4;"/>
   </g>
   <g id="patch_36">
    <path clip-path="url(#peef5adb99f)" d="M 294.33719 1025.28 
L 307.249587 1025.28 
L 307.249587 1001.28 
L 294.33719 1001.28 
z
" style="fill:#1f77b4;"/>
   </g>
   <g id="patch_37">
    <path clip-path="url(#peef5adb99f)" d="M 312.783471 1025.28 
L 325.695868 1025.28 
L 325.695868 1013.28 
L 312.783471 1013.28 
z
" style="fill:#1f77b4;"/>
   </g>
   <g id="patch_38">
    <path clip-path="url(#peef5adb99f)" d="M 331.229752 1025.28 
L 344.142149 1025.28 
L 344.142149 1025.28 
L 331.229752 1025.28 
z
" style="fill:#1f77b4;"/>
   </g>
   <g id="patch_39">
    <path clip-path="url(#peef5adb99f)" d="M 349.676033 1025.28 
L 362.58843 1025.28 
L 362.58843 1025.28 
L 349.676033 1025.28 
z
" style="fill:#1f77b4;"/>
   </g>
   <g id="patch_40">
    <path clip-path="url(#peef5adb99f)" d="M 368.122314 1025.28 
L 381.034711 1025.28 
L 381.034711 1025.28 
L 368.122314 1025.28 
z
" style="fill:#1f77b4;"/>
   </g>
   <g id="patch_41">
    <path clip-path="url(#peef5adb99f)" d="M 386.568595 1025.28 
L 399.480992 1025.28 
L 399.480992 1025.28 
L 386.568595 1025.28 
z
" style="fill:#1f77b4;"/>
   </g>
   <g id="patch_42">
    <path clip-path="url(#peef5adb99f)" d="M 405.014876 1025.28 
L 417.927273 1025.28 
L 417.927273 1025.28 
L 405.014876 1025.28 
z
" style="fill:#1f77b4;"/>
   </g>
   <g id="patch_43">
    <path clip-path="url(#peef5adb99f)" d="M 423.461157 1025.28 
L 436.373554 1025.28 
L 436.373554 1025.28 
L 423.461157 1025.28 
z
" style="fill:#1f77b4;"/>
   </g>
   <g id="patch_44">
    <path clip-path="url(#peef5adb99f)" d="M 441.907438 1025.28 
L 454.819835 1025.28 
L 454.819835 1025.28 
L 441.907438 1025.28 
z
" style="fill:#1f77b4;"/>
   </g>
   <g id="patch_45">
    <path clip-path="url(#peef5adb99f)" d="M 460.353719 1025.28 
L 473.266116 1025.28 
L 473.266116 1025.28 
L 460.353719 1025.28 
z
" style="fill:#1f77b4;"/>
   </g>
   <g id="patch_46">
    <path clip-path="url(#peef5adb99f)" d="M 478.8 1025.28 
L 491.712397 1025.28 
L 491.712397 1025.28 
L 478.8 1025.28 
z
" style="fill:#1f77b4;"/>
   </g>
   <g id="patch_47">
    <path clip-path="url(#peef5adb99f)" d="M 497.246281 1025.28 
L 510.158678 1025.28 
L 510.158678 1025.28 
L 497.246281 1025.28 
z
" style="fill:#1f77b4;"/>
   </g>
   <g id="patch_48">
    <path clip-path="url(#peef5adb99f)" d="M 515.692562 1025.28 
L 528.604959 1025.28 
L 528.604959 1025.28 
L 515.692562 1025.28 
z
" style="fill:#1f77b4;"/>
   </g>
   <g id="line2d_36">
    <path clip-path="url(#peef5adb99f)" d="M 162.446281 842.358643 
L 166.172802 827.34569 
L 169.899324 812.849099 
L 173.625845 799.115525 
L 177.352367 786.382711 
L 181.078888 774.871985 
L 184.805409 764.781323 
L 188.531931 756.279274 
L 192.258452 749.500053 
L 195.984974 744.539979 
L 199.711495 741.455425 
L 203.438017 740.262308 
L 207.164538 740.937106 
L 210.891059 743.419275 
L 214.617581 747.614894 
L 218.344102 753.401278 
L 222.070624 760.632291 
L 225.797145 769.144057 
L 229.523666 778.760761 
L 233.250188 789.300278 
L 236.976709 800.579391 
L 240.703231 812.418409 
L 244.429752 824.645078 
L 248.156273 837.097693 
L 251.882795 849.627425 
L 255.609316 862.099893 
L 259.335838 874.396048 
L 263.062359 886.412474 
L 266.788881 898.061218 
L 270.515402 909.269253 
L 274.241923 919.977683 
L 277.968445 930.140775 
L 281.694966 939.724904 
L 285.421488 948.707447 
L 289.148009 957.075676 
L 292.87453 964.825684 
L 296.601052 971.96133 
L 300.327573 978.493237 
L 304.054095 984.437832 
L 307.780616 989.816425 
L 311.507137 994.654339 
L 315.233659 998.980079 
L 318.96018 1002.824554 
L 322.686702 1006.220352 
L 326.413223 1009.201069 
L 330.139745 1011.800702 
L 333.866266 1014.053107 
L 337.592787 1015.991524 
L 341.319309 1017.648173 
L 345.04583 1019.053915 
L 348.772352 1020.237979 
L 352.498873 1021.227754 
L 356.225394 1022.048641 
L 359.951916 1022.723951 
L 363.678437 1023.274864 
L 367.404959 1023.720429 
L 371.13148 1024.077593 
L 374.858002 1024.361282 
L 378.584523 1024.584496 
L 382.311044 1024.758435 
L 386.037566 1024.892638 
L 389.764087 1024.995136 
L 393.490609 1025.072612 
L 397.21713 1025.130556 
L 400.943651 1025.173428 
L 404.670173 1025.204802 
L 408.396694 1025.227507 
L 412.123216 1025.243754 
L 415.849737 1025.255247 
L 419.576258 1025.263284 
L 423.30278 1025.268838 
L 427.029301 1025.272631 
L 430.755823 1025.27519 
L 434.482344 1025.276897 
L 438.208866 1025.278022 
L 441.935387 1025.278753 
L 445.661908 1025.279224 
L 449.38843 1025.279522 
L 453.114951 1025.27971 
L 456.841473 1025.279826 
L 460.567994 1025.279896 
L 464.294515 1025.279939 
L 468.021037 1025.279965 
L 471.747558 1025.27998 
L 475.47408 1025.279989 
L 479.200601 1025.279994 
L 482.927122 1025.279996 
L 486.653644 1025.279998 
L 490.380165 1025.279999 
L 494.106687 1025.279999 
L 497.833208 1025.28 
L 501.55973 1025.28 
L 505.286251 1025.28 
L 509.012772 1025.28 
L 512.739294 1025.28 
L 516.465815 1025.28 
L 520.192337 1025.28 
L 523.918858 1025.28 
L 527.645379 1025.28 
L 531.371901 1025.28 
" style="fill:none;stroke:#00bfbf;stroke-linecap:square;stroke-linejoin:miter;stroke-width:5;"/>
   </g>
   <g id="patch_49">
    <path d="M 144 1025.28 
L 144 622.08 
" style="fill:none;stroke:#000000;stroke-linecap:square;stroke-linejoin:miter;stroke-width:2;"/>
   </g>
   <g id="patch_50">
    <path d="M 144 1025.28 
L 549.818182 1025.28 
" style="fill:none;stroke:#000000;stroke-linecap:square;stroke-linejoin:miter;stroke-width:2;"/>
   </g>
   <g id="text_42">
    <!-- uniform01 (n=127) -->
    <g transform="translate(248.525966 616.08)scale(0.24 -0.24)">
     <use xlink:href="#ArialMT-117"/>
     <use x="55.615234" xlink:href="#ArialMT-110"/>
     <use x="111.230469" xlink:href="#ArialMT-105"/>
     <use x="133.447266" xlink:href="#ArialMT-102"/>
     <use x="161.230469" xlink:href="#ArialMT-111"/>
     <use x="216.845703" xlink:href="#ArialMT-114"/>
     <use x="250.146484" xlink:href="#ArialMT-109"/>
     <use x="333.447266" xlink:href="#ArialMT-48"/>
     <use x="389.0625" xlink:href="#ArialMT-49"/>
     <use x="444.677734" xlink:href="#ArialMT-32"/>
     <use x="472.460938" xlink:href="#ArialMT-40"/>
     <use x="505.761719" xlink:href="#ArialMT-110"/>
     <use x="561.376953" xlink:href="#ArialMT-61"/>
     <use x="619.775391" xlink:href="#ArialMT-49"/>
     <use x="675.390625" xlink:href="#ArialMT-50"/>
     <use x="731.005859" xlink:href="#ArialMT-55"/>
     <use x="786.621094" xlink:href="#ArialMT-41"/>
    </g>
   </g>
  </g>
  <g id="axes_4">
   <g id="patch_51">
    <path d="M 630.981818 1025.28 
L 1036.8 1025.28 
L 1036.8 622.08 
L 630.981818 622.08 
z
" style="fill:none;"/>
   </g>
   <g id="matplotlib.axis_7">
    <g id="xtick_14">
     <g id="line2d_37">
      <g>
       <use style="stroke:#000000;stroke-width:1.5;" x="649.428099" xlink:href="#meb5d98f1a1" y="1025.28"/>
      </g>
     </g>
     <g id="text_43">
      <!-- 0 -->
      <g transform="translate(643.867162 1048.095625)scale(0.2 -0.2)">
       <use xlink:href="#ArialMT-48"/>
      </g>
     </g>
    </g>
    <g id="xtick_15">
     <g id="line2d_38">
      <g>
       <use style="stroke:#000000;stroke-width:1.5;" x="741.659504" xlink:href="#meb5d98f1a1" y="1025.28"/>
      </g>
     </g>
     <g id="text_44">
      <!-- 5 -->
      <g transform="translate(736.098567 1048.095625)scale(0.2 -0.2)">
       <use xlink:href="#ArialMT-53"/>
      </g>
     </g>
    </g>
    <g id="xtick_16">
     <g id="line2d_39">
      <g>
       <use style="stroke:#000000;stroke-width:1.5;" x="833.890909" xlink:href="#meb5d98f1a1" y="1025.28"/>
      </g>
     </g>
     <g id="text_45">
      <!-- 10 -->
      <g transform="translate(822.769034 1048.095625)scale(0.2 -0.2)">
       <use xlink:href="#ArialMT-49"/>
       <use x="55.615234" xlink:href="#ArialMT-48"/>
      </g>
     </g>
    </g>
    <g id="xtick_17">
     <g id="line2d_40">
      <g>
       <use style="stroke:#000000;stroke-width:1.5;" x="926.122314" xlink:href="#meb5d98f1a1" y="1025.28"/>
      </g>
     </g>
     <g id="text_46">
      <!-- 15 -->
      <g transform="translate(915.000439 1048.095625)scale(0.2 -0.2)">
       <use xlink:href="#ArialMT-49"/>
       <use x="55.615234" xlink:href="#ArialMT-53"/>
      </g>
     </g>
    </g>
    <g id="xtick_18">
     <g id="line2d_41">
      <g>
       <use style="stroke:#000000;stroke-width:1.5;" x="1018.353719" xlink:href="#meb5d98f1a1" y="1025.28"/>
      </g>
     </g>
     <g id="text_47">
      <!-- 20 -->
      <g transform="translate(1007.231844 1048.095625)scale(0.2 -0.2)">
       <use xlink:href="#ArialMT-50"/>
       <use x="55.615234" xlink:href="#ArialMT-48"/>
      </g>
     </g>
    </g>
    <g id="text_48">
     <!-- Number of red neighbors for green -->
     <g transform="translate(680.486222 1070.63)scale(0.2 -0.2)">
      <use xlink:href="#ArialMT-78"/>
      <use x="72.216797" xlink:href="#ArialMT-117"/>
      <use x="127.832031" xlink:href="#ArialMT-109"/>
      <use x="211.132812" xlink:href="#ArialMT-98"/>
      <use x="266.748047" xlink:href="#ArialMT-101"/>
      <use x="322.363281" xlink:href="#ArialMT-114"/>
      <use x="355.664062" xlink:href="#ArialMT-32"/>
      <use x="383.447266" xlink:href="#ArialMT-111"/>
      <use x="439.0625" xlink:href="#ArialMT-102"/>
      <use x="466.845703" xlink:href="#ArialMT-32"/>
      <use x="494.628906" xlink:href="#ArialMT-114"/>
      <use x="527.929688" xlink:href="#ArialMT-101"/>
      <use x="583.544922" xlink:href="#ArialMT-100"/>
      <use x="639.160156" xlink:href="#ArialMT-32"/>
      <use x="666.943359" xlink:href="#ArialMT-110"/>
      <use x="722.558594" xlink:href="#ArialMT-101"/>
      <use x="778.173828" xlink:href="#ArialMT-105"/>
      <use x="800.390625" xlink:href="#ArialMT-103"/>
      <use x="856.005859" xlink:href="#ArialMT-104"/>
      <use x="911.621094" xlink:href="#ArialMT-98"/>
      <use x="967.236328" xlink:href="#ArialMT-111"/>
      <use x="1022.851562" xlink:href="#ArialMT-114"/>
      <use x="1056.152344" xlink:href="#ArialMT-115"/>
      <use x="1106.152344" xlink:href="#ArialMT-32"/>
      <use x="1133.935547" xlink:href="#ArialMT-102"/>
      <use x="1161.71875" xlink:href="#ArialMT-111"/>
      <use x="1217.333984" xlink:href="#ArialMT-114"/>
      <use x="1250.634766" xlink:href="#ArialMT-32"/>
      <use x="1278.417969" xlink:href="#ArialMT-103"/>
      <use x="1334.033203" xlink:href="#ArialMT-114"/>
      <use x="1367.333984" xlink:href="#ArialMT-101"/>
      <use x="1422.949219" xlink:href="#ArialMT-101"/>
      <use x="1478.564453" xlink:href="#ArialMT-110"/>
     </g>
    </g>
   </g>
   <g id="matplotlib.axis_8">
    <g id="ytick_21">
     <g id="line2d_42">
      <g>
       <use style="stroke:#000000;stroke-width:1.5;" x="630.981818" xlink:href="#mb91c6667dd" y="1025.28"/>
      </g>
     </g>
     <g id="text_49">
      <!-- 0.0 -->
      <defs>
       <path d="M 9.078125 0 
L 9.078125 10.015625 
L 19.09375 10.015625 
L 19.09375 0 
z
" id="ArialMT-46"/>
      </defs>
      <g transform="translate(594.681818 1032.437813)scale(0.2 -0.2)">
       <use xlink:href="#ArialMT-48"/>
       <use x="55.615234" xlink:href="#ArialMT-46"/>
       <use x="83.398438" xlink:href="#ArialMT-48"/>
      </g>
     </g>
    </g>
    <g id="ytick_22">
     <g id="line2d_43">
      <g>
       <use style="stroke:#000000;stroke-width:1.5;" x="630.981818" xlink:href="#mb91c6667dd" y="974.753684"/>
      </g>
     </g>
     <g id="text_50">
      <!-- 2.5 -->
      <g transform="translate(594.681818 981.911497)scale(0.2 -0.2)">
       <use xlink:href="#ArialMT-50"/>
       <use x="55.615234" xlink:href="#ArialMT-46"/>
       <use x="83.398438" xlink:href="#ArialMT-53"/>
      </g>
     </g>
    </g>
    <g id="ytick_23">
     <g id="line2d_44">
      <g>
       <use style="stroke:#000000;stroke-width:1.5;" x="630.981818" xlink:href="#mb91c6667dd" y="924.227368"/>
      </g>
     </g>
     <g id="text_51">
      <!-- 5.0 -->
      <g transform="translate(594.681818 931.385181)scale(0.2 -0.2)">
       <use xlink:href="#ArialMT-53"/>
       <use x="55.615234" xlink:href="#ArialMT-46"/>
       <use x="83.398438" xlink:href="#ArialMT-48"/>
      </g>
     </g>
    </g>
    <g id="ytick_24">
     <g id="line2d_45">
      <g>
       <use style="stroke:#000000;stroke-width:1.5;" x="630.981818" xlink:href="#mb91c6667dd" y="873.701053"/>
      </g>
     </g>
     <g id="text_52">
      <!-- 7.5 -->
      <g transform="translate(594.681818 880.858865)scale(0.2 -0.2)">
       <use xlink:href="#ArialMT-55"/>
       <use x="55.615234" xlink:href="#ArialMT-46"/>
       <use x="83.398438" xlink:href="#ArialMT-53"/>
      </g>
     </g>
    </g>
    <g id="ytick_25">
     <g id="line2d_46">
      <g>
       <use style="stroke:#000000;stroke-width:1.5;" x="630.981818" xlink:href="#mb91c6667dd" y="823.174737"/>
      </g>
     </g>
     <g id="text_53">
      <!-- 10.0 -->
      <g transform="translate(583.559943 830.332549)scale(0.2 -0.2)">
       <use xlink:href="#ArialMT-49"/>
       <use x="55.615234" xlink:href="#ArialMT-48"/>
       <use x="111.230469" xlink:href="#ArialMT-46"/>
       <use x="139.013672" xlink:href="#ArialMT-48"/>
      </g>
     </g>
    </g>
    <g id="ytick_26">
     <g id="line2d_47">
      <g>
       <use style="stroke:#000000;stroke-width:1.5;" x="630.981818" xlink:href="#mb91c6667dd" y="772.648421"/>
      </g>
     </g>
     <g id="text_54">
      <!-- 12.5 -->
      <g transform="translate(583.559943 779.806234)scale(0.2 -0.2)">
       <use xlink:href="#ArialMT-49"/>
       <use x="55.615234" xlink:href="#ArialMT-50"/>
       <use x="111.230469" xlink:href="#ArialMT-46"/>
       <use x="139.013672" xlink:href="#ArialMT-53"/>
      </g>
     </g>
    </g>
    <g id="ytick_27">
     <g id="line2d_48">
      <g>
       <use style="stroke:#000000;stroke-width:1.5;" x="630.981818" xlink:href="#mb91c6667dd" y="722.122105"/>
      </g>
     </g>
     <g id="text_55">
      <!-- 15.0 -->
      <g transform="translate(583.559943 729.279918)scale(0.2 -0.2)">
       <use xlink:href="#ArialMT-49"/>
       <use x="55.615234" xlink:href="#ArialMT-53"/>
       <use x="111.230469" xlink:href="#ArialMT-46"/>
       <use x="139.013672" xlink:href="#ArialMT-48"/>
      </g>
     </g>
    </g>
    <g id="ytick_28">
     <g id="line2d_49">
      <g>
       <use style="stroke:#000000;stroke-width:1.5;" x="630.981818" xlink:href="#mb91c6667dd" y="671.595789"/>
      </g>
     </g>
     <g id="text_56">
      <!-- 17.5 -->
      <g transform="translate(583.559943 678.753602)scale(0.2 -0.2)">
       <use xlink:href="#ArialMT-49"/>
       <use x="55.615234" xlink:href="#ArialMT-55"/>
       <use x="111.230469" xlink:href="#ArialMT-46"/>
       <use x="139.013672" xlink:href="#ArialMT-53"/>
      </g>
     </g>
    </g>
    <g id="text_57">
     <!-- Counts -->
     <g transform="translate(575.584943 855.362813)rotate(-90)scale(0.2 -0.2)">
      <use xlink:href="#ArialMT-67"/>
      <use x="72.216797" xlink:href="#ArialMT-111"/>
      <use x="127.832031" xlink:href="#ArialMT-117"/>
      <use x="183.447266" xlink:href="#ArialMT-110"/>
      <use x="239.0625" xlink:href="#ArialMT-116"/>
      <use x="266.845703" xlink:href="#ArialMT-115"/>
     </g>
    </g>
   </g>
   <g id="patch_52">
    <path clip-path="url(#p6724694993)" d="M 652.195041 1025.28 
L 665.107438 1025.28 
L 665.107438 1025.28 
L 652.195041 1025.28 
z
" style="fill:#1f77b4;"/>
   </g>
   <g id="patch_53">
    <path clip-path="url(#p6724694993)" d="M 670.641322 1025.28 
L 683.553719 1025.28 
L 683.553719 1025.28 
L 670.641322 1025.28 
z
" style="fill:#1f77b4;"/>
   </g>
   <g id="patch_54">
    <path clip-path="url(#p6724694993)" d="M 689.087603 1025.28 
L 702 1025.28 
L 702 984.858947 
L 689.087603 984.858947 
z
" style="fill:#1f77b4;"/>
   </g>
   <g id="patch_55">
    <path clip-path="url(#p6724694993)" d="M 707.533884 1025.28 
L 720.446281 1025.28 
L 720.446281 924.227368 
L 707.533884 924.227368 
z
" style="fill:#1f77b4;"/>
   </g>
   <g id="patch_56">
    <path clip-path="url(#p6724694993)" d="M 725.980165 1025.28 
L 738.892562 1025.28 
L 738.892562 762.543158 
L 725.980165 762.543158 
z
" style="fill:#1f77b4;"/>
   </g>
   <g id="patch_57">
    <path clip-path="url(#p6724694993)" d="M 744.426446 1025.28 
L 757.338843 1025.28 
L 757.338843 641.28 
L 744.426446 641.28 
z
" style="fill:#1f77b4;"/>
   </g>
   <g id="patch_58">
    <path clip-path="url(#p6724694993)" d="M 762.872727 1025.28 
L 775.785124 1025.28 
L 775.785124 701.911579 
L 762.872727 701.911579 
z
" style="fill:#1f77b4;"/>
   </g>
   <g id="patch_59">
    <path clip-path="url(#p6724694993)" d="M 781.319008 1025.28 
L 794.231405 1025.28 
L 794.231405 701.911579 
L 781.319008 701.911579 
z
" style="fill:#1f77b4;"/>
   </g>
   <g id="patch_60">
    <path clip-path="url(#p6724694993)" d="M 799.765289 1025.28 
L 812.677686 1025.28 
L 812.677686 742.332632 
L 799.765289 742.332632 
z
" style="fill:#1f77b4;"/>
   </g>
   <g id="patch_61">
    <path clip-path="url(#p6724694993)" d="M 818.21157 1025.28 
L 831.123967 1025.28 
L 831.123967 883.806316 
L 818.21157 883.806316 
z
" style="fill:#1f77b4;"/>
   </g>
   <g id="patch_62">
    <path clip-path="url(#p6724694993)" d="M 836.657851 1025.28 
L 849.570248 1025.28 
L 849.570248 823.174737 
L 836.657851 823.174737 
z
" style="fill:#1f77b4;"/>
   </g>
   <g id="patch_63">
    <path clip-path="url(#p6724694993)" d="M 855.104132 1025.28 
L 868.016529 1025.28 
L 868.016529 802.964211 
L 855.104132 802.964211 
z
" style="fill:#1f77b4;"/>
   </g>
   <g id="patch_64">
    <path clip-path="url(#p6724694993)" d="M 873.550413 1025.28 
L 886.46281 1025.28 
L 886.46281 924.227368 
L 873.550413 924.227368 
z
" style="fill:#1f77b4;"/>
   </g>
   <g id="patch_65">
    <path clip-path="url(#p6724694993)" d="M 891.996694 1025.28 
L 904.909091 1025.28 
L 904.909091 944.437895 
L 891.996694 944.437895 
z
" style="fill:#1f77b4;"/>
   </g>
   <g id="patch_66">
    <path clip-path="url(#p6724694993)" d="M 910.442975 1025.28 
L 923.355372 1025.28 
L 923.355372 964.648421 
L 910.442975 964.648421 
z
" style="fill:#1f77b4;"/>
   </g>
   <g id="patch_67">
    <path clip-path="url(#p6724694993)" d="M 928.889256 1025.28 
L 941.801653 1025.28 
L 941.801653 984.858947 
L 928.889256 984.858947 
z
" style="fill:#1f77b4;"/>
   </g>
   <g id="patch_68">
    <path clip-path="url(#p6724694993)" d="M 947.335537 1025.28 
L 960.247934 1025.28 
L 960.247934 1025.28 
L 947.335537 1025.28 
z
" style="fill:#1f77b4;"/>
   </g>
   <g id="patch_69">
    <path clip-path="url(#p6724694993)" d="M 965.781818 1025.28 
L 978.694215 1025.28 
L 978.694215 1025.28 
L 965.781818 1025.28 
z
" style="fill:#1f77b4;"/>
   </g>
   <g id="patch_70">
    <path clip-path="url(#p6724694993)" d="M 984.228099 1025.28 
L 997.140496 1025.28 
L 997.140496 1025.28 
L 984.228099 1025.28 
z
" style="fill:#1f77b4;"/>
   </g>
   <g id="patch_71">
    <path clip-path="url(#p6724694993)" d="M 1002.67438 1025.28 
L 1015.586777 1025.28 
L 1015.586777 1025.28 
L 1002.67438 1025.28 
z
" style="fill:#1f77b4;"/>
   </g>
   <g id="line2d_50">
    <path clip-path="url(#p6724694993)" d="M 649.428099 973.128839 
L 653.154621 967.835753 
L 656.881142 962.219343 
L 660.607663 956.286546 
L 664.334185 950.047908 
L 668.060706 943.517729 
L 671.787228 936.714129 
L 675.513749 929.659075 
L 679.24027 922.37833 
L 682.966792 914.901339 
L 686.693313 907.261047 
L 690.419835 899.493649 
L 694.146356 891.638268 
L 697.872878 883.736577 
L 701.599399 875.83236 
L 705.32592 867.971018 
L 709.052442 860.199044 
L 712.778963 852.563454 
L 716.505485 845.111205 
L 720.232006 837.888597 
L 723.958527 830.940684 
L 727.685049 824.310699 
L 731.41157 818.0395 
L 735.138092 812.165061 
L 738.864613 806.722012 
L 742.591134 801.741238 
L 746.317656 797.249539 
L 750.044177 793.269374 
L 753.770699 789.818669 
L 757.49722 786.910717 
L 761.223742 784.554151 
L 764.950263 782.752997 
L 768.676784 781.506798 
L 772.403306 780.810814 
L 776.129827 780.656276 
L 779.856349 781.030695 
L 783.58287 781.918221 
L 787.309391 783.300023 
L 791.035913 785.154704 
L 794.762434 787.458721 
L 798.488956 790.186807 
L 802.215477 793.312388 
L 805.941998 796.807984 
L 809.66852 800.645576 
L 813.395041 804.796956 
L 817.121563 809.234029 
L 820.848084 813.929082 
L 824.574606 818.855009 
L 828.301127 823.985489 
L 832.027648 829.295132 
L 835.75417 834.759577 
L 839.480691 840.355553 
L 843.207213 846.060913 
L 846.933734 851.854635 
L 850.660255 857.7168 
L 854.386777 863.628549 
L 858.113298 869.572035 
L 861.83982 875.530359 
L 865.566341 881.4875 
L 869.292863 887.428257 
L 873.019384 893.338185 
L 876.745905 899.20354 
L 880.472427 905.011233 
L 884.198948 910.748798 
L 887.92547 916.404366 
L 891.651991 921.966652 
L 895.378512 927.424957 
L 899.105034 932.76917 
L 902.831555 937.989792 
L 906.558077 943.077952 
L 910.284598 948.025445 
L 914.011119 952.824757 
L 917.737641 957.469101 
L 921.464162 961.952451 
L 925.190684 966.269571 
L 928.917205 970.416045 
L 932.643727 974.388295 
L 936.370248 978.183598 
L 940.096769 981.800092 
L 943.823291 985.236781 
L 947.549812 988.49352 
L 951.276334 991.571004 
L 955.002855 994.470738 
L 958.729376 997.195008 
L 962.455898 999.746838 
L 966.182419 1002.129942 
L 969.908941 1004.348672 
L 973.635462 1006.407959 
L 977.361983 1008.313248 
L 981.088505 1010.070432 
L 984.815026 1011.685786 
L 988.541548 1013.165894 
L 992.268069 1014.51758 
L 995.994591 1015.747842 
L 999.721112 1016.86378 
L 1003.447633 1017.872537 
L 1007.174155 1018.781235 
L 1010.900676 1019.59692 
L 1014.627198 1020.326509 
L 1018.353719 1020.976746 
" style="fill:none;stroke:#00bfbf;stroke-linecap:square;stroke-linejoin:miter;stroke-width:5;"/>
   </g>
   <g id="patch_72">
    <path d="M 630.981818 1025.28 
L 630.981818 622.08 
" style="fill:none;stroke:#000000;stroke-linecap:square;stroke-linejoin:miter;stroke-width:2;"/>
   </g>
   <g id="patch_73">
    <path d="M 630.981818 1025.28 
L 1036.8 1025.28 
" style="fill:none;stroke:#000000;stroke-linecap:square;stroke-linejoin:miter;stroke-width:2;"/>
   </g>
   <g id="text_58">
    <!-- uniform01 (n=127) -->
    <g transform="translate(735.507784 616.08)scale(0.24 -0.24)">
     <use xlink:href="#ArialMT-117"/>
     <use x="55.615234" xlink:href="#ArialMT-110"/>
     <use x="111.230469" xlink:href="#ArialMT-105"/>
     <use x="133.447266" xlink:href="#ArialMT-102"/>
     <use x="161.230469" xlink:href="#ArialMT-111"/>
     <use x="216.845703" xlink:href="#ArialMT-114"/>
     <use x="250.146484" xlink:href="#ArialMT-109"/>
     <use x="333.447266" xlink:href="#ArialMT-48"/>
     <use x="389.0625" xlink:href="#ArialMT-49"/>
     <use x="444.677734" xlink:href="#ArialMT-32"/>
     <use x="472.460938" xlink:href="#ArialMT-40"/>
     <use x="505.761719" xlink:href="#ArialMT-110"/>
     <use x="561.376953" xlink:href="#ArialMT-61"/>
     <use x="619.775391" xlink:href="#ArialMT-49"/>
     <use x="675.390625" xlink:href="#ArialMT-50"/>
     <use x="731.005859" xlink:href="#ArialMT-55"/>
     <use x="786.621094" xlink:href="#ArialMT-41"/>
    </g>
   </g>
  </g>
 </g>
 <defs>
  <clipPath id="p6b11753db7">
   <rect height="403.2" width="405.818182" x="144" y="138.24"/>
  </clipPath>
  <clipPath id="p3ed7a3e8a4">
   <rect height="403.2" width="405.818182" x="630.981818" y="138.24"/>
  </clipPath>
  <clipPath id="peef5adb99f">
   <rect height="403.2" width="405.818182" x="144" y="622.08"/>
  </clipPath>
  <clipPath id="p6724694993">
   <rect height="403.2" width="405.818182" x="630.981818" y="622.08"/>
  </clipPath>
 </defs>
</svg>
