<?xml version="1.0" encoding="utf-8" standalone="no"?>
<!DOCTYPE svg PUBLIC "-//W3C//DTD SVG 1.1//EN"
  "http://www.w3.org/Graphics/SVG/1.1/DTD/svg11.dtd">
<!-- Created with matplotlib (https://matplotlib.org/) -->
<svg height="1152pt" version="1.1" viewBox="0 0 1152 1152" width="1152pt" xmlns="http://www.w3.org/2000/svg" xmlns:xlink="http://www.w3.org/1999/xlink">
 <defs>
  <style type="text/css">
*{stroke-linecap:butt;stroke-linejoin:round;}
  </style>
 </defs>
 <g id="figure_1">
  <g id="patch_1">
   <path d="M 0 1152 
L 1152 1152 
L 1152 0 
L 0 0 
z
" style="fill:none;"/>
  </g>
  <g id="axes_1">
   <g id="patch_2">
    <path d="M 144 541.44 
L 549.818182 541.44 
L 549.818182 138.24 
L 144 138.24 
z
" style="fill:none;"/>
   </g>
   <g id="matplotlib.axis_1">
    <g id="xtick_1">
     <g id="line2d_1">
      <defs>
       <path d="M 0 0 
L 0 5 
" id="m27377530bd" style="stroke:#000000;stroke-width:1.5;"/>
      </defs>
      <g>
       <use style="stroke:#000000;stroke-width:1.5;" x="162.446281" xlink:href="#m27377530bd" y="541.44"/>
      </g>
     </g>
     <g id="text_1">
      <!-- 0 -->
      <defs>
       <path d="M 4.15625 35.296875 
Q 4.15625 48 6.765625 55.734375 
Q 9.375 63.484375 14.515625 67.671875 
Q 19.671875 71.875 27.484375 71.875 
Q 33.25 71.875 37.59375 69.546875 
Q 41.9375 67.234375 44.765625 62.859375 
Q 47.609375 58.5 49.21875 52.21875 
Q 50.828125 45.953125 50.828125 35.296875 
Q 50.828125 22.703125 48.234375 14.96875 
Q 45.65625 7.234375 40.5 3 
Q 35.359375 -1.21875 27.484375 -1.21875 
Q 17.140625 -1.21875 11.234375 6.203125 
Q 4.15625 15.140625 4.15625 35.296875 
z
M 13.1875 35.296875 
Q 13.1875 17.671875 17.3125 11.828125 
Q 21.4375 6 27.484375 6 
Q 33.546875 6 37.671875 11.859375 
Q 41.796875 17.71875 41.796875 35.296875 
Q 41.796875 52.984375 37.671875 58.78125 
Q 33.546875 64.59375 27.390625 64.59375 
Q 21.34375 64.59375 17.71875 59.46875 
Q 13.1875 52.9375 13.1875 35.296875 
z
" id="ArialMT-48"/>
      </defs>
      <g transform="translate(156.885343 564.255625)scale(0.2 -0.2)">
       <use xlink:href="#ArialMT-48"/>
      </g>
     </g>
    </g>
    <g id="xtick_2">
     <g id="line2d_2">
      <g>
       <use style="stroke:#000000;stroke-width:1.5;" x="285.421488" xlink:href="#m27377530bd" y="541.44"/>
      </g>
     </g>
     <g id="text_2">
      <!-- 10 -->
      <defs>
       <path d="M 37.25 0 
L 28.46875 0 
L 28.46875 56 
Q 25.296875 52.984375 20.140625 49.953125 
Q 14.984375 46.921875 10.890625 45.40625 
L 10.890625 53.90625 
Q 18.265625 57.375 23.78125 62.296875 
Q 29.296875 67.234375 31.59375 71.875 
L 37.25 71.875 
z
" id="ArialMT-49"/>
      </defs>
      <g transform="translate(274.299613 564.255625)scale(0.2 -0.2)">
       <use xlink:href="#ArialMT-49"/>
       <use x="55.615234" xlink:href="#ArialMT-48"/>
      </g>
     </g>
    </g>
    <g id="xtick_3">
     <g id="line2d_3">
      <g>
       <use style="stroke:#000000;stroke-width:1.5;" x="408.396694" xlink:href="#m27377530bd" y="541.44"/>
      </g>
     </g>
     <g id="text_3">
      <!-- 20 -->
      <defs>
       <path d="M 50.34375 8.453125 
L 50.34375 0 
L 3.03125 0 
Q 2.9375 3.171875 4.046875 6.109375 
Q 5.859375 10.9375 9.828125 15.625 
Q 13.8125 20.3125 21.34375 26.46875 
Q 33.015625 36.03125 37.109375 41.625 
Q 41.21875 47.21875 41.21875 52.203125 
Q 41.21875 57.421875 37.46875 61 
Q 33.734375 64.59375 27.734375 64.59375 
Q 21.390625 64.59375 17.578125 60.78125 
Q 13.765625 56.984375 13.71875 50.25 
L 4.6875 51.171875 
Q 5.609375 61.28125 11.65625 66.578125 
Q 17.71875 71.875 27.9375 71.875 
Q 38.234375 71.875 44.234375 66.15625 
Q 50.25 60.453125 50.25 52 
Q 50.25 47.703125 48.484375 43.546875 
Q 46.734375 39.40625 42.65625 34.8125 
Q 38.578125 30.21875 29.109375 22.21875 
Q 21.1875 15.578125 18.9375 13.203125 
Q 16.703125 10.84375 15.234375 8.453125 
z
" id="ArialMT-50"/>
      </defs>
      <g transform="translate(397.274819 564.255625)scale(0.2 -0.2)">
       <use xlink:href="#ArialMT-50"/>
       <use x="55.615234" xlink:href="#ArialMT-48"/>
      </g>
     </g>
    </g>
    <g id="xtick_4">
     <g id="line2d_4">
      <g>
       <use style="stroke:#000000;stroke-width:1.5;" x="531.371901" xlink:href="#m27377530bd" y="541.44"/>
      </g>
     </g>
     <g id="text_4">
      <!-- 30 -->
      <defs>
       <path d="M 4.203125 18.890625 
L 12.984375 20.0625 
Q 14.5 12.59375 18.140625 9.296875 
Q 21.78125 6 27 6 
Q 33.203125 6 37.46875 10.296875 
Q 41.75 14.59375 41.75 20.953125 
Q 41.75 27 37.796875 30.921875 
Q 33.84375 34.859375 27.734375 34.859375 
Q 25.25 34.859375 21.53125 33.890625 
L 22.515625 41.609375 
Q 23.390625 41.5 23.921875 41.5 
Q 29.546875 41.5 34.03125 44.421875 
Q 38.53125 47.359375 38.53125 53.46875 
Q 38.53125 58.296875 35.25 61.46875 
Q 31.984375 64.65625 26.8125 64.65625 
Q 21.6875 64.65625 18.265625 61.421875 
Q 14.84375 58.203125 13.875 51.765625 
L 5.078125 53.328125 
Q 6.6875 62.15625 12.390625 67.015625 
Q 18.109375 71.875 26.609375 71.875 
Q 32.46875 71.875 37.390625 69.359375 
Q 42.328125 66.84375 44.9375 62.5 
Q 47.5625 58.15625 47.5625 53.265625 
Q 47.5625 48.640625 45.0625 44.828125 
Q 42.578125 41.015625 37.703125 38.765625 
Q 44.046875 37.3125 47.5625 32.6875 
Q 51.078125 28.078125 51.078125 21.140625 
Q 51.078125 11.765625 44.234375 5.25 
Q 37.40625 -1.265625 26.953125 -1.265625 
Q 17.53125 -1.265625 11.296875 4.34375 
Q 5.078125 9.96875 4.203125 18.890625 
z
" id="ArialMT-51"/>
      </defs>
      <g transform="translate(520.250026 564.255625)scale(0.2 -0.2)">
       <use xlink:href="#ArialMT-51"/>
       <use x="55.615234" xlink:href="#ArialMT-48"/>
      </g>
     </g>
    </g>
    <g id="text_5">
     <!-- Distance green to green cell -->
     <defs>
      <path d="M 7.71875 0 
L 7.71875 71.578125 
L 32.375 71.578125 
Q 40.71875 71.578125 45.125 70.5625 
Q 51.265625 69.140625 55.609375 65.4375 
Q 61.28125 60.640625 64.078125 53.1875 
Q 66.890625 45.75 66.890625 36.1875 
Q 66.890625 28.03125 64.984375 21.734375 
Q 63.09375 15.4375 60.109375 11.296875 
Q 57.125 7.171875 53.578125 4.796875 
Q 50.046875 2.4375 45.046875 1.21875 
Q 40.046875 0 33.546875 0 
z
M 17.1875 8.453125 
L 32.46875 8.453125 
Q 39.546875 8.453125 43.578125 9.765625 
Q 47.609375 11.078125 50 13.484375 
Q 53.375 16.84375 55.25 22.53125 
Q 57.125 28.21875 57.125 36.328125 
Q 57.125 47.5625 53.4375 53.59375 
Q 49.75 59.625 44.484375 61.671875 
Q 40.671875 63.140625 32.234375 63.140625 
L 17.1875 63.140625 
z
" id="ArialMT-68"/>
      <path d="M 6.640625 61.46875 
L 6.640625 71.578125 
L 15.4375 71.578125 
L 15.4375 61.46875 
z
M 6.640625 0 
L 6.640625 51.859375 
L 15.4375 51.859375 
L 15.4375 0 
z
" id="ArialMT-105"/>
      <path d="M 3.078125 15.484375 
L 11.765625 16.84375 
Q 12.5 11.625 15.84375 8.84375 
Q 19.1875 6.0625 25.203125 6.0625 
Q 31.25 6.0625 34.171875 8.515625 
Q 37.109375 10.984375 37.109375 14.3125 
Q 37.109375 17.28125 34.515625 19 
Q 32.71875 20.171875 25.53125 21.96875 
Q 15.875 24.421875 12.140625 26.203125 
Q 8.40625 27.984375 6.46875 31.125 
Q 4.546875 34.28125 4.546875 38.09375 
Q 4.546875 41.546875 6.125 44.5 
Q 7.71875 47.46875 10.453125 49.421875 
Q 12.5 50.921875 16.03125 51.96875 
Q 19.578125 53.03125 23.640625 53.03125 
Q 29.734375 53.03125 34.34375 51.265625 
Q 38.96875 49.515625 41.15625 46.5 
Q 43.359375 43.5 44.1875 38.484375 
L 35.59375 37.3125 
Q 35.015625 41.3125 32.203125 43.546875 
Q 29.390625 45.796875 24.265625 45.796875 
Q 18.21875 45.796875 15.625 43.796875 
Q 13.03125 41.796875 13.03125 39.109375 
Q 13.03125 37.40625 14.109375 36.03125 
Q 15.1875 34.625 17.484375 33.6875 
Q 18.796875 33.203125 25.25 31.453125 
Q 34.578125 28.953125 38.25 27.359375 
Q 41.9375 25.78125 44.03125 22.75 
Q 46.140625 19.734375 46.140625 15.234375 
Q 46.140625 10.84375 43.578125 6.953125 
Q 41.015625 3.078125 36.171875 0.953125 
Q 31.34375 -1.171875 25.25 -1.171875 
Q 15.140625 -1.171875 9.84375 3.03125 
Q 4.546875 7.234375 3.078125 15.484375 
z
" id="ArialMT-115"/>
      <path d="M 25.78125 7.859375 
L 27.046875 0.09375 
Q 23.34375 -0.6875 20.40625 -0.6875 
Q 15.625 -0.6875 12.984375 0.828125 
Q 10.359375 2.34375 9.28125 4.8125 
Q 8.203125 7.28125 8.203125 15.1875 
L 8.203125 45.015625 
L 1.765625 45.015625 
L 1.765625 51.859375 
L 8.203125 51.859375 
L 8.203125 64.703125 
L 16.9375 69.96875 
L 16.9375 51.859375 
L 25.78125 51.859375 
L 25.78125 45.015625 
L 16.9375 45.015625 
L 16.9375 14.703125 
Q 16.9375 10.9375 17.40625 9.859375 
Q 17.875 8.796875 18.921875 8.15625 
Q 19.96875 7.515625 21.921875 7.515625 
Q 23.390625 7.515625 25.78125 7.859375 
z
" id="ArialMT-116"/>
      <path d="M 40.4375 6.390625 
Q 35.546875 2.25 31.03125 0.53125 
Q 26.515625 -1.171875 21.34375 -1.171875 
Q 12.796875 -1.171875 8.203125 3 
Q 3.609375 7.171875 3.609375 13.671875 
Q 3.609375 17.484375 5.34375 20.625 
Q 7.078125 23.78125 9.890625 25.6875 
Q 12.703125 27.59375 16.21875 28.5625 
Q 18.796875 29.25 24.03125 29.890625 
Q 34.671875 31.15625 39.703125 32.90625 
Q 39.75 34.71875 39.75 35.203125 
Q 39.75 40.578125 37.25 42.78125 
Q 33.890625 45.75 27.25 45.75 
Q 21.046875 45.75 18.09375 43.578125 
Q 15.140625 41.40625 13.71875 35.890625 
L 5.125 37.0625 
Q 6.296875 42.578125 8.984375 45.96875 
Q 11.671875 49.359375 16.75 51.1875 
Q 21.828125 53.03125 28.515625 53.03125 
Q 35.15625 53.03125 39.296875 51.46875 
Q 43.453125 49.90625 45.40625 47.53125 
Q 47.359375 45.171875 48.140625 41.546875 
Q 48.578125 39.3125 48.578125 33.453125 
L 48.578125 21.734375 
Q 48.578125 9.46875 49.140625 6.21875 
Q 49.703125 2.984375 51.375 0 
L 42.1875 0 
Q 40.828125 2.734375 40.4375 6.390625 
z
M 39.703125 26.03125 
Q 34.90625 24.078125 25.34375 22.703125 
Q 19.921875 21.921875 17.671875 20.9375 
Q 15.4375 19.96875 14.203125 18.09375 
Q 12.984375 16.21875 12.984375 13.921875 
Q 12.984375 10.40625 15.640625 8.0625 
Q 18.3125 5.71875 23.4375 5.71875 
Q 28.515625 5.71875 32.46875 7.9375 
Q 36.421875 10.15625 38.28125 14.015625 
Q 39.703125 17 39.703125 22.796875 
z
" id="ArialMT-97"/>
      <path d="M 6.59375 0 
L 6.59375 51.859375 
L 14.5 51.859375 
L 14.5 44.484375 
Q 20.21875 53.03125 31 53.03125 
Q 35.6875 53.03125 39.625 51.34375 
Q 43.5625 49.65625 45.515625 46.921875 
Q 47.46875 44.1875 48.25 40.4375 
Q 48.734375 37.984375 48.734375 31.890625 
L 48.734375 0 
L 39.9375 0 
L 39.9375 31.546875 
Q 39.9375 36.921875 38.90625 39.578125 
Q 37.890625 42.234375 35.28125 43.8125 
Q 32.671875 45.40625 29.15625 45.40625 
Q 23.53125 45.40625 19.453125 41.84375 
Q 15.375 38.28125 15.375 28.328125 
L 15.375 0 
z
" id="ArialMT-110"/>
      <path d="M 40.4375 19 
L 49.078125 17.875 
Q 47.65625 8.9375 41.8125 3.875 
Q 35.984375 -1.171875 27.484375 -1.171875 
Q 16.84375 -1.171875 10.375 5.78125 
Q 3.90625 12.75 3.90625 25.734375 
Q 3.90625 34.125 6.6875 40.421875 
Q 9.46875 46.734375 15.15625 49.875 
Q 20.84375 53.03125 27.546875 53.03125 
Q 35.984375 53.03125 41.359375 48.75 
Q 46.734375 44.484375 48.25 36.625 
L 39.703125 35.296875 
Q 38.484375 40.53125 35.375 43.15625 
Q 32.28125 45.796875 27.875 45.796875 
Q 21.234375 45.796875 17.078125 41.03125 
Q 12.9375 36.28125 12.9375 25.984375 
Q 12.9375 15.53125 16.9375 10.796875 
Q 20.953125 6.0625 27.390625 6.0625 
Q 32.5625 6.0625 36.03125 9.234375 
Q 39.5 12.40625 40.4375 19 
z
" id="ArialMT-99"/>
      <path d="M 42.09375 16.703125 
L 51.171875 15.578125 
Q 49.03125 7.625 43.21875 3.21875 
Q 37.40625 -1.171875 28.375 -1.171875 
Q 17 -1.171875 10.328125 5.828125 
Q 3.65625 12.84375 3.65625 25.484375 
Q 3.65625 38.578125 10.390625 45.796875 
Q 17.140625 53.03125 27.875 53.03125 
Q 38.28125 53.03125 44.875 45.953125 
Q 51.46875 38.875 51.46875 26.03125 
Q 51.46875 25.25 51.421875 23.6875 
L 12.75 23.6875 
Q 13.234375 15.140625 17.578125 10.59375 
Q 21.921875 6.0625 28.421875 6.0625 
Q 33.25 6.0625 36.671875 8.59375 
Q 40.09375 11.140625 42.09375 16.703125 
z
M 13.234375 30.90625 
L 42.1875 30.90625 
Q 41.609375 37.453125 38.875 40.71875 
Q 34.671875 45.796875 27.984375 45.796875 
Q 21.921875 45.796875 17.796875 41.75 
Q 13.671875 37.703125 13.234375 30.90625 
z
" id="ArialMT-101"/>
      <path id="ArialMT-32"/>
      <path d="M 4.984375 -4.296875 
L 13.53125 -5.5625 
Q 14.0625 -9.515625 16.5 -11.328125 
Q 19.78125 -13.765625 25.4375 -13.765625 
Q 31.546875 -13.765625 34.859375 -11.328125 
Q 38.1875 -8.890625 39.359375 -4.5 
Q 40.046875 -1.8125 39.984375 6.78125 
Q 34.234375 0 25.640625 0 
Q 14.9375 0 9.078125 7.71875 
Q 3.21875 15.4375 3.21875 26.21875 
Q 3.21875 33.640625 5.90625 39.90625 
Q 8.59375 46.1875 13.6875 49.609375 
Q 18.796875 53.03125 25.6875 53.03125 
Q 34.859375 53.03125 40.828125 45.609375 
L 40.828125 51.859375 
L 48.921875 51.859375 
L 48.921875 7.03125 
Q 48.921875 -5.078125 46.453125 -10.125 
Q 44 -15.1875 38.640625 -18.109375 
Q 33.296875 -21.046875 25.484375 -21.046875 
Q 16.21875 -21.046875 10.5 -16.875 
Q 4.78125 -12.703125 4.984375 -4.296875 
z
M 12.25 26.859375 
Q 12.25 16.65625 16.296875 11.96875 
Q 20.359375 7.28125 26.46875 7.28125 
Q 32.515625 7.28125 36.609375 11.9375 
Q 40.71875 16.609375 40.71875 26.5625 
Q 40.71875 36.078125 36.5 40.90625 
Q 32.28125 45.75 26.3125 45.75 
Q 20.453125 45.75 16.34375 40.984375 
Q 12.25 36.234375 12.25 26.859375 
z
" id="ArialMT-103"/>
      <path d="M 6.5 0 
L 6.5 51.859375 
L 14.40625 51.859375 
L 14.40625 44 
Q 17.4375 49.515625 20 51.265625 
Q 22.5625 53.03125 25.640625 53.03125 
Q 30.078125 53.03125 34.671875 50.203125 
L 31.640625 42.046875 
Q 28.421875 43.953125 25.203125 43.953125 
Q 22.3125 43.953125 20.015625 42.21875 
Q 17.71875 40.484375 16.75 37.40625 
Q 15.28125 32.71875 15.28125 27.15625 
L 15.28125 0 
z
" id="ArialMT-114"/>
      <path d="M 3.328125 25.921875 
Q 3.328125 40.328125 11.328125 47.265625 
Q 18.015625 53.03125 27.640625 53.03125 
Q 38.328125 53.03125 45.109375 46.015625 
Q 51.90625 39.015625 51.90625 26.65625 
Q 51.90625 16.65625 48.90625 10.90625 
Q 45.90625 5.171875 40.15625 2 
Q 34.421875 -1.171875 27.640625 -1.171875 
Q 16.75 -1.171875 10.03125 5.8125 
Q 3.328125 12.796875 3.328125 25.921875 
z
M 12.359375 25.921875 
Q 12.359375 15.96875 16.703125 11.015625 
Q 21.046875 6.0625 27.640625 6.0625 
Q 34.1875 6.0625 38.53125 11.03125 
Q 42.875 16.015625 42.875 26.21875 
Q 42.875 35.84375 38.5 40.796875 
Q 34.125 45.75 27.640625 45.75 
Q 21.046875 45.75 16.703125 40.8125 
Q 12.359375 35.890625 12.359375 25.921875 
z
" id="ArialMT-111"/>
      <path d="M 6.390625 0 
L 6.390625 71.578125 
L 15.1875 71.578125 
L 15.1875 0 
z
" id="ArialMT-108"/>
     </defs>
     <g transform="translate(222.401278 586.54625)scale(0.2 -0.2)">
      <use xlink:href="#ArialMT-68"/>
      <use x="72.216797" xlink:href="#ArialMT-105"/>
      <use x="94.433594" xlink:href="#ArialMT-115"/>
      <use x="144.433594" xlink:href="#ArialMT-116"/>
      <use x="172.216797" xlink:href="#ArialMT-97"/>
      <use x="227.832031" xlink:href="#ArialMT-110"/>
      <use x="283.447266" xlink:href="#ArialMT-99"/>
      <use x="333.447266" xlink:href="#ArialMT-101"/>
      <use x="389.0625" xlink:href="#ArialMT-32"/>
      <use x="416.845703" xlink:href="#ArialMT-103"/>
      <use x="472.460938" xlink:href="#ArialMT-114"/>
      <use x="505.761719" xlink:href="#ArialMT-101"/>
      <use x="561.376953" xlink:href="#ArialMT-101"/>
      <use x="616.992188" xlink:href="#ArialMT-110"/>
      <use x="672.607422" xlink:href="#ArialMT-32"/>
      <use x="700.390625" xlink:href="#ArialMT-116"/>
      <use x="728.173828" xlink:href="#ArialMT-111"/>
      <use x="783.789062" xlink:href="#ArialMT-32"/>
      <use x="811.572266" xlink:href="#ArialMT-103"/>
      <use x="867.1875" xlink:href="#ArialMT-114"/>
      <use x="900.488281" xlink:href="#ArialMT-101"/>
      <use x="956.103516" xlink:href="#ArialMT-101"/>
      <use x="1011.71875" xlink:href="#ArialMT-110"/>
      <use x="1067.333984" xlink:href="#ArialMT-32"/>
      <use x="1095.117188" xlink:href="#ArialMT-99"/>
      <use x="1145.117188" xlink:href="#ArialMT-101"/>
      <use x="1200.732422" xlink:href="#ArialMT-108"/>
      <use x="1222.949219" xlink:href="#ArialMT-108"/>
     </g>
    </g>
   </g>
   <g id="matplotlib.axis_2">
    <g id="ytick_1">
     <g id="line2d_5">
      <defs>
       <path d="M 0 0 
L -5 0 
" id="m3b6d5d4d5b" style="stroke:#000000;stroke-width:1.5;"/>
      </defs>
      <g>
       <use style="stroke:#000000;stroke-width:1.5;" x="144" xlink:href="#m3b6d5d4d5b" y="541.44"/>
      </g>
     </g>
     <g id="text_6">
      <!-- 0 -->
      <g transform="translate(124.378125 548.597812)scale(0.2 -0.2)">
       <use xlink:href="#ArialMT-48"/>
      </g>
     </g>
    </g>
    <g id="ytick_2">
     <g id="line2d_6">
      <g>
       <use style="stroke:#000000;stroke-width:1.5;" x="144" xlink:href="#m3b6d5d4d5b" y="484.126567"/>
      </g>
     </g>
     <g id="text_7">
      <!-- 10 -->
      <g transform="translate(113.25625 491.28438)scale(0.2 -0.2)">
       <use xlink:href="#ArialMT-49"/>
       <use x="55.615234" xlink:href="#ArialMT-48"/>
      </g>
     </g>
    </g>
    <g id="ytick_3">
     <g id="line2d_7">
      <g>
       <use style="stroke:#000000;stroke-width:1.5;" x="144" xlink:href="#m3b6d5d4d5b" y="426.813134"/>
      </g>
     </g>
     <g id="text_8">
      <!-- 20 -->
      <g transform="translate(113.25625 433.970947)scale(0.2 -0.2)">
       <use xlink:href="#ArialMT-50"/>
       <use x="55.615234" xlink:href="#ArialMT-48"/>
      </g>
     </g>
    </g>
    <g id="ytick_4">
     <g id="line2d_8">
      <g>
       <use style="stroke:#000000;stroke-width:1.5;" x="144" xlink:href="#m3b6d5d4d5b" y="369.499701"/>
      </g>
     </g>
     <g id="text_9">
      <!-- 30 -->
      <g transform="translate(113.25625 376.657514)scale(0.2 -0.2)">
       <use xlink:href="#ArialMT-51"/>
       <use x="55.615234" xlink:href="#ArialMT-48"/>
      </g>
     </g>
    </g>
    <g id="ytick_5">
     <g id="line2d_9">
      <g>
       <use style="stroke:#000000;stroke-width:1.5;" x="144" xlink:href="#m3b6d5d4d5b" y="312.186269"/>
      </g>
     </g>
     <g id="text_10">
      <!-- 40 -->
      <defs>
       <path d="M 32.328125 0 
L 32.328125 17.140625 
L 1.265625 17.140625 
L 1.265625 25.203125 
L 33.9375 71.578125 
L 41.109375 71.578125 
L 41.109375 25.203125 
L 50.78125 25.203125 
L 50.78125 17.140625 
L 41.109375 17.140625 
L 41.109375 0 
z
M 32.328125 25.203125 
L 32.328125 57.46875 
L 9.90625 25.203125 
z
" id="ArialMT-52"/>
      </defs>
      <g transform="translate(113.25625 319.344081)scale(0.2 -0.2)">
       <use xlink:href="#ArialMT-52"/>
       <use x="55.615234" xlink:href="#ArialMT-48"/>
      </g>
     </g>
    </g>
    <g id="ytick_6">
     <g id="line2d_10">
      <g>
       <use style="stroke:#000000;stroke-width:1.5;" x="144" xlink:href="#m3b6d5d4d5b" y="254.872836"/>
      </g>
     </g>
     <g id="text_11">
      <!-- 50 -->
      <defs>
       <path d="M 4.15625 18.75 
L 13.375 19.53125 
Q 14.40625 12.796875 18.140625 9.390625 
Q 21.875 6 27.15625 6 
Q 33.5 6 37.890625 10.78125 
Q 42.28125 15.578125 42.28125 23.484375 
Q 42.28125 31 38.0625 35.34375 
Q 33.84375 39.703125 27 39.703125 
Q 22.75 39.703125 19.328125 37.765625 
Q 15.921875 35.84375 13.96875 32.765625 
L 5.71875 33.84375 
L 12.640625 70.609375 
L 48.25 70.609375 
L 48.25 62.203125 
L 19.671875 62.203125 
L 15.828125 42.96875 
Q 22.265625 47.46875 29.34375 47.46875 
Q 38.71875 47.46875 45.15625 40.96875 
Q 51.609375 34.46875 51.609375 24.265625 
Q 51.609375 14.546875 45.953125 7.46875 
Q 39.0625 -1.21875 27.15625 -1.21875 
Q 17.390625 -1.21875 11.203125 4.25 
Q 5.03125 9.71875 4.15625 18.75 
z
" id="ArialMT-53"/>
      </defs>
      <g transform="translate(113.25625 262.030648)scale(0.2 -0.2)">
       <use xlink:href="#ArialMT-53"/>
       <use x="55.615234" xlink:href="#ArialMT-48"/>
      </g>
     </g>
    </g>
    <g id="ytick_7">
     <g id="line2d_11">
      <g>
       <use style="stroke:#000000;stroke-width:1.5;" x="144" xlink:href="#m3b6d5d4d5b" y="197.559403"/>
      </g>
     </g>
     <g id="text_12">
      <!-- 60 -->
      <defs>
       <path d="M 49.75 54.046875 
L 41.015625 53.375 
Q 39.84375 58.546875 37.703125 60.890625 
Q 34.125 64.65625 28.90625 64.65625 
Q 24.703125 64.65625 21.53125 62.3125 
Q 17.390625 59.28125 14.984375 53.46875 
Q 12.59375 47.65625 12.5 36.921875 
Q 15.671875 41.75 20.265625 44.09375 
Q 24.859375 46.4375 29.890625 46.4375 
Q 38.671875 46.4375 44.84375 39.96875 
Q 51.03125 33.5 51.03125 23.25 
Q 51.03125 16.5 48.125 10.71875 
Q 45.21875 4.9375 40.140625 1.859375 
Q 35.0625 -1.21875 28.609375 -1.21875 
Q 17.625 -1.21875 10.6875 6.859375 
Q 3.765625 14.9375 3.765625 33.5 
Q 3.765625 54.25 11.421875 63.671875 
Q 18.109375 71.875 29.4375 71.875 
Q 37.890625 71.875 43.28125 67.140625 
Q 48.6875 62.40625 49.75 54.046875 
z
M 13.875 23.1875 
Q 13.875 18.65625 15.796875 14.5 
Q 17.71875 10.359375 21.1875 8.171875 
Q 24.65625 6 28.46875 6 
Q 34.03125 6 38.03125 10.484375 
Q 42.046875 14.984375 42.046875 22.703125 
Q 42.046875 30.125 38.078125 34.390625 
Q 34.125 38.671875 28.125 38.671875 
Q 22.171875 38.671875 18.015625 34.390625 
Q 13.875 30.125 13.875 23.1875 
z
" id="ArialMT-54"/>
      </defs>
      <g transform="translate(113.25625 204.717215)scale(0.2 -0.2)">
       <use xlink:href="#ArialMT-54"/>
       <use x="55.615234" xlink:href="#ArialMT-48"/>
      </g>
     </g>
    </g>
    <g id="ytick_8">
     <g id="line2d_12">
      <g>
       <use style="stroke:#000000;stroke-width:1.5;" x="144" xlink:href="#m3b6d5d4d5b" y="140.24597"/>
      </g>
     </g>
     <g id="text_13">
      <!-- 70 -->
      <defs>
       <path d="M 4.734375 62.203125 
L 4.734375 70.65625 
L 51.078125 70.65625 
L 51.078125 63.8125 
Q 44.234375 56.546875 37.515625 44.484375 
Q 30.8125 32.421875 27.15625 19.671875 
Q 24.515625 10.6875 23.78125 0 
L 14.75 0 
Q 14.890625 8.453125 18.0625 20.40625 
Q 21.234375 32.375 27.171875 43.484375 
Q 33.109375 54.59375 39.796875 62.203125 
z
" id="ArialMT-55"/>
      </defs>
      <g transform="translate(113.25625 147.403783)scale(0.2 -0.2)">
       <use xlink:href="#ArialMT-55"/>
       <use x="55.615234" xlink:href="#ArialMT-48"/>
      </g>
     </g>
    </g>
    <g id="text_14">
     <!-- Counts -->
     <defs>
      <path d="M 58.796875 25.09375 
L 68.265625 22.703125 
Q 65.28125 11.03125 57.546875 4.90625 
Q 49.8125 -1.21875 38.625 -1.21875 
Q 27.046875 -1.21875 19.796875 3.484375 
Q 12.546875 8.203125 8.765625 17.140625 
Q 4.984375 26.078125 4.984375 36.328125 
Q 4.984375 47.515625 9.25 55.828125 
Q 13.53125 64.15625 21.40625 68.46875 
Q 29.296875 72.796875 38.765625 72.796875 
Q 49.515625 72.796875 56.828125 67.328125 
Q 64.15625 61.859375 67.046875 51.953125 
L 57.71875 49.75 
Q 55.21875 57.5625 50.484375 61.125 
Q 45.75 64.703125 38.578125 64.703125 
Q 30.328125 64.703125 24.78125 60.734375 
Q 19.234375 56.78125 16.984375 50.109375 
Q 14.75 43.453125 14.75 36.375 
Q 14.75 27.25 17.40625 20.4375 
Q 20.0625 13.625 25.671875 10.25 
Q 31.296875 6.890625 37.84375 6.890625 
Q 45.796875 6.890625 51.3125 11.46875 
Q 56.84375 16.0625 58.796875 25.09375 
z
" id="ArialMT-67"/>
      <path d="M 40.578125 0 
L 40.578125 7.625 
Q 34.515625 -1.171875 24.125 -1.171875 
Q 19.53125 -1.171875 15.546875 0.578125 
Q 11.578125 2.34375 9.640625 5 
Q 7.71875 7.671875 6.9375 11.53125 
Q 6.390625 14.109375 6.390625 19.734375 
L 6.390625 51.859375 
L 15.1875 51.859375 
L 15.1875 23.09375 
Q 15.1875 16.21875 15.71875 13.8125 
Q 16.546875 10.359375 19.234375 8.375 
Q 21.921875 6.390625 25.875 6.390625 
Q 29.828125 6.390625 33.296875 8.421875 
Q 36.765625 10.453125 38.203125 13.9375 
Q 39.65625 17.4375 39.65625 24.078125 
L 39.65625 51.859375 
L 48.4375 51.859375 
L 48.4375 0 
z
" id="ArialMT-117"/>
     </defs>
     <g transform="translate(105.28125 371.522812)rotate(-90)scale(0.2 -0.2)">
      <use xlink:href="#ArialMT-67"/>
      <use x="72.216797" xlink:href="#ArialMT-111"/>
      <use x="127.832031" xlink:href="#ArialMT-117"/>
      <use x="183.447266" xlink:href="#ArialMT-110"/>
      <use x="239.0625" xlink:href="#ArialMT-116"/>
      <use x="266.845703" xlink:href="#ArialMT-115"/>
     </g>
    </g>
   </g>
   <g id="patch_3">
    <path clip-path="url(#pd57974f26b)" d="M 167.980165 541.44 
L 193.804959 541.44 
L 193.804959 495.589254 
L 167.980165 495.589254 
z
" style="fill:#1f77b4;"/>
   </g>
   <g id="patch_4">
    <path clip-path="url(#pd57974f26b)" d="M 204.872727 541.44 
L 230.697521 541.44 
L 230.697521 358.037015 
L 204.872727 358.037015 
z
" style="fill:#1f77b4;"/>
   </g>
   <g id="patch_5">
    <path clip-path="url(#pd57974f26b)" d="M 241.765289 541.44 
L 267.590083 541.44 
L 267.590083 272.066866 
L 241.765289 272.066866 
z
" style="fill:#1f77b4;"/>
   </g>
   <g id="patch_6">
    <path clip-path="url(#pd57974f26b)" d="M 278.657851 541.44 
L 304.482645 541.44 
L 304.482645 157.44 
L 278.657851 157.44 
z
" style="fill:#1f77b4;"/>
   </g>
   <g id="patch_7">
    <path clip-path="url(#pd57974f26b)" d="M 315.550413 541.44 
L 341.375207 541.44 
L 341.375207 358.037015 
L 315.550413 358.037015 
z
" style="fill:#1f77b4;"/>
   </g>
   <g id="patch_8">
    <path clip-path="url(#pd57974f26b)" d="M 352.442975 541.44 
L 378.267769 541.44 
L 378.267769 449.738507 
L 352.442975 449.738507 
z
" style="fill:#1f77b4;"/>
   </g>
   <g id="patch_9">
    <path clip-path="url(#pd57974f26b)" d="M 389.335537 541.44 
L 415.160331 541.44 
L 415.160331 484.126567 
L 389.335537 484.126567 
z
" style="fill:#1f77b4;"/>
   </g>
   <g id="patch_10">
    <path clip-path="url(#pd57974f26b)" d="M 426.228099 541.44 
L 452.052893 541.44 
L 452.052893 524.24597 
L 426.228099 524.24597 
z
" style="fill:#1f77b4;"/>
   </g>
   <g id="patch_11">
    <path clip-path="url(#pd57974f26b)" d="M 463.120661 541.44 
L 488.945455 541.44 
L 488.945455 524.24597 
L 463.120661 524.24597 
z
" style="fill:#1f77b4;"/>
   </g>
   <g id="patch_12">
    <path clip-path="url(#pd57974f26b)" d="M 500.013223 541.44 
L 525.838017 541.44 
L 525.838017 535.708657 
L 500.013223 535.708657 
z
" style="fill:#1f77b4;"/>
   </g>
   <g id="line2d_13">
    <path clip-path="url(#pd57974f26b)" d="M 162.446281 529.288271 
L 166.172802 524.542354 
L 169.899324 518.563401 
L 173.625845 511.253892 
L 177.352367 502.572082 
L 181.078888 492.540633 
L 184.805409 481.248173 
L 188.531931 468.84348 
L 192.258452 455.523436 
L 195.984974 441.516948 
L 199.711495 427.067526 
L 203.438017 412.417018 
L 207.164538 397.792398 
L 210.891059 383.396585 
L 214.617581 369.403447 
L 218.344102 355.956397 
L 222.070624 343.169392 
L 225.797145 331.128792 
L 229.523666 319.894342 
L 233.250188 309.497815 
L 236.976709 299.938613 
L 240.703231 291.176956 
L 244.429752 283.12697 
L 248.156273 275.653516 
L 251.882795 268.577363 
L 255.609316 261.692662 
L 259.335838 254.798309 
L 263.062359 247.740987 
L 266.788881 240.463262 
L 270.515402 233.04652 
L 274.241923 225.737031 
L 277.968445 218.94515 
L 281.694966 213.212434 
L 285.421488 209.148524 
L 289.148009 207.347017 
L 292.87453 208.295286 
L 296.601052 212.295524 
L 300.327573 219.412493 
L 304.054095 229.457956 
L 307.780616 242.014057 
L 311.507137 256.490063 
L 315.233659 272.200752 
L 318.96018 288.451767 
L 322.686702 304.617636 
L 326.413223 320.201339 
L 330.139745 334.869004 
L 333.866266 348.458151 
L 337.592787 360.961972 
L 341.319309 372.494826 
L 345.04583 383.245702 
L 348.772352 393.427118 
L 352.498873 403.227016 
L 356.225394 412.770774 
L 359.951916 422.099191 
L 363.678437 431.165904 
L 367.404959 439.854283 
L 371.13148 448.009875 
L 374.858002 455.480913 
L 378.584523 462.157379 
L 382.311044 467.999423 
L 386.037566 473.048683 
L 389.764087 477.420601 
L 393.490609 481.280739 
L 397.21713 484.811992 
L 400.943651 488.181289 
L 404.670173 491.513491 
L 408.396694 494.877366 
L 412.123216 498.284685 
L 415.849737 501.700115 
L 419.576258 505.057465 
L 423.30278 508.277458 
L 427.029301 511.28321 
L 430.755823 514.011317 
L 434.482344 516.418218 
L 438.208866 518.482643 
L 441.935387 520.205407 
L 445.661908 521.607617 
L 449.38843 522.727866 
L 453.114951 523.618543 
L 456.841473 524.341145 
L 460.567994 524.960586 
L 464.294515 525.538804 
L 468.021037 526.128381 
L 471.747558 526.76719 
L 475.47408 527.47513 
L 479.200601 528.253741 
L 482.927122 529.088947 
L 486.653644 529.956428 
L 490.380165 530.828469 
L 494.106687 531.680688 
L 497.833208 532.497088 
L 501.55973 533.272288 
L 505.286251 534.010627 
L 509.012772 534.722657 
L 512.739294 535.420267 
L 516.465815 536.111942 
L 520.192337 536.799485 
L 523.918858 537.476962 
L 527.645379 538.131902 
L 531.371901 538.748163 
" style="fill:none;stroke:#00bfbf;stroke-linecap:square;stroke-linejoin:miter;stroke-width:5;"/>
   </g>
   <g id="patch_13">
    <path d="M 144 541.44 
L 144 138.24 
" style="fill:none;stroke:#000000;stroke-linecap:square;stroke-linejoin:miter;stroke-width:2;"/>
   </g>
   <g id="patch_14">
    <path d="M 144 541.44 
L 549.818182 541.44 
" style="fill:none;stroke:#000000;stroke-linecap:square;stroke-linejoin:miter;stroke-width:2;"/>
   </g>
   <g id="text_15">
    <!-- a4_4color_sphere5 (n=219) -->
    <defs>
     <path d="M -1.515625 -19.875 
L -1.515625 -13.53125 
L 56.734375 -13.53125 
L 56.734375 -19.875 
z
" id="ArialMT-95"/>
     <path d="M 6.59375 -19.875 
L 6.59375 51.859375 
L 14.59375 51.859375 
L 14.59375 45.125 
Q 17.4375 49.078125 21 51.046875 
Q 24.5625 53.03125 29.640625 53.03125 
Q 36.28125 53.03125 41.359375 49.609375 
Q 46.4375 46.1875 49.015625 39.953125 
Q 51.609375 33.734375 51.609375 26.3125 
Q 51.609375 18.359375 48.75 11.984375 
Q 45.90625 5.609375 40.453125 2.21875 
Q 35.015625 -1.171875 29 -1.171875 
Q 24.609375 -1.171875 21.109375 0.6875 
Q 17.625 2.546875 15.375 5.375 
L 15.375 -19.875 
z
M 14.546875 25.640625 
Q 14.546875 15.625 18.59375 10.84375 
Q 22.65625 6.0625 28.421875 6.0625 
Q 34.28125 6.0625 38.453125 11.015625 
Q 42.625 15.96875 42.625 26.375 
Q 42.625 36.28125 38.546875 41.203125 
Q 34.46875 46.140625 28.8125 46.140625 
Q 23.1875 46.140625 18.859375 40.890625 
Q 14.546875 35.640625 14.546875 25.640625 
z
" id="ArialMT-112"/>
     <path d="M 6.59375 0 
L 6.59375 71.578125 
L 15.375 71.578125 
L 15.375 45.90625 
Q 21.53125 53.03125 30.90625 53.03125 
Q 36.671875 53.03125 40.921875 50.75 
Q 45.171875 48.484375 47 44.484375 
Q 48.828125 40.484375 48.828125 32.859375 
L 48.828125 0 
L 40.046875 0 
L 40.046875 32.859375 
Q 40.046875 39.453125 37.1875 42.453125 
Q 34.328125 45.453125 29.109375 45.453125 
Q 25.203125 45.453125 21.75 43.421875 
Q 18.3125 41.40625 16.84375 37.9375 
Q 15.375 34.46875 15.375 28.375 
L 15.375 0 
z
" id="ArialMT-104"/>
     <path d="M 23.390625 -21.046875 
Q 16.109375 -11.859375 11.078125 0.4375 
Q 6.0625 12.75 6.0625 25.921875 
Q 6.0625 37.546875 9.8125 48.1875 
Q 14.203125 60.546875 23.390625 72.796875 
L 29.6875 72.796875 
Q 23.78125 62.640625 21.875 58.296875 
Q 18.890625 51.5625 17.1875 44.234375 
Q 15.09375 35.109375 15.09375 25.875 
Q 15.09375 2.390625 29.6875 -21.046875 
z
" id="ArialMT-40"/>
     <path d="M 52.828125 42.09375 
L 5.5625 42.09375 
L 5.5625 50.296875 
L 52.828125 50.296875 
z
M 52.828125 20.359375 
L 5.5625 20.359375 
L 5.5625 28.5625 
L 52.828125 28.5625 
z
" id="ArialMT-61"/>
     <path d="M 5.46875 16.546875 
L 13.921875 17.328125 
Q 14.984375 11.375 18.015625 8.6875 
Q 21.046875 6 25.78125 6 
Q 29.828125 6 32.875 7.859375 
Q 35.9375 9.71875 37.890625 12.8125 
Q 39.84375 15.921875 41.15625 21.1875 
Q 42.484375 26.46875 42.484375 31.9375 
Q 42.484375 32.515625 42.4375 33.6875 
Q 39.796875 29.5 35.234375 26.875 
Q 30.671875 24.265625 25.34375 24.265625 
Q 16.453125 24.265625 10.296875 30.703125 
Q 4.15625 37.15625 4.15625 47.703125 
Q 4.15625 58.59375 10.578125 65.234375 
Q 17 71.875 26.65625 71.875 
Q 33.640625 71.875 39.421875 68.109375 
Q 45.21875 64.359375 48.21875 57.390625 
Q 51.21875 50.4375 51.21875 37.25 
Q 51.21875 23.53125 48.234375 15.40625 
Q 45.265625 7.28125 39.375 3.03125 
Q 33.5 -1.21875 25.59375 -1.21875 
Q 17.1875 -1.21875 11.859375 3.4375 
Q 6.546875 8.109375 5.46875 16.546875 
z
M 41.453125 48.140625 
Q 41.453125 55.71875 37.421875 60.15625 
Q 33.40625 64.59375 27.734375 64.59375 
Q 21.875 64.59375 17.53125 59.8125 
Q 13.1875 55.03125 13.1875 47.40625 
Q 13.1875 40.578125 17.3125 36.296875 
Q 21.4375 32.03125 27.484375 32.03125 
Q 33.59375 32.03125 37.515625 36.296875 
Q 41.453125 40.578125 41.453125 48.140625 
z
" id="ArialMT-57"/>
     <path d="M 12.359375 -21.046875 
L 6.0625 -21.046875 
Q 20.65625 2.390625 20.65625 25.875 
Q 20.65625 35.0625 18.5625 44.09375 
Q 16.890625 51.421875 13.921875 58.15625 
Q 12.015625 62.546875 6.0625 72.796875 
L 12.359375 72.796875 
Q 21.53125 60.546875 25.921875 48.1875 
Q 29.6875 37.546875 29.6875 25.921875 
Q 29.6875 12.75 24.625 0.4375 
Q 19.578125 -11.859375 12.359375 -21.046875 
z
" id="ArialMT-41"/>
    </defs>
    <g transform="translate(199.147841 132.24)scale(0.24 -0.24)">
     <use xlink:href="#ArialMT-97"/>
     <use x="55.615234" xlink:href="#ArialMT-52"/>
     <use x="111.230469" xlink:href="#ArialMT-95"/>
     <use x="166.845703" xlink:href="#ArialMT-52"/>
     <use x="222.460938" xlink:href="#ArialMT-99"/>
     <use x="272.460938" xlink:href="#ArialMT-111"/>
     <use x="328.076172" xlink:href="#ArialMT-108"/>
     <use x="350.292969" xlink:href="#ArialMT-111"/>
     <use x="405.908203" xlink:href="#ArialMT-114"/>
     <use x="439.208984" xlink:href="#ArialMT-95"/>
     <use x="494.824219" xlink:href="#ArialMT-115"/>
     <use x="544.824219" xlink:href="#ArialMT-112"/>
     <use x="600.439453" xlink:href="#ArialMT-104"/>
     <use x="656.054688" xlink:href="#ArialMT-101"/>
     <use x="711.669922" xlink:href="#ArialMT-114"/>
     <use x="744.970703" xlink:href="#ArialMT-101"/>
     <use x="800.585938" xlink:href="#ArialMT-53"/>
     <use x="856.201172" xlink:href="#ArialMT-32"/>
     <use x="883.984375" xlink:href="#ArialMT-40"/>
     <use x="917.285156" xlink:href="#ArialMT-110"/>
     <use x="972.900391" xlink:href="#ArialMT-61"/>
     <use x="1031.298828" xlink:href="#ArialMT-50"/>
     <use x="1086.914062" xlink:href="#ArialMT-49"/>
     <use x="1142.529297" xlink:href="#ArialMT-57"/>
     <use x="1198.144531" xlink:href="#ArialMT-41"/>
    </g>
   </g>
  </g>
  <g id="axes_2">
   <g id="patch_15">
    <path d="M 630.981818 541.44 
L 1036.8 541.44 
L 1036.8 138.24 
L 630.981818 138.24 
z
" style="fill:none;"/>
   </g>
   <g id="matplotlib.axis_3">
    <g id="xtick_5">
     <g id="line2d_14">
      <g>
       <use style="stroke:#000000;stroke-width:1.5;" x="649.428099" xlink:href="#m27377530bd" y="541.44"/>
      </g>
     </g>
     <g id="text_16">
      <!-- 0 -->
      <g transform="translate(643.867162 564.255625)scale(0.2 -0.2)">
       <use xlink:href="#ArialMT-48"/>
      </g>
     </g>
    </g>
    <g id="xtick_6">
     <g id="line2d_15">
      <g>
       <use style="stroke:#000000;stroke-width:1.5;" x="772.403306" xlink:href="#m27377530bd" y="541.44"/>
      </g>
     </g>
     <g id="text_17">
      <!-- 10 -->
      <g transform="translate(761.281431 564.255625)scale(0.2 -0.2)">
       <use xlink:href="#ArialMT-49"/>
       <use x="55.615234" xlink:href="#ArialMT-48"/>
      </g>
     </g>
    </g>
    <g id="xtick_7">
     <g id="line2d_16">
      <g>
       <use style="stroke:#000000;stroke-width:1.5;" x="895.378512" xlink:href="#m27377530bd" y="541.44"/>
      </g>
     </g>
     <g id="text_18">
      <!-- 20 -->
      <g transform="translate(884.256637 564.255625)scale(0.2 -0.2)">
       <use xlink:href="#ArialMT-50"/>
       <use x="55.615234" xlink:href="#ArialMT-48"/>
      </g>
     </g>
    </g>
    <g id="xtick_8">
     <g id="line2d_17">
      <g>
       <use style="stroke:#000000;stroke-width:1.5;" x="1018.353719" xlink:href="#m27377530bd" y="541.44"/>
      </g>
     </g>
     <g id="text_19">
      <!-- 30 -->
      <g transform="translate(1007.231844 564.255625)scale(0.2 -0.2)">
       <use xlink:href="#ArialMT-51"/>
       <use x="55.615234" xlink:href="#ArialMT-48"/>
      </g>
     </g>
    </g>
    <g id="text_20">
     <!-- Distance green to red cell -->
     <defs>
      <path d="M 40.234375 0 
L 40.234375 6.546875 
Q 35.296875 -1.171875 25.734375 -1.171875 
Q 19.53125 -1.171875 14.328125 2.25 
Q 9.125 5.671875 6.265625 11.796875 
Q 3.421875 17.921875 3.421875 25.875 
Q 3.421875 33.640625 6 39.96875 
Q 8.59375 46.296875 13.765625 49.65625 
Q 18.953125 53.03125 25.34375 53.03125 
Q 30.03125 53.03125 33.6875 51.046875 
Q 37.359375 49.078125 39.65625 45.90625 
L 39.65625 71.578125 
L 48.390625 71.578125 
L 48.390625 0 
z
M 12.453125 25.875 
Q 12.453125 15.921875 16.640625 10.984375 
Q 20.84375 6.0625 26.5625 6.0625 
Q 32.328125 6.0625 36.34375 10.765625 
Q 40.375 15.484375 40.375 25.140625 
Q 40.375 35.796875 36.265625 40.765625 
Q 32.171875 45.75 26.171875 45.75 
Q 20.3125 45.75 16.375 40.96875 
Q 12.453125 36.1875 12.453125 25.875 
z
" id="ArialMT-100"/>
     </defs>
     <g transform="translate(720.504972 586.54625)scale(0.2 -0.2)">
      <use xlink:href="#ArialMT-68"/>
      <use x="72.216797" xlink:href="#ArialMT-105"/>
      <use x="94.433594" xlink:href="#ArialMT-115"/>
      <use x="144.433594" xlink:href="#ArialMT-116"/>
      <use x="172.216797" xlink:href="#ArialMT-97"/>
      <use x="227.832031" xlink:href="#ArialMT-110"/>
      <use x="283.447266" xlink:href="#ArialMT-99"/>
      <use x="333.447266" xlink:href="#ArialMT-101"/>
      <use x="389.0625" xlink:href="#ArialMT-32"/>
      <use x="416.845703" xlink:href="#ArialMT-103"/>
      <use x="472.460938" xlink:href="#ArialMT-114"/>
      <use x="505.761719" xlink:href="#ArialMT-101"/>
      <use x="561.376953" xlink:href="#ArialMT-101"/>
      <use x="616.992188" xlink:href="#ArialMT-110"/>
      <use x="672.607422" xlink:href="#ArialMT-32"/>
      <use x="700.390625" xlink:href="#ArialMT-116"/>
      <use x="728.173828" xlink:href="#ArialMT-111"/>
      <use x="783.789062" xlink:href="#ArialMT-32"/>
      <use x="811.572266" xlink:href="#ArialMT-114"/>
      <use x="844.873047" xlink:href="#ArialMT-101"/>
      <use x="900.488281" xlink:href="#ArialMT-100"/>
      <use x="956.103516" xlink:href="#ArialMT-32"/>
      <use x="983.886719" xlink:href="#ArialMT-99"/>
      <use x="1033.886719" xlink:href="#ArialMT-101"/>
      <use x="1089.501953" xlink:href="#ArialMT-108"/>
      <use x="1111.71875" xlink:href="#ArialMT-108"/>
     </g>
    </g>
   </g>
   <g id="matplotlib.axis_4">
    <g id="ytick_9">
     <g id="line2d_18">
      <g>
       <use style="stroke:#000000;stroke-width:1.5;" x="630.981818" xlink:href="#m3b6d5d4d5b" y="541.44"/>
      </g>
     </g>
     <g id="text_21">
      <!-- 0 -->
      <g transform="translate(611.359943 548.597812)scale(0.2 -0.2)">
       <use xlink:href="#ArialMT-48"/>
      </g>
     </g>
    </g>
    <g id="ytick_10">
     <g id="line2d_19">
      <g>
       <use style="stroke:#000000;stroke-width:1.5;" x="630.981818" xlink:href="#m3b6d5d4d5b" y="484.126567"/>
      </g>
     </g>
     <g id="text_22">
      <!-- 10 -->
      <g transform="translate(600.238068 491.28438)scale(0.2 -0.2)">
       <use xlink:href="#ArialMT-49"/>
       <use x="55.615234" xlink:href="#ArialMT-48"/>
      </g>
     </g>
    </g>
    <g id="ytick_11">
     <g id="line2d_20">
      <g>
       <use style="stroke:#000000;stroke-width:1.5;" x="630.981818" xlink:href="#m3b6d5d4d5b" y="426.813134"/>
      </g>
     </g>
     <g id="text_23">
      <!-- 20 -->
      <g transform="translate(600.238068 433.970947)scale(0.2 -0.2)">
       <use xlink:href="#ArialMT-50"/>
       <use x="55.615234" xlink:href="#ArialMT-48"/>
      </g>
     </g>
    </g>
    <g id="ytick_12">
     <g id="line2d_21">
      <g>
       <use style="stroke:#000000;stroke-width:1.5;" x="630.981818" xlink:href="#m3b6d5d4d5b" y="369.499701"/>
      </g>
     </g>
     <g id="text_24">
      <!-- 30 -->
      <g transform="translate(600.238068 376.657514)scale(0.2 -0.2)">
       <use xlink:href="#ArialMT-51"/>
       <use x="55.615234" xlink:href="#ArialMT-48"/>
      </g>
     </g>
    </g>
    <g id="ytick_13">
     <g id="line2d_22">
      <g>
       <use style="stroke:#000000;stroke-width:1.5;" x="630.981818" xlink:href="#m3b6d5d4d5b" y="312.186269"/>
      </g>
     </g>
     <g id="text_25">
      <!-- 40 -->
      <g transform="translate(600.238068 319.344081)scale(0.2 -0.2)">
       <use xlink:href="#ArialMT-52"/>
       <use x="55.615234" xlink:href="#ArialMT-48"/>
      </g>
     </g>
    </g>
    <g id="ytick_14">
     <g id="line2d_23">
      <g>
       <use style="stroke:#000000;stroke-width:1.5;" x="630.981818" xlink:href="#m3b6d5d4d5b" y="254.872836"/>
      </g>
     </g>
     <g id="text_26">
      <!-- 50 -->
      <g transform="translate(600.238068 262.030648)scale(0.2 -0.2)">
       <use xlink:href="#ArialMT-53"/>
       <use x="55.615234" xlink:href="#ArialMT-48"/>
      </g>
     </g>
    </g>
    <g id="ytick_15">
     <g id="line2d_24">
      <g>
       <use style="stroke:#000000;stroke-width:1.5;" x="630.981818" xlink:href="#m3b6d5d4d5b" y="197.559403"/>
      </g>
     </g>
     <g id="text_27">
      <!-- 60 -->
      <g transform="translate(600.238068 204.717215)scale(0.2 -0.2)">
       <use xlink:href="#ArialMT-54"/>
       <use x="55.615234" xlink:href="#ArialMT-48"/>
      </g>
     </g>
    </g>
    <g id="ytick_16">
     <g id="line2d_25">
      <g>
       <use style="stroke:#000000;stroke-width:1.5;" x="630.981818" xlink:href="#m3b6d5d4d5b" y="140.24597"/>
      </g>
     </g>
     <g id="text_28">
      <!-- 70 -->
      <g transform="translate(600.238068 147.403783)scale(0.2 -0.2)">
       <use xlink:href="#ArialMT-55"/>
       <use x="55.615234" xlink:href="#ArialMT-48"/>
      </g>
     </g>
    </g>
    <g id="text_29">
     <!-- Counts -->
     <g transform="translate(592.263068 371.522812)rotate(-90)scale(0.2 -0.2)">
      <use xlink:href="#ArialMT-67"/>
      <use x="72.216797" xlink:href="#ArialMT-111"/>
      <use x="127.832031" xlink:href="#ArialMT-117"/>
      <use x="183.447266" xlink:href="#ArialMT-110"/>
      <use x="239.0625" xlink:href="#ArialMT-116"/>
      <use x="266.845703" xlink:href="#ArialMT-115"/>
     </g>
    </g>
   </g>
   <g id="patch_16">
    <path clip-path="url(#p62575199d6)" d="M 654.961983 541.44 
L 680.786777 541.44 
L 680.786777 524.24597 
L 654.961983 524.24597 
z
" style="fill:#1f77b4;"/>
   </g>
   <g id="patch_17">
    <path clip-path="url(#p62575199d6)" d="M 691.854545 541.44 
L 717.679339 541.44 
L 717.679339 426.813134 
L 691.854545 426.813134 
z
" style="fill:#1f77b4;"/>
   </g>
   <g id="patch_18">
    <path clip-path="url(#p62575199d6)" d="M 728.747107 541.44 
L 754.571901 541.44 
L 754.571901 335.111642 
L 728.747107 335.111642 
z
" style="fill:#1f77b4;"/>
   </g>
   <g id="patch_19">
    <path clip-path="url(#p62575199d6)" d="M 765.639669 541.44 
L 791.464463 541.44 
L 791.464463 157.44 
L 765.639669 157.44 
z
" style="fill:#1f77b4;"/>
   </g>
   <g id="patch_20">
    <path clip-path="url(#p62575199d6)" d="M 802.532231 541.44 
L 828.357025 541.44 
L 828.357025 300.723582 
L 802.532231 300.723582 
z
" style="fill:#1f77b4;"/>
   </g>
   <g id="patch_21">
    <path clip-path="url(#p62575199d6)" d="M 839.424793 541.44 
L 865.249587 541.44 
L 865.249587 392.425075 
L 839.424793 392.425075 
z
" style="fill:#1f77b4;"/>
   </g>
   <g id="patch_22">
    <path clip-path="url(#p62575199d6)" d="M 876.317355 541.44 
L 902.142149 541.44 
L 902.142149 478.395224 
L 876.317355 478.395224 
z
" style="fill:#1f77b4;"/>
   </g>
   <g id="patch_23">
    <path clip-path="url(#p62575199d6)" d="M 913.209917 541.44 
L 939.034711 541.44 
L 939.034711 501.320597 
L 913.209917 501.320597 
z
" style="fill:#1f77b4;"/>
   </g>
   <g id="patch_24">
    <path clip-path="url(#p62575199d6)" d="M 950.102479 541.44 
L 975.927273 541.44 
L 975.927273 524.24597 
L 950.102479 524.24597 
z
" style="fill:#1f77b4;"/>
   </g>
   <g id="patch_25">
    <path clip-path="url(#p62575199d6)" d="M 986.995041 541.44 
L 1012.819835 541.44 
L 1012.819835 524.24597 
L 986.995041 524.24597 
z
" style="fill:#1f77b4;"/>
   </g>
   <g id="line2d_26">
    <path clip-path="url(#p62575199d6)" d="M 649.428099 532.085819 
L 653.154621 528.828878 
L 656.881142 524.827687 
L 660.607663 520.046529 
L 664.334185 514.488532 
L 668.060706 508.201406 
L 671.787228 501.278429 
L 675.513749 493.853614 
L 679.24027 486.090743 
L 682.966792 478.166899 
L 686.693313 470.252014 
L 690.419835 462.486733 
L 694.146356 454.961373 
L 697.872878 447.698861 
L 701.599399 440.644275 
L 705.32592 433.662935 
L 709.052442 426.548079 
L 712.778963 419.038014 
L 716.505485 410.841441 
L 720.232006 401.668613 
L 723.958527 391.265139 
L 727.685049 379.444845 
L 731.41157 366.118122 
L 735.138092 351.312665 
L 738.864613 335.184333 
L 742.591134 318.016898 
L 746.317656 300.210551 
L 750.044177 282.26003 
L 753.770699 264.72417 
L 757.49722 248.189311 
L 761.223742 233.229613 
L 764.950263 220.36763 
L 768.676784 210.038594 
L 772.403306 202.561601 
L 776.129827 198.120274 
L 779.856349 196.754456 
L 783.58287 198.36329 
L 787.309391 202.71885 
L 791.035913 209.488521 
L 794.762434 218.263763 
L 798.488956 228.592744 
L 802.215477 240.014392 
L 805.941998 252.091555 
L 809.66852 264.44102 
L 813.395041 276.757989 
L 817.121563 288.832576 
L 820.848084 300.556063 
L 824.574606 311.915417 
L 828.301127 322.975955 
L 832.027648 333.85395 
L 835.75417 344.682968 
L 839.480691 355.579322 
L 843.207213 366.612597 
L 846.933734 377.786566 
L 850.660255 389.033856 
L 854.386777 400.224929 
L 858.113298 411.188952 
L 861.83982 421.741688 
L 865.566341 431.714269 
L 869.292863 440.976903 
L 873.019384 449.453115 
L 876.745905 457.1226 
L 880.472427 464.01343 
L 884.198948 470.186655 
L 887.92547 475.717665 
L 891.651991 480.678874 
L 895.378512 485.127414 
L 899.105034 489.099916 
L 902.831555 492.614532 
L 906.558077 495.678638 
L 910.284598 498.299426 
L 914.011119 500.494221 
L 917.737641 502.297666 
L 921.464162 503.76396 
L 925.190684 504.963703 
L 928.917205 505.976281 
L 932.643727 506.879826 
L 936.370248 507.741284 
L 940.096769 508.608971 
L 943.823291 509.509277 
L 947.549812 510.44805 
L 951.276334 511.416025 
L 955.002855 512.396701 
L 958.729376 513.374615 
L 962.455898 514.341999 
L 966.182419 515.302379 
L 969.908941 516.270526 
L 973.635462 517.269086 
L 977.361983 518.322981 
L 981.088505 519.453078 
L 984.815026 520.670657 
L 988.541548 521.973893 
L 992.268069 523.347016 
L 995.994591 524.762181 
L 999.721112 526.18354 
L 1003.447633 527.572619 
L 1007.174155 528.893915 
L 1010.900676 530.119727 
L 1014.627198 531.233395 
L 1018.353719 532.23053 
" style="fill:none;stroke:#00bfbf;stroke-linecap:square;stroke-linejoin:miter;stroke-width:5;"/>
   </g>
   <g id="patch_26">
    <path d="M 630.981818 541.44 
L 630.981818 138.24 
" style="fill:none;stroke:#000000;stroke-linecap:square;stroke-linejoin:miter;stroke-width:2;"/>
   </g>
   <g id="patch_27">
    <path d="M 630.981818 541.44 
L 1036.8 541.44 
" style="fill:none;stroke:#000000;stroke-linecap:square;stroke-linejoin:miter;stroke-width:2;"/>
   </g>
   <g id="text_30">
    <!-- a4_4color_sphere5 (n=219) -->
    <g transform="translate(686.129659 132.24)scale(0.24 -0.24)">
     <use xlink:href="#ArialMT-97"/>
     <use x="55.615234" xlink:href="#ArialMT-52"/>
     <use x="111.230469" xlink:href="#ArialMT-95"/>
     <use x="166.845703" xlink:href="#ArialMT-52"/>
     <use x="222.460938" xlink:href="#ArialMT-99"/>
     <use x="272.460938" xlink:href="#ArialMT-111"/>
     <use x="328.076172" xlink:href="#ArialMT-108"/>
     <use x="350.292969" xlink:href="#ArialMT-111"/>
     <use x="405.908203" xlink:href="#ArialMT-114"/>
     <use x="439.208984" xlink:href="#ArialMT-95"/>
     <use x="494.824219" xlink:href="#ArialMT-115"/>
     <use x="544.824219" xlink:href="#ArialMT-112"/>
     <use x="600.439453" xlink:href="#ArialMT-104"/>
     <use x="656.054688" xlink:href="#ArialMT-101"/>
     <use x="711.669922" xlink:href="#ArialMT-114"/>
     <use x="744.970703" xlink:href="#ArialMT-101"/>
     <use x="800.585938" xlink:href="#ArialMT-53"/>
     <use x="856.201172" xlink:href="#ArialMT-32"/>
     <use x="883.984375" xlink:href="#ArialMT-40"/>
     <use x="917.285156" xlink:href="#ArialMT-110"/>
     <use x="972.900391" xlink:href="#ArialMT-61"/>
     <use x="1031.298828" xlink:href="#ArialMT-50"/>
     <use x="1086.914062" xlink:href="#ArialMT-49"/>
     <use x="1142.529297" xlink:href="#ArialMT-57"/>
     <use x="1198.144531" xlink:href="#ArialMT-41"/>
    </g>
   </g>
  </g>
  <g id="axes_3">
   <g id="patch_28">
    <path d="M 144 1025.28 
L 549.818182 1025.28 
L 549.818182 622.08 
L 144 622.08 
z
" style="fill:none;"/>
   </g>
   <g id="matplotlib.axis_5">
    <g id="xtick_9">
     <g id="line2d_27">
      <g>
       <use style="stroke:#000000;stroke-width:1.5;" x="162.446281" xlink:href="#m27377530bd" y="1025.28"/>
      </g>
     </g>
     <g id="text_31">
      <!-- 0 -->
      <g transform="translate(156.885343 1048.095625)scale(0.2 -0.2)">
       <use xlink:href="#ArialMT-48"/>
      </g>
     </g>
    </g>
    <g id="xtick_10">
     <g id="line2d_28">
      <g>
       <use style="stroke:#000000;stroke-width:1.5;" x="254.677686" xlink:href="#m27377530bd" y="1025.28"/>
      </g>
     </g>
     <g id="text_32">
      <!-- 5 -->
      <g transform="translate(249.116748 1048.095625)scale(0.2 -0.2)">
       <use xlink:href="#ArialMT-53"/>
      </g>
     </g>
    </g>
    <g id="xtick_11">
     <g id="line2d_29">
      <g>
       <use style="stroke:#000000;stroke-width:1.5;" x="346.909091" xlink:href="#m27377530bd" y="1025.28"/>
      </g>
     </g>
     <g id="text_33">
      <!-- 10 -->
      <g transform="translate(335.787216 1048.095625)scale(0.2 -0.2)">
       <use xlink:href="#ArialMT-49"/>
       <use x="55.615234" xlink:href="#ArialMT-48"/>
      </g>
     </g>
    </g>
    <g id="xtick_12">
     <g id="line2d_30">
      <g>
       <use style="stroke:#000000;stroke-width:1.5;" x="439.140496" xlink:href="#m27377530bd" y="1025.28"/>
      </g>
     </g>
     <g id="text_34">
      <!-- 15 -->
      <g transform="translate(428.018621 1048.095625)scale(0.2 -0.2)">
       <use xlink:href="#ArialMT-49"/>
       <use x="55.615234" xlink:href="#ArialMT-53"/>
      </g>
     </g>
    </g>
    <g id="xtick_13">
     <g id="line2d_31">
      <g>
       <use style="stroke:#000000;stroke-width:1.5;" x="531.371901" xlink:href="#m27377530bd" y="1025.28"/>
      </g>
     </g>
     <g id="text_35">
      <!-- 20 -->
      <g transform="translate(520.250026 1048.095625)scale(0.2 -0.2)">
       <use xlink:href="#ArialMT-50"/>
       <use x="55.615234" xlink:href="#ArialMT-48"/>
      </g>
     </g>
    </g>
    <g id="text_36">
     <!-- Number of green neighbors for green -->
     <defs>
      <path d="M 7.625 0 
L 7.625 71.578125 
L 17.328125 71.578125 
L 54.9375 15.375 
L 54.9375 71.578125 
L 64.015625 71.578125 
L 64.015625 0 
L 54.296875 0 
L 16.703125 56.25 
L 16.703125 0 
z
" id="ArialMT-78"/>
      <path d="M 6.59375 0 
L 6.59375 51.859375 
L 14.453125 51.859375 
L 14.453125 44.578125 
Q 16.890625 48.390625 20.9375 50.703125 
Q 25 53.03125 30.171875 53.03125 
Q 35.9375 53.03125 39.625 50.640625 
Q 43.3125 48.25 44.828125 43.953125 
Q 50.984375 53.03125 60.84375 53.03125 
Q 68.5625 53.03125 72.703125 48.75 
Q 76.859375 44.484375 76.859375 35.59375 
L 76.859375 0 
L 68.109375 0 
L 68.109375 32.671875 
Q 68.109375 37.9375 67.25 40.25 
Q 66.40625 42.578125 64.15625 43.984375 
Q 61.921875 45.40625 58.890625 45.40625 
Q 53.421875 45.40625 49.796875 41.765625 
Q 46.1875 38.140625 46.1875 30.125 
L 46.1875 0 
L 37.40625 0 
L 37.40625 33.6875 
Q 37.40625 39.546875 35.25 42.46875 
Q 33.109375 45.40625 28.21875 45.40625 
Q 24.515625 45.40625 21.359375 43.453125 
Q 18.21875 41.5 16.796875 37.734375 
Q 15.375 33.984375 15.375 26.90625 
L 15.375 0 
z
" id="ArialMT-109"/>
      <path d="M 14.703125 0 
L 6.546875 0 
L 6.546875 71.578125 
L 15.328125 71.578125 
L 15.328125 46.046875 
Q 20.90625 53.03125 29.546875 53.03125 
Q 34.328125 53.03125 38.59375 51.09375 
Q 42.875 49.171875 45.625 45.671875 
Q 48.390625 42.1875 49.953125 37.25 
Q 51.515625 32.328125 51.515625 26.703125 
Q 51.515625 13.375 44.921875 6.09375 
Q 38.328125 -1.171875 29.109375 -1.171875 
Q 19.921875 -1.171875 14.703125 6.5 
z
M 14.59375 26.3125 
Q 14.59375 17 17.140625 12.84375 
Q 21.296875 6.0625 28.375 6.0625 
Q 34.125 6.0625 38.328125 11.0625 
Q 42.53125 16.0625 42.53125 25.984375 
Q 42.53125 36.140625 38.5 40.96875 
Q 34.46875 45.796875 28.765625 45.796875 
Q 23 45.796875 18.796875 40.796875 
Q 14.59375 35.796875 14.59375 26.3125 
z
" id="ArialMT-98"/>
      <path d="M 8.6875 0 
L 8.6875 45.015625 
L 0.921875 45.015625 
L 0.921875 51.859375 
L 8.6875 51.859375 
L 8.6875 57.375 
Q 8.6875 62.59375 9.625 65.140625 
Q 10.890625 68.5625 14.078125 70.671875 
Q 17.28125 72.796875 23.046875 72.796875 
Q 26.765625 72.796875 31.25 71.921875 
L 29.9375 64.265625 
Q 27.203125 64.75 24.75 64.75 
Q 20.75 64.75 19.09375 63.03125 
Q 17.4375 61.328125 17.4375 56.640625 
L 17.4375 51.859375 
L 27.546875 51.859375 
L 27.546875 45.015625 
L 17.4375 45.015625 
L 17.4375 0 
z
" id="ArialMT-102"/>
     </defs>
     <g transform="translate(182.382528 1070.63)scale(0.2 -0.2)">
      <use xlink:href="#ArialMT-78"/>
      <use x="72.216797" xlink:href="#ArialMT-117"/>
      <use x="127.832031" xlink:href="#ArialMT-109"/>
      <use x="211.132812" xlink:href="#ArialMT-98"/>
      <use x="266.748047" xlink:href="#ArialMT-101"/>
      <use x="322.363281" xlink:href="#ArialMT-114"/>
      <use x="355.664062" xlink:href="#ArialMT-32"/>
      <use x="383.447266" xlink:href="#ArialMT-111"/>
      <use x="439.0625" xlink:href="#ArialMT-102"/>
      <use x="466.845703" xlink:href="#ArialMT-32"/>
      <use x="494.628906" xlink:href="#ArialMT-103"/>
      <use x="550.244141" xlink:href="#ArialMT-114"/>
      <use x="583.544922" xlink:href="#ArialMT-101"/>
      <use x="639.160156" xlink:href="#ArialMT-101"/>
      <use x="694.775391" xlink:href="#ArialMT-110"/>
      <use x="750.390625" xlink:href="#ArialMT-32"/>
      <use x="778.173828" xlink:href="#ArialMT-110"/>
      <use x="833.789062" xlink:href="#ArialMT-101"/>
      <use x="889.404297" xlink:href="#ArialMT-105"/>
      <use x="911.621094" xlink:href="#ArialMT-103"/>
      <use x="967.236328" xlink:href="#ArialMT-104"/>
      <use x="1022.851562" xlink:href="#ArialMT-98"/>
      <use x="1078.466797" xlink:href="#ArialMT-111"/>
      <use x="1134.082031" xlink:href="#ArialMT-114"/>
      <use x="1167.382812" xlink:href="#ArialMT-115"/>
      <use x="1217.382812" xlink:href="#ArialMT-32"/>
      <use x="1245.166016" xlink:href="#ArialMT-102"/>
      <use x="1272.949219" xlink:href="#ArialMT-111"/>
      <use x="1328.564453" xlink:href="#ArialMT-114"/>
      <use x="1361.865234" xlink:href="#ArialMT-32"/>
      <use x="1389.648438" xlink:href="#ArialMT-103"/>
      <use x="1445.263672" xlink:href="#ArialMT-114"/>
      <use x="1478.564453" xlink:href="#ArialMT-101"/>
      <use x="1534.179688" xlink:href="#ArialMT-101"/>
      <use x="1589.794922" xlink:href="#ArialMT-110"/>
     </g>
    </g>
   </g>
   <g id="matplotlib.axis_6">
    <g id="ytick_17">
     <g id="line2d_32">
      <g>
       <use style="stroke:#000000;stroke-width:1.5;" x="144" xlink:href="#m3b6d5d4d5b" y="1025.28"/>
      </g>
     </g>
     <g id="text_37">
      <!-- 0 -->
      <g transform="translate(124.378125 1032.437813)scale(0.2 -0.2)">
       <use xlink:href="#ArialMT-48"/>
      </g>
     </g>
    </g>
    <g id="ytick_18">
     <g id="line2d_33">
      <g>
       <use style="stroke:#000000;stroke-width:1.5;" x="144" xlink:href="#m3b6d5d4d5b" y="974.753684"/>
      </g>
     </g>
     <g id="text_38">
      <!-- 5 -->
      <g transform="translate(124.378125 981.911497)scale(0.2 -0.2)">
       <use xlink:href="#ArialMT-53"/>
      </g>
     </g>
    </g>
    <g id="ytick_19">
     <g id="line2d_34">
      <g>
       <use style="stroke:#000000;stroke-width:1.5;" x="144" xlink:href="#m3b6d5d4d5b" y="924.227368"/>
      </g>
     </g>
     <g id="text_39">
      <!-- 10 -->
      <g transform="translate(113.25625 931.385181)scale(0.2 -0.2)">
       <use xlink:href="#ArialMT-49"/>
       <use x="55.615234" xlink:href="#ArialMT-48"/>
      </g>
     </g>
    </g>
    <g id="ytick_20">
     <g id="line2d_35">
      <g>
       <use style="stroke:#000000;stroke-width:1.5;" x="144" xlink:href="#m3b6d5d4d5b" y="873.701053"/>
      </g>
     </g>
     <g id="text_40">
      <!-- 15 -->
      <g transform="translate(113.25625 880.858865)scale(0.2 -0.2)">
       <use xlink:href="#ArialMT-49"/>
       <use x="55.615234" xlink:href="#ArialMT-53"/>
      </g>
     </g>
    </g>
    <g id="ytick_21">
     <g id="line2d_36">
      <g>
       <use style="stroke:#000000;stroke-width:1.5;" x="144" xlink:href="#m3b6d5d4d5b" y="823.174737"/>
      </g>
     </g>
     <g id="text_41">
      <!-- 20 -->
      <g transform="translate(113.25625 830.332549)scale(0.2 -0.2)">
       <use xlink:href="#ArialMT-50"/>
       <use x="55.615234" xlink:href="#ArialMT-48"/>
      </g>
     </g>
    </g>
    <g id="ytick_22">
     <g id="line2d_37">
      <g>
       <use style="stroke:#000000;stroke-width:1.5;" x="144" xlink:href="#m3b6d5d4d5b" y="772.648421"/>
      </g>
     </g>
     <g id="text_42">
      <!-- 25 -->
      <g transform="translate(113.25625 779.806234)scale(0.2 -0.2)">
       <use xlink:href="#ArialMT-50"/>
       <use x="55.615234" xlink:href="#ArialMT-53"/>
      </g>
     </g>
    </g>
    <g id="ytick_23">
     <g id="line2d_38">
      <g>
       <use style="stroke:#000000;stroke-width:1.5;" x="144" xlink:href="#m3b6d5d4d5b" y="722.122105"/>
      </g>
     </g>
     <g id="text_43">
      <!-- 30 -->
      <g transform="translate(113.25625 729.279918)scale(0.2 -0.2)">
       <use xlink:href="#ArialMT-51"/>
       <use x="55.615234" xlink:href="#ArialMT-48"/>
      </g>
     </g>
    </g>
    <g id="ytick_24">
     <g id="line2d_39">
      <g>
       <use style="stroke:#000000;stroke-width:1.5;" x="144" xlink:href="#m3b6d5d4d5b" y="671.595789"/>
      </g>
     </g>
     <g id="text_44">
      <!-- 35 -->
      <g transform="translate(113.25625 678.753602)scale(0.2 -0.2)">
       <use xlink:href="#ArialMT-51"/>
       <use x="55.615234" xlink:href="#ArialMT-53"/>
      </g>
     </g>
    </g>
    <g id="text_45">
     <!-- Counts -->
     <g transform="translate(105.28125 855.362813)rotate(-90)scale(0.2 -0.2)">
      <use xlink:href="#ArialMT-67"/>
      <use x="72.216797" xlink:href="#ArialMT-111"/>
      <use x="127.832031" xlink:href="#ArialMT-117"/>
      <use x="183.447266" xlink:href="#ArialMT-110"/>
      <use x="239.0625" xlink:href="#ArialMT-116"/>
      <use x="266.845703" xlink:href="#ArialMT-115"/>
     </g>
    </g>
   </g>
   <g id="patch_29">
    <path clip-path="url(#p6696bc10e7)" d="M 165.213223 1025.28 
L 178.12562 1025.28 
L 178.12562 934.332632 
L 165.213223 934.332632 
z
" style="fill:#1f77b4;"/>
   </g>
   <g id="patch_30">
    <path clip-path="url(#p6696bc10e7)" d="M 183.659504 1025.28 
L 196.571901 1025.28 
L 196.571901 873.701053 
L 183.659504 873.701053 
z
" style="fill:#1f77b4;"/>
   </g>
   <g id="patch_31">
    <path clip-path="url(#p6696bc10e7)" d="M 202.105785 1025.28 
L 215.018182 1025.28 
L 215.018182 762.543158 
L 202.105785 762.543158 
z
" style="fill:#1f77b4;"/>
   </g>
   <g id="patch_32">
    <path clip-path="url(#p6696bc10e7)" d="M 220.552066 1025.28 
L 233.464463 1025.28 
L 233.464463 691.806316 
L 220.552066 691.806316 
z
" style="fill:#1f77b4;"/>
   </g>
   <g id="patch_33">
    <path clip-path="url(#p6696bc10e7)" d="M 238.998347 1025.28 
L 251.910744 1025.28 
L 251.910744 641.28 
L 238.998347 641.28 
z
" style="fill:#1f77b4;"/>
   </g>
   <g id="patch_34">
    <path clip-path="url(#p6696bc10e7)" d="M 257.444628 1025.28 
L 270.357025 1025.28 
L 270.357025 762.543158 
L 257.444628 762.543158 
z
" style="fill:#1f77b4;"/>
   </g>
   <g id="patch_35">
    <path clip-path="url(#p6696bc10e7)" d="M 275.890909 1025.28 
L 288.803306 1025.28 
L 288.803306 782.753684 
L 275.890909 782.753684 
z
" style="fill:#1f77b4;"/>
   </g>
   <g id="patch_36">
    <path clip-path="url(#p6696bc10e7)" d="M 294.33719 1025.28 
L 307.249587 1025.28 
L 307.249587 792.858947 
L 294.33719 792.858947 
z
" style="fill:#1f77b4;"/>
   </g>
   <g id="patch_37">
    <path clip-path="url(#p6696bc10e7)" d="M 312.783471 1025.28 
L 325.695868 1025.28 
L 325.695868 904.016842 
L 312.783471 904.016842 
z
" style="fill:#1f77b4;"/>
   </g>
   <g id="patch_38">
    <path clip-path="url(#p6696bc10e7)" d="M 331.229752 1025.28 
L 344.142149 1025.28 
L 344.142149 994.964211 
L 331.229752 994.964211 
z
" style="fill:#1f77b4;"/>
   </g>
   <g id="patch_39">
    <path clip-path="url(#p6696bc10e7)" d="M 349.676033 1025.28 
L 362.58843 1025.28 
L 362.58843 964.648421 
L 349.676033 964.648421 
z
" style="fill:#1f77b4;"/>
   </g>
   <g id="patch_40">
    <path clip-path="url(#p6696bc10e7)" d="M 368.122314 1025.28 
L 381.034711 1025.28 
L 381.034711 1005.069474 
L 368.122314 1005.069474 
z
" style="fill:#1f77b4;"/>
   </g>
   <g id="patch_41">
    <path clip-path="url(#p6696bc10e7)" d="M 386.568595 1025.28 
L 399.480992 1025.28 
L 399.480992 1005.069474 
L 386.568595 1005.069474 
z
" style="fill:#1f77b4;"/>
   </g>
   <g id="patch_42">
    <path clip-path="url(#p6696bc10e7)" d="M 405.014876 1025.28 
L 417.927273 1025.28 
L 417.927273 1025.28 
L 405.014876 1025.28 
z
" style="fill:#1f77b4;"/>
   </g>
   <g id="patch_43">
    <path clip-path="url(#p6696bc10e7)" d="M 423.461157 1025.28 
L 436.373554 1025.28 
L 436.373554 1025.28 
L 423.461157 1025.28 
z
" style="fill:#1f77b4;"/>
   </g>
   <g id="patch_44">
    <path clip-path="url(#p6696bc10e7)" d="M 441.907438 1025.28 
L 454.819835 1025.28 
L 454.819835 1025.28 
L 441.907438 1025.28 
z
" style="fill:#1f77b4;"/>
   </g>
   <g id="patch_45">
    <path clip-path="url(#p6696bc10e7)" d="M 460.353719 1025.28 
L 473.266116 1025.28 
L 473.266116 1025.28 
L 460.353719 1025.28 
z
" style="fill:#1f77b4;"/>
   </g>
   <g id="patch_46">
    <path clip-path="url(#p6696bc10e7)" d="M 478.8 1025.28 
L 491.712397 1025.28 
L 491.712397 1025.28 
L 478.8 1025.28 
z
" style="fill:#1f77b4;"/>
   </g>
   <g id="patch_47">
    <path clip-path="url(#p6696bc10e7)" d="M 497.246281 1025.28 
L 510.158678 1025.28 
L 510.158678 1025.28 
L 497.246281 1025.28 
z
" style="fill:#1f77b4;"/>
   </g>
   <g id="patch_48">
    <path clip-path="url(#p6696bc10e7)" d="M 515.692562 1025.28 
L 528.604959 1025.28 
L 528.604959 1025.28 
L 515.692562 1025.28 
z
" style="fill:#1f77b4;"/>
   </g>
   <g id="line2d_40">
    <path clip-path="url(#p6696bc10e7)" d="M 162.446281 892.414759 
L 166.172802 882.511703 
L 169.899324 872.485257 
L 173.625845 862.402625 
L 177.352367 852.334915 
L 181.078888 842.356231 
L 184.805409 832.542688 
L 188.531931 822.971362 
L 192.258452 813.719185 
L 195.984974 804.861836 
L 199.711495 796.472624 
L 203.438017 788.621418 
L 207.164538 781.373617 
L 210.891059 774.789213 
L 214.617581 768.921947 
L 218.344102 763.818579 
L 222.070624 759.5183 
L 225.797145 756.052273 
L 229.523666 753.443332 
L 233.250188 751.705818 
L 236.976709 750.845568 
L 240.703231 750.86004 
L 244.429752 751.738568 
L 248.156273 753.462727 
L 251.882795 756.006806 
L 255.609316 759.338366 
L 259.335838 763.418861 
L 263.062359 768.204314 
L 266.788881 773.646035 
L 270.515402 779.691356 
L 274.241923 786.284377 
L 277.968445 793.366714 
L 281.694966 800.87823 
L 285.421488 808.75776 
L 289.148009 816.943795 
L 292.87453 825.37515 
L 296.601052 833.991588 
L 300.327573 842.73441 
L 304.054095 851.546997 
L 307.780616 860.375313 
L 311.507137 869.168342 
L 315.233659 877.878486 
L 318.96018 886.461892 
L 322.686702 894.878719 
L 326.413223 903.093339 
L 330.139745 911.074471 
L 333.866266 918.795242 
L 337.592787 926.233181 
L 341.319309 933.370145 
L 345.04583 940.192184 
L 348.772352 946.68934 
L 352.498873 952.855409 
L 356.225394 958.687645 
L 359.951916 964.186441 
L 363.678437 969.35498 
L 367.404959 974.198878 
L 371.13148 978.725822 
L 374.858002 982.94521 
L 378.584523 986.86781 
L 382.311044 990.505443 
L 386.037566 993.870684 
L 389.764087 996.976607 
L 393.490609 999.836552 
L 397.21713 1002.463937 
L 400.943651 1004.872096 
L 404.670173 1007.074154 
L 408.396694 1009.082933 
L 412.123216 1010.910881 
L 415.849737 1012.57002 
L 419.576258 1014.071925 
L 423.30278 1015.427701 
L 427.029301 1016.647981 
L 430.755823 1017.742929 
L 434.482344 1018.722245 
L 438.208866 1019.595171 
L 441.935387 1020.370503 
L 445.661908 1021.056596 
L 449.38843 1021.661372 
L 453.114951 1022.192319 
L 456.841473 1022.656503 
L 460.567994 1023.060563 
L 464.294515 1023.410715 
L 468.021037 1023.712756 
L 471.747558 1023.972066 
L 475.47408 1024.193612 
L 479.200601 1024.381955 
L 482.927122 1024.541262 
L 486.653644 1024.675314 
L 490.380165 1024.787525 
L 494.106687 1024.880952 
L 497.833208 1024.958319 
L 501.55973 1025.022037 
L 505.286251 1025.074223 
L 509.012772 1025.116725 
L 512.739294 1025.151143 
L 516.465815 1025.178857 
L 520.192337 1025.201044 
L 523.918858 1025.218703 
L 527.645379 1025.232676 
L 531.371901 1025.243668 
" style="fill:none;stroke:#00bfbf;stroke-linecap:square;stroke-linejoin:miter;stroke-width:5;"/>
   </g>
   <g id="patch_49">
    <path d="M 144 1025.28 
L 144 622.08 
" style="fill:none;stroke:#000000;stroke-linecap:square;stroke-linejoin:miter;stroke-width:2;"/>
   </g>
   <g id="patch_50">
    <path d="M 144 1025.28 
L 549.818182 1025.28 
" style="fill:none;stroke:#000000;stroke-linecap:square;stroke-linejoin:miter;stroke-width:2;"/>
   </g>
   <g id="text_46">
    <!-- a4_4color_sphere5 (n=219) -->
    <g transform="translate(199.147841 616.08)scale(0.24 -0.24)">
     <use xlink:href="#ArialMT-97"/>
     <use x="55.615234" xlink:href="#ArialMT-52"/>
     <use x="111.230469" xlink:href="#ArialMT-95"/>
     <use x="166.845703" xlink:href="#ArialMT-52"/>
     <use x="222.460938" xlink:href="#ArialMT-99"/>
     <use x="272.460938" xlink:href="#ArialMT-111"/>
     <use x="328.076172" xlink:href="#ArialMT-108"/>
     <use x="350.292969" xlink:href="#ArialMT-111"/>
     <use x="405.908203" xlink:href="#ArialMT-114"/>
     <use x="439.208984" xlink:href="#ArialMT-95"/>
     <use x="494.824219" xlink:href="#ArialMT-115"/>
     <use x="544.824219" xlink:href="#ArialMT-112"/>
     <use x="600.439453" xlink:href="#ArialMT-104"/>
     <use x="656.054688" xlink:href="#ArialMT-101"/>
     <use x="711.669922" xlink:href="#ArialMT-114"/>
     <use x="744.970703" xlink:href="#ArialMT-101"/>
     <use x="800.585938" xlink:href="#ArialMT-53"/>
     <use x="856.201172" xlink:href="#ArialMT-32"/>
     <use x="883.984375" xlink:href="#ArialMT-40"/>
     <use x="917.285156" xlink:href="#ArialMT-110"/>
     <use x="972.900391" xlink:href="#ArialMT-61"/>
     <use x="1031.298828" xlink:href="#ArialMT-50"/>
     <use x="1086.914062" xlink:href="#ArialMT-49"/>
     <use x="1142.529297" xlink:href="#ArialMT-57"/>
     <use x="1198.144531" xlink:href="#ArialMT-41"/>
    </g>
   </g>
  </g>
  <g id="axes_4">
   <g id="patch_51">
    <path d="M 630.981818 1025.28 
L 1036.8 1025.28 
L 1036.8 622.08 
L 630.981818 622.08 
z
" style="fill:none;"/>
   </g>
   <g id="matplotlib.axis_7">
    <g id="xtick_14">
     <g id="line2d_41">
      <g>
       <use style="stroke:#000000;stroke-width:1.5;" x="649.428099" xlink:href="#m27377530bd" y="1025.28"/>
      </g>
     </g>
     <g id="text_47">
      <!-- 0 -->
      <g transform="translate(643.867162 1048.095625)scale(0.2 -0.2)">
       <use xlink:href="#ArialMT-48"/>
      </g>
     </g>
    </g>
    <g id="xtick_15">
     <g id="line2d_42">
      <g>
       <use style="stroke:#000000;stroke-width:1.5;" x="741.659504" xlink:href="#m27377530bd" y="1025.28"/>
      </g>
     </g>
     <g id="text_48">
      <!-- 5 -->
      <g transform="translate(736.098567 1048.095625)scale(0.2 -0.2)">
       <use xlink:href="#ArialMT-53"/>
      </g>
     </g>
    </g>
    <g id="xtick_16">
     <g id="line2d_43">
      <g>
       <use style="stroke:#000000;stroke-width:1.5;" x="833.890909" xlink:href="#m27377530bd" y="1025.28"/>
      </g>
     </g>
     <g id="text_49">
      <!-- 10 -->
      <g transform="translate(822.769034 1048.095625)scale(0.2 -0.2)">
       <use xlink:href="#ArialMT-49"/>
       <use x="55.615234" xlink:href="#ArialMT-48"/>
      </g>
     </g>
    </g>
    <g id="xtick_17">
     <g id="line2d_44">
      <g>
       <use style="stroke:#000000;stroke-width:1.5;" x="926.122314" xlink:href="#m27377530bd" y="1025.28"/>
      </g>
     </g>
     <g id="text_50">
      <!-- 15 -->
      <g transform="translate(915.000439 1048.095625)scale(0.2 -0.2)">
       <use xlink:href="#ArialMT-49"/>
       <use x="55.615234" xlink:href="#ArialMT-53"/>
      </g>
     </g>
    </g>
    <g id="xtick_18">
     <g id="line2d_45">
      <g>
       <use style="stroke:#000000;stroke-width:1.5;" x="1018.353719" xlink:href="#m27377530bd" y="1025.28"/>
      </g>
     </g>
     <g id="text_51">
      <!-- 20 -->
      <g transform="translate(1007.231844 1048.095625)scale(0.2 -0.2)">
       <use xlink:href="#ArialMT-50"/>
       <use x="55.615234" xlink:href="#ArialMT-48"/>
      </g>
     </g>
    </g>
    <g id="text_52">
     <!-- Number of red neighbors for green -->
     <g transform="translate(680.486222 1070.63)scale(0.2 -0.2)">
      <use xlink:href="#ArialMT-78"/>
      <use x="72.216797" xlink:href="#ArialMT-117"/>
      <use x="127.832031" xlink:href="#ArialMT-109"/>
      <use x="211.132812" xlink:href="#ArialMT-98"/>
      <use x="266.748047" xlink:href="#ArialMT-101"/>
      <use x="322.363281" xlink:href="#ArialMT-114"/>
      <use x="355.664062" xlink:href="#ArialMT-32"/>
      <use x="383.447266" xlink:href="#ArialMT-111"/>
      <use x="439.0625" xlink:href="#ArialMT-102"/>
      <use x="466.845703" xlink:href="#ArialMT-32"/>
      <use x="494.628906" xlink:href="#ArialMT-114"/>
      <use x="527.929688" xlink:href="#ArialMT-101"/>
      <use x="583.544922" xlink:href="#ArialMT-100"/>
      <use x="639.160156" xlink:href="#ArialMT-32"/>
      <use x="666.943359" xlink:href="#ArialMT-110"/>
      <use x="722.558594" xlink:href="#ArialMT-101"/>
      <use x="778.173828" xlink:href="#ArialMT-105"/>
      <use x="800.390625" xlink:href="#ArialMT-103"/>
      <use x="856.005859" xlink:href="#ArialMT-104"/>
      <use x="911.621094" xlink:href="#ArialMT-98"/>
      <use x="967.236328" xlink:href="#ArialMT-111"/>
      <use x="1022.851562" xlink:href="#ArialMT-114"/>
      <use x="1056.152344" xlink:href="#ArialMT-115"/>
      <use x="1106.152344" xlink:href="#ArialMT-32"/>
      <use x="1133.935547" xlink:href="#ArialMT-102"/>
      <use x="1161.71875" xlink:href="#ArialMT-111"/>
      <use x="1217.333984" xlink:href="#ArialMT-114"/>
      <use x="1250.634766" xlink:href="#ArialMT-32"/>
      <use x="1278.417969" xlink:href="#ArialMT-103"/>
      <use x="1334.033203" xlink:href="#ArialMT-114"/>
      <use x="1367.333984" xlink:href="#ArialMT-101"/>
      <use x="1422.949219" xlink:href="#ArialMT-101"/>
      <use x="1478.564453" xlink:href="#ArialMT-110"/>
     </g>
    </g>
   </g>
   <g id="matplotlib.axis_8">
    <g id="ytick_25">
     <g id="line2d_46">
      <g>
       <use style="stroke:#000000;stroke-width:1.5;" x="630.981818" xlink:href="#m3b6d5d4d5b" y="1025.28"/>
      </g>
     </g>
     <g id="text_53">
      <!-- 0 -->
      <g transform="translate(611.359943 1032.437813)scale(0.2 -0.2)">
       <use xlink:href="#ArialMT-48"/>
      </g>
     </g>
    </g>
    <g id="ytick_26">
     <g id="line2d_47">
      <g>
       <use style="stroke:#000000;stroke-width:1.5;" x="630.981818" xlink:href="#m3b6d5d4d5b" y="959.073103"/>
      </g>
     </g>
     <g id="text_54">
      <!-- 5 -->
      <g transform="translate(611.359943 966.230916)scale(0.2 -0.2)">
       <use xlink:href="#ArialMT-53"/>
      </g>
     </g>
    </g>
    <g id="ytick_27">
     <g id="line2d_48">
      <g>
       <use style="stroke:#000000;stroke-width:1.5;" x="630.981818" xlink:href="#m3b6d5d4d5b" y="892.866207"/>
      </g>
     </g>
     <g id="text_55">
      <!-- 10 -->
      <g transform="translate(600.238068 900.024019)scale(0.2 -0.2)">
       <use xlink:href="#ArialMT-49"/>
       <use x="55.615234" xlink:href="#ArialMT-48"/>
      </g>
     </g>
    </g>
    <g id="ytick_28">
     <g id="line2d_49">
      <g>
       <use style="stroke:#000000;stroke-width:1.5;" x="630.981818" xlink:href="#m3b6d5d4d5b" y="826.65931"/>
      </g>
     </g>
     <g id="text_56">
      <!-- 15 -->
      <g transform="translate(600.238068 833.817123)scale(0.2 -0.2)">
       <use xlink:href="#ArialMT-49"/>
       <use x="55.615234" xlink:href="#ArialMT-53"/>
      </g>
     </g>
    </g>
    <g id="ytick_29">
     <g id="line2d_50">
      <g>
       <use style="stroke:#000000;stroke-width:1.5;" x="630.981818" xlink:href="#m3b6d5d4d5b" y="760.452414"/>
      </g>
     </g>
     <g id="text_57">
      <!-- 20 -->
      <g transform="translate(600.238068 767.610226)scale(0.2 -0.2)">
       <use xlink:href="#ArialMT-50"/>
       <use x="55.615234" xlink:href="#ArialMT-48"/>
      </g>
     </g>
    </g>
    <g id="ytick_30">
     <g id="line2d_51">
      <g>
       <use style="stroke:#000000;stroke-width:1.5;" x="630.981818" xlink:href="#m3b6d5d4d5b" y="694.245517"/>
      </g>
     </g>
     <g id="text_58">
      <!-- 25 -->
      <g transform="translate(600.238068 701.40333)scale(0.2 -0.2)">
       <use xlink:href="#ArialMT-50"/>
       <use x="55.615234" xlink:href="#ArialMT-53"/>
      </g>
     </g>
    </g>
    <g id="ytick_31">
     <g id="line2d_52">
      <g>
       <use style="stroke:#000000;stroke-width:1.5;" x="630.981818" xlink:href="#m3b6d5d4d5b" y="628.038621"/>
      </g>
     </g>
     <g id="text_59">
      <!-- 30 -->
      <g transform="translate(600.238068 635.196433)scale(0.2 -0.2)">
       <use xlink:href="#ArialMT-51"/>
       <use x="55.615234" xlink:href="#ArialMT-48"/>
      </g>
     </g>
    </g>
    <g id="text_60">
     <!-- Counts -->
     <g transform="translate(592.263068 855.362813)rotate(-90)scale(0.2 -0.2)">
      <use xlink:href="#ArialMT-67"/>
      <use x="72.216797" xlink:href="#ArialMT-111"/>
      <use x="127.832031" xlink:href="#ArialMT-117"/>
      <use x="183.447266" xlink:href="#ArialMT-110"/>
      <use x="239.0625" xlink:href="#ArialMT-116"/>
      <use x="266.845703" xlink:href="#ArialMT-115"/>
     </g>
    </g>
   </g>
   <g id="patch_52">
    <path clip-path="url(#p992b984516)" d="M 652.195041 1025.28 
L 665.107438 1025.28 
L 665.107438 786.935172 
L 652.195041 786.935172 
z
" style="fill:#1f77b4;"/>
   </g>
   <g id="patch_53">
    <path clip-path="url(#p992b984516)" d="M 670.641322 1025.28 
L 683.553719 1025.28 
L 683.553719 866.383448 
L 670.641322 866.383448 
z
" style="fill:#1f77b4;"/>
   </g>
   <g id="patch_54">
    <path clip-path="url(#p992b984516)" d="M 689.087603 1025.28 
L 702 1025.28 
L 702 786.935172 
L 689.087603 786.935172 
z
" style="fill:#1f77b4;"/>
   </g>
   <g id="patch_55">
    <path clip-path="url(#p992b984516)" d="M 707.533884 1025.28 
L 720.446281 1025.28 
L 720.446281 694.245517 
L 707.533884 694.245517 
z
" style="fill:#1f77b4;"/>
   </g>
   <g id="patch_56">
    <path clip-path="url(#p992b984516)" d="M 725.980165 1025.28 
L 738.892562 1025.28 
L 738.892562 667.762759 
L 725.980165 667.762759 
z
" style="fill:#1f77b4;"/>
   </g>
   <g id="patch_57">
    <path clip-path="url(#p992b984516)" d="M 744.426446 1025.28 
L 757.338843 1025.28 
L 757.338843 641.28 
L 744.426446 641.28 
z
" style="fill:#1f77b4;"/>
   </g>
   <g id="patch_58">
    <path clip-path="url(#p992b984516)" d="M 762.872727 1025.28 
L 775.785124 1025.28 
L 775.785124 786.935172 
L 762.872727 786.935172 
z
" style="fill:#1f77b4;"/>
   </g>
   <g id="patch_59">
    <path clip-path="url(#p992b984516)" d="M 781.319008 1025.28 
L 794.231405 1025.28 
L 794.231405 694.245517 
L 781.319008 694.245517 
z
" style="fill:#1f77b4;"/>
   </g>
   <g id="patch_60">
    <path clip-path="url(#p992b984516)" d="M 799.765289 1025.28 
L 812.677686 1025.28 
L 812.677686 786.935172 
L 799.765289 786.935172 
z
" style="fill:#1f77b4;"/>
   </g>
   <g id="patch_61">
    <path clip-path="url(#p992b984516)" d="M 818.21157 1025.28 
L 831.123967 1025.28 
L 831.123967 826.65931 
L 818.21157 826.65931 
z
" style="fill:#1f77b4;"/>
   </g>
   <g id="patch_62">
    <path clip-path="url(#p992b984516)" d="M 836.657851 1025.28 
L 849.570248 1025.28 
L 849.570248 959.073103 
L 836.657851 959.073103 
z
" style="fill:#1f77b4;"/>
   </g>
   <g id="patch_63">
    <path clip-path="url(#p992b984516)" d="M 855.104132 1025.28 
L 868.016529 1025.28 
L 868.016529 959.073103 
L 855.104132 959.073103 
z
" style="fill:#1f77b4;"/>
   </g>
   <g id="patch_64">
    <path clip-path="url(#p992b984516)" d="M 873.550413 1025.28 
L 886.46281 1025.28 
L 886.46281 985.555862 
L 873.550413 985.555862 
z
" style="fill:#1f77b4;"/>
   </g>
   <g id="patch_65">
    <path clip-path="url(#p992b984516)" d="M 891.996694 1025.28 
L 904.909091 1025.28 
L 904.909091 1012.038621 
L 891.996694 1012.038621 
z
" style="fill:#1f77b4;"/>
   </g>
   <g id="patch_66">
    <path clip-path="url(#p992b984516)" d="M 910.442975 1025.28 
L 923.355372 1025.28 
L 923.355372 1025.28 
L 910.442975 1025.28 
z
" style="fill:#1f77b4;"/>
   </g>
   <g id="patch_67">
    <path clip-path="url(#p992b984516)" d="M 928.889256 1025.28 
L 941.801653 1025.28 
L 941.801653 1025.28 
L 928.889256 1025.28 
z
" style="fill:#1f77b4;"/>
   </g>
   <g id="patch_68">
    <path clip-path="url(#p992b984516)" d="M 947.335537 1025.28 
L 960.247934 1025.28 
L 960.247934 1025.28 
L 947.335537 1025.28 
z
" style="fill:#1f77b4;"/>
   </g>
   <g id="patch_69">
    <path clip-path="url(#p992b984516)" d="M 965.781818 1025.28 
L 978.694215 1025.28 
L 978.694215 1025.28 
L 965.781818 1025.28 
z
" style="fill:#1f77b4;"/>
   </g>
   <g id="patch_70">
    <path clip-path="url(#p992b984516)" d="M 984.228099 1025.28 
L 997.140496 1025.28 
L 997.140496 1025.28 
L 984.228099 1025.28 
z
" style="fill:#1f77b4;"/>
   </g>
   <g id="patch_71">
    <path clip-path="url(#p992b984516)" d="M 1002.67438 1025.28 
L 1015.586777 1025.28 
L 1015.586777 1025.28 
L 1002.67438 1025.28 
z
" style="fill:#1f77b4;"/>
   </g>
   <g id="line2d_53">
    <path clip-path="url(#p992b984516)" d="M 649.428099 860.818592 
L 653.154621 851.895757 
L 656.881142 842.969176 
L 660.607663 834.079013 
L 664.334185 825.266227 
L 668.060706 816.572247 
L 671.787228 808.038642 
L 675.513749 799.706788 
L 679.24027 791.617542 
L 682.966792 783.810922 
L 686.693313 776.325796 
L 690.419835 769.199586 
L 694.146356 762.467986 
L 697.872878 756.1647 
L 701.599399 750.321197 
L 705.32592 744.966493 
L 709.052442 740.126952 
L 712.778963 735.826113 
L 716.505485 732.084543 
L 720.232006 728.919717 
L 723.958527 726.345921 
L 727.685049 724.374183 
L 731.41157 723.012236 
L 735.138092 722.26449 
L 738.864613 722.132051 
L 742.591134 722.612741 
L 746.317656 723.701158 
L 750.044177 725.388746 
L 753.770699 727.663888 
L 757.49722 730.51202 
L 761.223742 733.915758 
L 764.950263 737.855043 
L 768.676784 742.307302 
L 772.403306 747.247615 
L 776.129827 752.648909 
L 779.856349 758.482148 
L 783.58287 764.716544 
L 787.309391 771.319775 
L 791.035913 778.258212 
L 794.762434 785.497153 
L 798.488956 793.001066 
L 802.215477 800.733835 
L 805.941998 808.659012 
L 809.66852 816.74007 
L 813.395041 824.940654 
L 817.121563 833.224834 
L 820.848084 841.557348 
L 824.574606 849.903843 
L 828.301127 858.231098 
L 832.027648 866.507244 
L 835.75417 874.701956 
L 839.480691 882.78664 
L 843.207213 890.734588 
L 846.933734 898.521116 
L 850.660255 906.123676 
L 854.386777 913.521946 
L 858.113298 920.697887 
L 861.83982 927.635781 
L 865.566341 934.322237 
L 869.292863 940.746177 
L 873.019384 946.898795 
L 876.745905 952.773491 
L 880.472427 958.365794 
L 884.198948 963.673256 
L 887.92547 968.69534 
L 891.651991 973.433288 
L 895.378512 977.889982 
L 899.105034 982.069802 
L 902.831555 985.978468 
L 906.558077 989.622893 
L 910.284598 993.011027 
L 914.011119 996.151705 
L 917.737641 999.054499 
L 921.464162 1001.729579 
L 925.190684 1004.187574 
L 928.917205 1006.439445 
L 932.643727 1008.49637 
L 936.370248 1010.369627 
L 940.096769 1012.0705 
L 943.823291 1013.610184 
L 947.549812 1014.999705 
L 951.276334 1016.249853 
L 955.002855 1017.371113 
L 958.729376 1018.373618 
L 962.455898 1019.267106 
L 966.182419 1020.060878 
L 969.908941 1020.763778 
L 973.635462 1021.384169 
L 977.361983 1021.929923 
L 981.088505 1022.408408 
L 984.815026 1022.826495 
L 988.541548 1023.190554 
L 992.268069 1023.50647 
L 995.994591 1023.779647 
L 999.721112 1024.015031 
L 1003.447633 1024.217125 
L 1007.174155 1024.39001 
L 1010.900676 1024.537367 
L 1014.627198 1024.662504 
L 1018.353719 1024.768376 
" style="fill:none;stroke:#00bfbf;stroke-linecap:square;stroke-linejoin:miter;stroke-width:5;"/>
   </g>
   <g id="patch_72">
    <path d="M 630.981818 1025.28 
L 630.981818 622.08 
" style="fill:none;stroke:#000000;stroke-linecap:square;stroke-linejoin:miter;stroke-width:2;"/>
   </g>
   <g id="patch_73">
    <path d="M 630.981818 1025.28 
L 1036.8 1025.28 
" style="fill:none;stroke:#000000;stroke-linecap:square;stroke-linejoin:miter;stroke-width:2;"/>
   </g>
   <g id="text_61">
    <!-- a4_4color_sphere5 (n=219) -->
    <g transform="translate(686.129659 616.08)scale(0.24 -0.24)">
     <use xlink:href="#ArialMT-97"/>
     <use x="55.615234" xlink:href="#ArialMT-52"/>
     <use x="111.230469" xlink:href="#ArialMT-95"/>
     <use x="166.845703" xlink:href="#ArialMT-52"/>
     <use x="222.460938" xlink:href="#ArialMT-99"/>
     <use x="272.460938" xlink:href="#ArialMT-111"/>
     <use x="328.076172" xlink:href="#ArialMT-108"/>
     <use x="350.292969" xlink:href="#ArialMT-111"/>
     <use x="405.908203" xlink:href="#ArialMT-114"/>
     <use x="439.208984" xlink:href="#ArialMT-95"/>
     <use x="494.824219" xlink:href="#ArialMT-115"/>
     <use x="544.824219" xlink:href="#ArialMT-112"/>
     <use x="600.439453" xlink:href="#ArialMT-104"/>
     <use x="656.054688" xlink:href="#ArialMT-101"/>
     <use x="711.669922" xlink:href="#ArialMT-114"/>
     <use x="744.970703" xlink:href="#ArialMT-101"/>
     <use x="800.585938" xlink:href="#ArialMT-53"/>
     <use x="856.201172" xlink:href="#ArialMT-32"/>
     <use x="883.984375" xlink:href="#ArialMT-40"/>
     <use x="917.285156" xlink:href="#ArialMT-110"/>
     <use x="972.900391" xlink:href="#ArialMT-61"/>
     <use x="1031.298828" xlink:href="#ArialMT-50"/>
     <use x="1086.914062" xlink:href="#ArialMT-49"/>
     <use x="1142.529297" xlink:href="#ArialMT-57"/>
     <use x="1198.144531" xlink:href="#ArialMT-41"/>
    </g>
   </g>
  </g>
 </g>
 <defs>
  <clipPath id="pd57974f26b">
   <rect height="403.2" width="405.818182" x="144" y="138.24"/>
  </clipPath>
  <clipPath id="p62575199d6">
   <rect height="403.2" width="405.818182" x="630.981818" y="138.24"/>
  </clipPath>
  <clipPath id="p6696bc10e7">
   <rect height="403.2" width="405.818182" x="144" y="622.08"/>
  </clipPath>
  <clipPath id="p992b984516">
   <rect height="403.2" width="405.818182" x="630.981818" y="622.08"/>
  </clipPath>
 </defs>
</svg>
