<?xml version="1.0" encoding="utf-8" standalone="no"?>
<!DOCTYPE svg PUBLIC "-//W3C//DTD SVG 1.1//EN"
  "http://www.w3.org/Graphics/SVG/1.1/DTD/svg11.dtd">
<!-- Created with matplotlib (https://matplotlib.org/) -->
<svg height="1152pt" version="1.1" viewBox="0 0 1152 1152" width="1152pt" xmlns="http://www.w3.org/2000/svg" xmlns:xlink="http://www.w3.org/1999/xlink">
 <defs>
  <style type="text/css">
*{stroke-linecap:butt;stroke-linejoin:round;}
  </style>
 </defs>
 <g id="figure_1">
  <g id="patch_1">
   <path d="M 0 1152 
L 1152 1152 
L 1152 0 
L 0 0 
z
" style="fill:none;"/>
  </g>
  <g id="axes_1">
   <g id="patch_2">
    <path d="M 144 541.44 
L 549.818182 541.44 
L 549.818182 138.24 
L 144 138.24 
z
" style="fill:none;"/>
   </g>
   <g id="matplotlib.axis_1">
    <g id="xtick_1">
     <g id="line2d_1">
      <defs>
       <path d="M 0 0 
L 0 5 
" id="mfa39e15068" style="stroke:#000000;stroke-width:1.5;"/>
      </defs>
      <g>
       <use style="stroke:#000000;stroke-width:1.5;" x="162.446281" xlink:href="#mfa39e15068" y="541.44"/>
      </g>
     </g>
     <g id="text_1">
      <!-- 0 -->
      <defs>
       <path d="M 4.15625 35.296875 
Q 4.15625 48 6.765625 55.734375 
Q 9.375 63.484375 14.515625 67.671875 
Q 19.671875 71.875 27.484375 71.875 
Q 33.25 71.875 37.59375 69.546875 
Q 41.9375 67.234375 44.765625 62.859375 
Q 47.609375 58.5 49.21875 52.21875 
Q 50.828125 45.953125 50.828125 35.296875 
Q 50.828125 22.703125 48.234375 14.96875 
Q 45.65625 7.234375 40.5 3 
Q 35.359375 -1.21875 27.484375 -1.21875 
Q 17.140625 -1.21875 11.234375 6.203125 
Q 4.15625 15.140625 4.15625 35.296875 
z
M 13.1875 35.296875 
Q 13.1875 17.671875 17.3125 11.828125 
Q 21.4375 6 27.484375 6 
Q 33.546875 6 37.671875 11.859375 
Q 41.796875 17.71875 41.796875 35.296875 
Q 41.796875 52.984375 37.671875 58.78125 
Q 33.546875 64.59375 27.390625 64.59375 
Q 21.34375 64.59375 17.71875 59.46875 
Q 13.1875 52.9375 13.1875 35.296875 
z
" id="ArialMT-48"/>
      </defs>
      <g transform="translate(156.885343 564.255625)scale(0.2 -0.2)">
       <use xlink:href="#ArialMT-48"/>
      </g>
     </g>
    </g>
    <g id="xtick_2">
     <g id="line2d_2">
      <g>
       <use style="stroke:#000000;stroke-width:1.5;" x="285.421488" xlink:href="#mfa39e15068" y="541.44"/>
      </g>
     </g>
     <g id="text_2">
      <!-- 10 -->
      <defs>
       <path d="M 37.25 0 
L 28.46875 0 
L 28.46875 56 
Q 25.296875 52.984375 20.140625 49.953125 
Q 14.984375 46.921875 10.890625 45.40625 
L 10.890625 53.90625 
Q 18.265625 57.375 23.78125 62.296875 
Q 29.296875 67.234375 31.59375 71.875 
L 37.25 71.875 
z
" id="ArialMT-49"/>
      </defs>
      <g transform="translate(274.299613 564.255625)scale(0.2 -0.2)">
       <use xlink:href="#ArialMT-49"/>
       <use x="55.615234" xlink:href="#ArialMT-48"/>
      </g>
     </g>
    </g>
    <g id="xtick_3">
     <g id="line2d_3">
      <g>
       <use style="stroke:#000000;stroke-width:1.5;" x="408.396694" xlink:href="#mfa39e15068" y="541.44"/>
      </g>
     </g>
     <g id="text_3">
      <!-- 20 -->
      <defs>
       <path d="M 50.34375 8.453125 
L 50.34375 0 
L 3.03125 0 
Q 2.9375 3.171875 4.046875 6.109375 
Q 5.859375 10.9375 9.828125 15.625 
Q 13.8125 20.3125 21.34375 26.46875 
Q 33.015625 36.03125 37.109375 41.625 
Q 41.21875 47.21875 41.21875 52.203125 
Q 41.21875 57.421875 37.46875 61 
Q 33.734375 64.59375 27.734375 64.59375 
Q 21.390625 64.59375 17.578125 60.78125 
Q 13.765625 56.984375 13.71875 50.25 
L 4.6875 51.171875 
Q 5.609375 61.28125 11.65625 66.578125 
Q 17.71875 71.875 27.9375 71.875 
Q 38.234375 71.875 44.234375 66.15625 
Q 50.25 60.453125 50.25 52 
Q 50.25 47.703125 48.484375 43.546875 
Q 46.734375 39.40625 42.65625 34.8125 
Q 38.578125 30.21875 29.109375 22.21875 
Q 21.1875 15.578125 18.9375 13.203125 
Q 16.703125 10.84375 15.234375 8.453125 
z
" id="ArialMT-50"/>
      </defs>
      <g transform="translate(397.274819 564.255625)scale(0.2 -0.2)">
       <use xlink:href="#ArialMT-50"/>
       <use x="55.615234" xlink:href="#ArialMT-48"/>
      </g>
     </g>
    </g>
    <g id="xtick_4">
     <g id="line2d_4">
      <g>
       <use style="stroke:#000000;stroke-width:1.5;" x="531.371901" xlink:href="#mfa39e15068" y="541.44"/>
      </g>
     </g>
     <g id="text_4">
      <!-- 30 -->
      <defs>
       <path d="M 4.203125 18.890625 
L 12.984375 20.0625 
Q 14.5 12.59375 18.140625 9.296875 
Q 21.78125 6 27 6 
Q 33.203125 6 37.46875 10.296875 
Q 41.75 14.59375 41.75 20.953125 
Q 41.75 27 37.796875 30.921875 
Q 33.84375 34.859375 27.734375 34.859375 
Q 25.25 34.859375 21.53125 33.890625 
L 22.515625 41.609375 
Q 23.390625 41.5 23.921875 41.5 
Q 29.546875 41.5 34.03125 44.421875 
Q 38.53125 47.359375 38.53125 53.46875 
Q 38.53125 58.296875 35.25 61.46875 
Q 31.984375 64.65625 26.8125 64.65625 
Q 21.6875 64.65625 18.265625 61.421875 
Q 14.84375 58.203125 13.875 51.765625 
L 5.078125 53.328125 
Q 6.6875 62.15625 12.390625 67.015625 
Q 18.109375 71.875 26.609375 71.875 
Q 32.46875 71.875 37.390625 69.359375 
Q 42.328125 66.84375 44.9375 62.5 
Q 47.5625 58.15625 47.5625 53.265625 
Q 47.5625 48.640625 45.0625 44.828125 
Q 42.578125 41.015625 37.703125 38.765625 
Q 44.046875 37.3125 47.5625 32.6875 
Q 51.078125 28.078125 51.078125 21.140625 
Q 51.078125 11.765625 44.234375 5.25 
Q 37.40625 -1.265625 26.953125 -1.265625 
Q 17.53125 -1.265625 11.296875 4.34375 
Q 5.078125 9.96875 4.203125 18.890625 
z
" id="ArialMT-51"/>
      </defs>
      <g transform="translate(520.250026 564.255625)scale(0.2 -0.2)">
       <use xlink:href="#ArialMT-51"/>
       <use x="55.615234" xlink:href="#ArialMT-48"/>
      </g>
     </g>
    </g>
    <g id="text_5">
     <!-- Distance red to green cell -->
     <defs>
      <path d="M 7.71875 0 
L 7.71875 71.578125 
L 32.375 71.578125 
Q 40.71875 71.578125 45.125 70.5625 
Q 51.265625 69.140625 55.609375 65.4375 
Q 61.28125 60.640625 64.078125 53.1875 
Q 66.890625 45.75 66.890625 36.1875 
Q 66.890625 28.03125 64.984375 21.734375 
Q 63.09375 15.4375 60.109375 11.296875 
Q 57.125 7.171875 53.578125 4.796875 
Q 50.046875 2.4375 45.046875 1.21875 
Q 40.046875 0 33.546875 0 
z
M 17.1875 8.453125 
L 32.46875 8.453125 
Q 39.546875 8.453125 43.578125 9.765625 
Q 47.609375 11.078125 50 13.484375 
Q 53.375 16.84375 55.25 22.53125 
Q 57.125 28.21875 57.125 36.328125 
Q 57.125 47.5625 53.4375 53.59375 
Q 49.75 59.625 44.484375 61.671875 
Q 40.671875 63.140625 32.234375 63.140625 
L 17.1875 63.140625 
z
" id="ArialMT-68"/>
      <path d="M 6.640625 61.46875 
L 6.640625 71.578125 
L 15.4375 71.578125 
L 15.4375 61.46875 
z
M 6.640625 0 
L 6.640625 51.859375 
L 15.4375 51.859375 
L 15.4375 0 
z
" id="ArialMT-105"/>
      <path d="M 3.078125 15.484375 
L 11.765625 16.84375 
Q 12.5 11.625 15.84375 8.84375 
Q 19.1875 6.0625 25.203125 6.0625 
Q 31.25 6.0625 34.171875 8.515625 
Q 37.109375 10.984375 37.109375 14.3125 
Q 37.109375 17.28125 34.515625 19 
Q 32.71875 20.171875 25.53125 21.96875 
Q 15.875 24.421875 12.140625 26.203125 
Q 8.40625 27.984375 6.46875 31.125 
Q 4.546875 34.28125 4.546875 38.09375 
Q 4.546875 41.546875 6.125 44.5 
Q 7.71875 47.46875 10.453125 49.421875 
Q 12.5 50.921875 16.03125 51.96875 
Q 19.578125 53.03125 23.640625 53.03125 
Q 29.734375 53.03125 34.34375 51.265625 
Q 38.96875 49.515625 41.15625 46.5 
Q 43.359375 43.5 44.1875 38.484375 
L 35.59375 37.3125 
Q 35.015625 41.3125 32.203125 43.546875 
Q 29.390625 45.796875 24.265625 45.796875 
Q 18.21875 45.796875 15.625 43.796875 
Q 13.03125 41.796875 13.03125 39.109375 
Q 13.03125 37.40625 14.109375 36.03125 
Q 15.1875 34.625 17.484375 33.6875 
Q 18.796875 33.203125 25.25 31.453125 
Q 34.578125 28.953125 38.25 27.359375 
Q 41.9375 25.78125 44.03125 22.75 
Q 46.140625 19.734375 46.140625 15.234375 
Q 46.140625 10.84375 43.578125 6.953125 
Q 41.015625 3.078125 36.171875 0.953125 
Q 31.34375 -1.171875 25.25 -1.171875 
Q 15.140625 -1.171875 9.84375 3.03125 
Q 4.546875 7.234375 3.078125 15.484375 
z
" id="ArialMT-115"/>
      <path d="M 25.78125 7.859375 
L 27.046875 0.09375 
Q 23.34375 -0.6875 20.40625 -0.6875 
Q 15.625 -0.6875 12.984375 0.828125 
Q 10.359375 2.34375 9.28125 4.8125 
Q 8.203125 7.28125 8.203125 15.1875 
L 8.203125 45.015625 
L 1.765625 45.015625 
L 1.765625 51.859375 
L 8.203125 51.859375 
L 8.203125 64.703125 
L 16.9375 69.96875 
L 16.9375 51.859375 
L 25.78125 51.859375 
L 25.78125 45.015625 
L 16.9375 45.015625 
L 16.9375 14.703125 
Q 16.9375 10.9375 17.40625 9.859375 
Q 17.875 8.796875 18.921875 8.15625 
Q 19.96875 7.515625 21.921875 7.515625 
Q 23.390625 7.515625 25.78125 7.859375 
z
" id="ArialMT-116"/>
      <path d="M 40.4375 6.390625 
Q 35.546875 2.25 31.03125 0.53125 
Q 26.515625 -1.171875 21.34375 -1.171875 
Q 12.796875 -1.171875 8.203125 3 
Q 3.609375 7.171875 3.609375 13.671875 
Q 3.609375 17.484375 5.34375 20.625 
Q 7.078125 23.78125 9.890625 25.6875 
Q 12.703125 27.59375 16.21875 28.5625 
Q 18.796875 29.25 24.03125 29.890625 
Q 34.671875 31.15625 39.703125 32.90625 
Q 39.75 34.71875 39.75 35.203125 
Q 39.75 40.578125 37.25 42.78125 
Q 33.890625 45.75 27.25 45.75 
Q 21.046875 45.75 18.09375 43.578125 
Q 15.140625 41.40625 13.71875 35.890625 
L 5.125 37.0625 
Q 6.296875 42.578125 8.984375 45.96875 
Q 11.671875 49.359375 16.75 51.1875 
Q 21.828125 53.03125 28.515625 53.03125 
Q 35.15625 53.03125 39.296875 51.46875 
Q 43.453125 49.90625 45.40625 47.53125 
Q 47.359375 45.171875 48.140625 41.546875 
Q 48.578125 39.3125 48.578125 33.453125 
L 48.578125 21.734375 
Q 48.578125 9.46875 49.140625 6.21875 
Q 49.703125 2.984375 51.375 0 
L 42.1875 0 
Q 40.828125 2.734375 40.4375 6.390625 
z
M 39.703125 26.03125 
Q 34.90625 24.078125 25.34375 22.703125 
Q 19.921875 21.921875 17.671875 20.9375 
Q 15.4375 19.96875 14.203125 18.09375 
Q 12.984375 16.21875 12.984375 13.921875 
Q 12.984375 10.40625 15.640625 8.0625 
Q 18.3125 5.71875 23.4375 5.71875 
Q 28.515625 5.71875 32.46875 7.9375 
Q 36.421875 10.15625 38.28125 14.015625 
Q 39.703125 17 39.703125 22.796875 
z
" id="ArialMT-97"/>
      <path d="M 6.59375 0 
L 6.59375 51.859375 
L 14.5 51.859375 
L 14.5 44.484375 
Q 20.21875 53.03125 31 53.03125 
Q 35.6875 53.03125 39.625 51.34375 
Q 43.5625 49.65625 45.515625 46.921875 
Q 47.46875 44.1875 48.25 40.4375 
Q 48.734375 37.984375 48.734375 31.890625 
L 48.734375 0 
L 39.9375 0 
L 39.9375 31.546875 
Q 39.9375 36.921875 38.90625 39.578125 
Q 37.890625 42.234375 35.28125 43.8125 
Q 32.671875 45.40625 29.15625 45.40625 
Q 23.53125 45.40625 19.453125 41.84375 
Q 15.375 38.28125 15.375 28.328125 
L 15.375 0 
z
" id="ArialMT-110"/>
      <path d="M 40.4375 19 
L 49.078125 17.875 
Q 47.65625 8.9375 41.8125 3.875 
Q 35.984375 -1.171875 27.484375 -1.171875 
Q 16.84375 -1.171875 10.375 5.78125 
Q 3.90625 12.75 3.90625 25.734375 
Q 3.90625 34.125 6.6875 40.421875 
Q 9.46875 46.734375 15.15625 49.875 
Q 20.84375 53.03125 27.546875 53.03125 
Q 35.984375 53.03125 41.359375 48.75 
Q 46.734375 44.484375 48.25 36.625 
L 39.703125 35.296875 
Q 38.484375 40.53125 35.375 43.15625 
Q 32.28125 45.796875 27.875 45.796875 
Q 21.234375 45.796875 17.078125 41.03125 
Q 12.9375 36.28125 12.9375 25.984375 
Q 12.9375 15.53125 16.9375 10.796875 
Q 20.953125 6.0625 27.390625 6.0625 
Q 32.5625 6.0625 36.03125 9.234375 
Q 39.5 12.40625 40.4375 19 
z
" id="ArialMT-99"/>
      <path d="M 42.09375 16.703125 
L 51.171875 15.578125 
Q 49.03125 7.625 43.21875 3.21875 
Q 37.40625 -1.171875 28.375 -1.171875 
Q 17 -1.171875 10.328125 5.828125 
Q 3.65625 12.84375 3.65625 25.484375 
Q 3.65625 38.578125 10.390625 45.796875 
Q 17.140625 53.03125 27.875 53.03125 
Q 38.28125 53.03125 44.875 45.953125 
Q 51.46875 38.875 51.46875 26.03125 
Q 51.46875 25.25 51.421875 23.6875 
L 12.75 23.6875 
Q 13.234375 15.140625 17.578125 10.59375 
Q 21.921875 6.0625 28.421875 6.0625 
Q 33.25 6.0625 36.671875 8.59375 
Q 40.09375 11.140625 42.09375 16.703125 
z
M 13.234375 30.90625 
L 42.1875 30.90625 
Q 41.609375 37.453125 38.875 40.71875 
Q 34.671875 45.796875 27.984375 45.796875 
Q 21.921875 45.796875 17.796875 41.75 
Q 13.671875 37.703125 13.234375 30.90625 
z
" id="ArialMT-101"/>
      <path id="ArialMT-32"/>
      <path d="M 6.5 0 
L 6.5 51.859375 
L 14.40625 51.859375 
L 14.40625 44 
Q 17.4375 49.515625 20 51.265625 
Q 22.5625 53.03125 25.640625 53.03125 
Q 30.078125 53.03125 34.671875 50.203125 
L 31.640625 42.046875 
Q 28.421875 43.953125 25.203125 43.953125 
Q 22.3125 43.953125 20.015625 42.21875 
Q 17.71875 40.484375 16.75 37.40625 
Q 15.28125 32.71875 15.28125 27.15625 
L 15.28125 0 
z
" id="ArialMT-114"/>
      <path d="M 40.234375 0 
L 40.234375 6.546875 
Q 35.296875 -1.171875 25.734375 -1.171875 
Q 19.53125 -1.171875 14.328125 2.25 
Q 9.125 5.671875 6.265625 11.796875 
Q 3.421875 17.921875 3.421875 25.875 
Q 3.421875 33.640625 6 39.96875 
Q 8.59375 46.296875 13.765625 49.65625 
Q 18.953125 53.03125 25.34375 53.03125 
Q 30.03125 53.03125 33.6875 51.046875 
Q 37.359375 49.078125 39.65625 45.90625 
L 39.65625 71.578125 
L 48.390625 71.578125 
L 48.390625 0 
z
M 12.453125 25.875 
Q 12.453125 15.921875 16.640625 10.984375 
Q 20.84375 6.0625 26.5625 6.0625 
Q 32.328125 6.0625 36.34375 10.765625 
Q 40.375 15.484375 40.375 25.140625 
Q 40.375 35.796875 36.265625 40.765625 
Q 32.171875 45.75 26.171875 45.75 
Q 20.3125 45.75 16.375 40.96875 
Q 12.453125 36.1875 12.453125 25.875 
z
" id="ArialMT-100"/>
      <path d="M 3.328125 25.921875 
Q 3.328125 40.328125 11.328125 47.265625 
Q 18.015625 53.03125 27.640625 53.03125 
Q 38.328125 53.03125 45.109375 46.015625 
Q 51.90625 39.015625 51.90625 26.65625 
Q 51.90625 16.65625 48.90625 10.90625 
Q 45.90625 5.171875 40.15625 2 
Q 34.421875 -1.171875 27.640625 -1.171875 
Q 16.75 -1.171875 10.03125 5.8125 
Q 3.328125 12.796875 3.328125 25.921875 
z
M 12.359375 25.921875 
Q 12.359375 15.96875 16.703125 11.015625 
Q 21.046875 6.0625 27.640625 6.0625 
Q 34.1875 6.0625 38.53125 11.03125 
Q 42.875 16.015625 42.875 26.21875 
Q 42.875 35.84375 38.5 40.796875 
Q 34.125 45.75 27.640625 45.75 
Q 21.046875 45.75 16.703125 40.8125 
Q 12.359375 35.890625 12.359375 25.921875 
z
" id="ArialMT-111"/>
      <path d="M 4.984375 -4.296875 
L 13.53125 -5.5625 
Q 14.0625 -9.515625 16.5 -11.328125 
Q 19.78125 -13.765625 25.4375 -13.765625 
Q 31.546875 -13.765625 34.859375 -11.328125 
Q 38.1875 -8.890625 39.359375 -4.5 
Q 40.046875 -1.8125 39.984375 6.78125 
Q 34.234375 0 25.640625 0 
Q 14.9375 0 9.078125 7.71875 
Q 3.21875 15.4375 3.21875 26.21875 
Q 3.21875 33.640625 5.90625 39.90625 
Q 8.59375 46.1875 13.6875 49.609375 
Q 18.796875 53.03125 25.6875 53.03125 
Q 34.859375 53.03125 40.828125 45.609375 
L 40.828125 51.859375 
L 48.921875 51.859375 
L 48.921875 7.03125 
Q 48.921875 -5.078125 46.453125 -10.125 
Q 44 -15.1875 38.640625 -18.109375 
Q 33.296875 -21.046875 25.484375 -21.046875 
Q 16.21875 -21.046875 10.5 -16.875 
Q 4.78125 -12.703125 4.984375 -4.296875 
z
M 12.25 26.859375 
Q 12.25 16.65625 16.296875 11.96875 
Q 20.359375 7.28125 26.46875 7.28125 
Q 32.515625 7.28125 36.609375 11.9375 
Q 40.71875 16.609375 40.71875 26.5625 
Q 40.71875 36.078125 36.5 40.90625 
Q 32.28125 45.75 26.3125 45.75 
Q 20.453125 45.75 16.34375 40.984375 
Q 12.25 36.234375 12.25 26.859375 
z
" id="ArialMT-103"/>
      <path d="M 6.390625 0 
L 6.390625 71.578125 
L 15.1875 71.578125 
L 15.1875 0 
z
" id="ArialMT-108"/>
     </defs>
     <g transform="translate(233.523153 586.54625)scale(0.2 -0.2)">
      <use xlink:href="#ArialMT-68"/>
      <use x="72.216797" xlink:href="#ArialMT-105"/>
      <use x="94.433594" xlink:href="#ArialMT-115"/>
      <use x="144.433594" xlink:href="#ArialMT-116"/>
      <use x="172.216797" xlink:href="#ArialMT-97"/>
      <use x="227.832031" xlink:href="#ArialMT-110"/>
      <use x="283.447266" xlink:href="#ArialMT-99"/>
      <use x="333.447266" xlink:href="#ArialMT-101"/>
      <use x="389.0625" xlink:href="#ArialMT-32"/>
      <use x="416.845703" xlink:href="#ArialMT-114"/>
      <use x="450.146484" xlink:href="#ArialMT-101"/>
      <use x="505.761719" xlink:href="#ArialMT-100"/>
      <use x="561.376953" xlink:href="#ArialMT-32"/>
      <use x="589.160156" xlink:href="#ArialMT-116"/>
      <use x="616.943359" xlink:href="#ArialMT-111"/>
      <use x="672.558594" xlink:href="#ArialMT-32"/>
      <use x="700.341797" xlink:href="#ArialMT-103"/>
      <use x="755.957031" xlink:href="#ArialMT-114"/>
      <use x="789.257812" xlink:href="#ArialMT-101"/>
      <use x="844.873047" xlink:href="#ArialMT-101"/>
      <use x="900.488281" xlink:href="#ArialMT-110"/>
      <use x="956.103516" xlink:href="#ArialMT-32"/>
      <use x="983.886719" xlink:href="#ArialMT-99"/>
      <use x="1033.886719" xlink:href="#ArialMT-101"/>
      <use x="1089.501953" xlink:href="#ArialMT-108"/>
      <use x="1111.71875" xlink:href="#ArialMT-108"/>
     </g>
    </g>
   </g>
   <g id="matplotlib.axis_2">
    <g id="ytick_1">
     <g id="line2d_5">
      <defs>
       <path d="M 0 0 
L -5 0 
" id="m01209ac110" style="stroke:#000000;stroke-width:1.5;"/>
      </defs>
      <g>
       <use style="stroke:#000000;stroke-width:1.5;" x="144" xlink:href="#m01209ac110" y="541.44"/>
      </g>
     </g>
     <g id="text_6">
      <!-- 0 -->
      <g transform="translate(124.378125 548.597812)scale(0.2 -0.2)">
       <use xlink:href="#ArialMT-48"/>
      </g>
     </g>
    </g>
    <g id="ytick_2">
     <g id="line2d_6">
      <g>
       <use style="stroke:#000000;stroke-width:1.5;" x="144" xlink:href="#m01209ac110" y="472.868571"/>
      </g>
     </g>
     <g id="text_7">
      <!-- 20 -->
      <g transform="translate(113.25625 480.026384)scale(0.2 -0.2)">
       <use xlink:href="#ArialMT-50"/>
       <use x="55.615234" xlink:href="#ArialMT-48"/>
      </g>
     </g>
    </g>
    <g id="ytick_3">
     <g id="line2d_7">
      <g>
       <use style="stroke:#000000;stroke-width:1.5;" x="144" xlink:href="#m01209ac110" y="404.297143"/>
      </g>
     </g>
     <g id="text_8">
      <!-- 40 -->
      <defs>
       <path d="M 32.328125 0 
L 32.328125 17.140625 
L 1.265625 17.140625 
L 1.265625 25.203125 
L 33.9375 71.578125 
L 41.109375 71.578125 
L 41.109375 25.203125 
L 50.78125 25.203125 
L 50.78125 17.140625 
L 41.109375 17.140625 
L 41.109375 0 
z
M 32.328125 25.203125 
L 32.328125 57.46875 
L 9.90625 25.203125 
z
" id="ArialMT-52"/>
      </defs>
      <g transform="translate(113.25625 411.454955)scale(0.2 -0.2)">
       <use xlink:href="#ArialMT-52"/>
       <use x="55.615234" xlink:href="#ArialMT-48"/>
      </g>
     </g>
    </g>
    <g id="ytick_4">
     <g id="line2d_8">
      <g>
       <use style="stroke:#000000;stroke-width:1.5;" x="144" xlink:href="#m01209ac110" y="335.725714"/>
      </g>
     </g>
     <g id="text_9">
      <!-- 60 -->
      <defs>
       <path d="M 49.75 54.046875 
L 41.015625 53.375 
Q 39.84375 58.546875 37.703125 60.890625 
Q 34.125 64.65625 28.90625 64.65625 
Q 24.703125 64.65625 21.53125 62.3125 
Q 17.390625 59.28125 14.984375 53.46875 
Q 12.59375 47.65625 12.5 36.921875 
Q 15.671875 41.75 20.265625 44.09375 
Q 24.859375 46.4375 29.890625 46.4375 
Q 38.671875 46.4375 44.84375 39.96875 
Q 51.03125 33.5 51.03125 23.25 
Q 51.03125 16.5 48.125 10.71875 
Q 45.21875 4.9375 40.140625 1.859375 
Q 35.0625 -1.21875 28.609375 -1.21875 
Q 17.625 -1.21875 10.6875 6.859375 
Q 3.765625 14.9375 3.765625 33.5 
Q 3.765625 54.25 11.421875 63.671875 
Q 18.109375 71.875 29.4375 71.875 
Q 37.890625 71.875 43.28125 67.140625 
Q 48.6875 62.40625 49.75 54.046875 
z
M 13.875 23.1875 
Q 13.875 18.65625 15.796875 14.5 
Q 17.71875 10.359375 21.1875 8.171875 
Q 24.65625 6 28.46875 6 
Q 34.03125 6 38.03125 10.484375 
Q 42.046875 14.984375 42.046875 22.703125 
Q 42.046875 30.125 38.078125 34.390625 
Q 34.125 38.671875 28.125 38.671875 
Q 22.171875 38.671875 18.015625 34.390625 
Q 13.875 30.125 13.875 23.1875 
z
" id="ArialMT-54"/>
      </defs>
      <g transform="translate(113.25625 342.883527)scale(0.2 -0.2)">
       <use xlink:href="#ArialMT-54"/>
       <use x="55.615234" xlink:href="#ArialMT-48"/>
      </g>
     </g>
    </g>
    <g id="ytick_5">
     <g id="line2d_9">
      <g>
       <use style="stroke:#000000;stroke-width:1.5;" x="144" xlink:href="#m01209ac110" y="267.154286"/>
      </g>
     </g>
     <g id="text_10">
      <!-- 80 -->
      <defs>
       <path d="M 17.671875 38.8125 
Q 12.203125 40.828125 9.5625 44.53125 
Q 6.9375 48.25 6.9375 53.421875 
Q 6.9375 61.234375 12.546875 66.546875 
Q 18.171875 71.875 27.484375 71.875 
Q 36.859375 71.875 42.578125 66.421875 
Q 48.296875 60.984375 48.296875 53.171875 
Q 48.296875 48.1875 45.671875 44.5 
Q 43.0625 40.828125 37.75 38.8125 
Q 44.34375 36.671875 47.78125 31.875 
Q 51.21875 27.09375 51.21875 20.453125 
Q 51.21875 11.28125 44.71875 5.03125 
Q 38.234375 -1.21875 27.640625 -1.21875 
Q 17.046875 -1.21875 10.546875 5.046875 
Q 4.046875 11.328125 4.046875 20.703125 
Q 4.046875 27.6875 7.59375 32.390625 
Q 11.140625 37.109375 17.671875 38.8125 
z
M 15.921875 53.71875 
Q 15.921875 48.640625 19.1875 45.40625 
Q 22.46875 42.1875 27.6875 42.1875 
Q 32.765625 42.1875 36.015625 45.375 
Q 39.265625 48.578125 39.265625 53.21875 
Q 39.265625 58.0625 35.90625 61.359375 
Q 32.5625 64.65625 27.59375 64.65625 
Q 22.5625 64.65625 19.234375 61.421875 
Q 15.921875 58.203125 15.921875 53.71875 
z
M 13.09375 20.65625 
Q 13.09375 16.890625 14.875 13.375 
Q 16.65625 9.859375 20.171875 7.921875 
Q 23.6875 6 27.734375 6 
Q 34.03125 6 38.125 10.046875 
Q 42.234375 14.109375 42.234375 20.359375 
Q 42.234375 26.703125 38.015625 30.859375 
Q 33.796875 35.015625 27.4375 35.015625 
Q 21.234375 35.015625 17.15625 30.90625 
Q 13.09375 26.8125 13.09375 20.65625 
z
" id="ArialMT-56"/>
      </defs>
      <g transform="translate(113.25625 274.312098)scale(0.2 -0.2)">
       <use xlink:href="#ArialMT-56"/>
       <use x="55.615234" xlink:href="#ArialMT-48"/>
      </g>
     </g>
    </g>
    <g id="ytick_6">
     <g id="line2d_10">
      <g>
       <use style="stroke:#000000;stroke-width:1.5;" x="144" xlink:href="#m01209ac110" y="198.582857"/>
      </g>
     </g>
     <g id="text_11">
      <!-- 100 -->
      <g transform="translate(102.134375 205.74067)scale(0.2 -0.2)">
       <use xlink:href="#ArialMT-49"/>
       <use x="55.615234" xlink:href="#ArialMT-48"/>
       <use x="111.230469" xlink:href="#ArialMT-48"/>
      </g>
     </g>
    </g>
    <g id="text_12">
     <!-- Counts -->
     <defs>
      <path d="M 58.796875 25.09375 
L 68.265625 22.703125 
Q 65.28125 11.03125 57.546875 4.90625 
Q 49.8125 -1.21875 38.625 -1.21875 
Q 27.046875 -1.21875 19.796875 3.484375 
Q 12.546875 8.203125 8.765625 17.140625 
Q 4.984375 26.078125 4.984375 36.328125 
Q 4.984375 47.515625 9.25 55.828125 
Q 13.53125 64.15625 21.40625 68.46875 
Q 29.296875 72.796875 38.765625 72.796875 
Q 49.515625 72.796875 56.828125 67.328125 
Q 64.15625 61.859375 67.046875 51.953125 
L 57.71875 49.75 
Q 55.21875 57.5625 50.484375 61.125 
Q 45.75 64.703125 38.578125 64.703125 
Q 30.328125 64.703125 24.78125 60.734375 
Q 19.234375 56.78125 16.984375 50.109375 
Q 14.75 43.453125 14.75 36.375 
Q 14.75 27.25 17.40625 20.4375 
Q 20.0625 13.625 25.671875 10.25 
Q 31.296875 6.890625 37.84375 6.890625 
Q 45.796875 6.890625 51.3125 11.46875 
Q 56.84375 16.0625 58.796875 25.09375 
z
" id="ArialMT-67"/>
      <path d="M 40.578125 0 
L 40.578125 7.625 
Q 34.515625 -1.171875 24.125 -1.171875 
Q 19.53125 -1.171875 15.546875 0.578125 
Q 11.578125 2.34375 9.640625 5 
Q 7.71875 7.671875 6.9375 11.53125 
Q 6.390625 14.109375 6.390625 19.734375 
L 6.390625 51.859375 
L 15.1875 51.859375 
L 15.1875 23.09375 
Q 15.1875 16.21875 15.71875 13.8125 
Q 16.546875 10.359375 19.234375 8.375 
Q 21.921875 6.390625 25.875 6.390625 
Q 29.828125 6.390625 33.296875 8.421875 
Q 36.765625 10.453125 38.203125 13.9375 
Q 39.65625 17.4375 39.65625 24.078125 
L 39.65625 51.859375 
L 48.4375 51.859375 
L 48.4375 0 
z
" id="ArialMT-117"/>
     </defs>
     <g transform="translate(94.159375 371.522812)rotate(-90)scale(0.2 -0.2)">
      <use xlink:href="#ArialMT-67"/>
      <use x="72.216797" xlink:href="#ArialMT-111"/>
      <use x="127.832031" xlink:href="#ArialMT-117"/>
      <use x="183.447266" xlink:href="#ArialMT-110"/>
      <use x="239.0625" xlink:href="#ArialMT-116"/>
      <use x="266.845703" xlink:href="#ArialMT-115"/>
     </g>
    </g>
   </g>
   <g id="patch_3">
    <path clip-path="url(#p96aa1b84a1)" d="M 167.980165 541.44 
L 193.804959 541.44 
L 193.804959 541.44 
L 167.980165 541.44 
z
" style="fill:#1f77b4;"/>
   </g>
   <g id="patch_4">
    <path clip-path="url(#p96aa1b84a1)" d="M 204.872727 541.44 
L 230.697521 541.44 
L 230.697521 503.725714 
L 204.872727 503.725714 
z
" style="fill:#1f77b4;"/>
   </g>
   <g id="patch_5">
    <path clip-path="url(#p96aa1b84a1)" d="M 241.765289 541.44 
L 267.590083 541.44 
L 267.590083 352.868571 
L 241.765289 352.868571 
z
" style="fill:#1f77b4;"/>
   </g>
   <g id="patch_6">
    <path clip-path="url(#p96aa1b84a1)" d="M 278.657851 541.44 
L 304.482645 541.44 
L 304.482645 205.44 
L 278.657851 205.44 
z
" style="fill:#1f77b4;"/>
   </g>
   <g id="patch_7">
    <path clip-path="url(#p96aa1b84a1)" d="M 315.550413 541.44 
L 341.375207 541.44 
L 341.375207 157.44 
L 315.550413 157.44 
z
" style="fill:#1f77b4;"/>
   </g>
   <g id="patch_8">
    <path clip-path="url(#p96aa1b84a1)" d="M 352.442975 541.44 
L 378.267769 541.44 
L 378.267769 352.868571 
L 352.442975 352.868571 
z
" style="fill:#1f77b4;"/>
   </g>
   <g id="patch_9">
    <path clip-path="url(#p96aa1b84a1)" d="M 389.335537 541.44 
L 415.160331 541.44 
L 415.160331 411.154286 
L 389.335537 411.154286 
z
" style="fill:#1f77b4;"/>
   </g>
   <g id="patch_10">
    <path clip-path="url(#p96aa1b84a1)" d="M 426.228099 541.44 
L 452.052893 541.44 
L 452.052893 483.154286 
L 426.228099 483.154286 
z
" style="fill:#1f77b4;"/>
   </g>
   <g id="patch_11">
    <path clip-path="url(#p96aa1b84a1)" d="M 463.120661 541.44 
L 488.945455 541.44 
L 488.945455 507.154286 
L 463.120661 507.154286 
z
" style="fill:#1f77b4;"/>
   </g>
   <g id="patch_12">
    <path clip-path="url(#p96aa1b84a1)" d="M 500.013223 541.44 
L 525.838017 541.44 
L 525.838017 527.725714 
L 500.013223 527.725714 
z
" style="fill:#1f77b4;"/>
   </g>
   <g id="line2d_11">
    <path clip-path="url(#p96aa1b84a1)" d="M 162.446281 541.403592 
L 166.172802 541.361902 
L 169.899324 541.279329 
L 173.625845 541.122866 
L 177.352367 540.839214 
L 181.078888 540.347178 
L 184.805409 539.530411 
L 188.531931 538.232801 
L 192.258452 536.25947 
L 195.984974 533.386385 
L 199.711495 529.380516 
L 203.438017 524.030004 
L 207.164538 517.180436 
L 210.891059 508.769738 
L 214.617581 498.852036 
L 218.344102 487.60119 
L 222.070624 475.28858 
L 225.797145 462.236446 
L 229.523666 448.755963 
L 233.250188 435.085458 
L 236.976709 421.346175 
L 240.703231 407.529221 
L 244.429752 393.51864 
L 248.156273 379.144566 
L 251.882795 364.251231 
L 255.609316 348.760426 
L 259.335838 332.713447 
L 263.062359 316.282167 
L 266.788881 299.749541 
L 270.515402 283.467963 
L 274.241923 267.807955 
L 277.968445 253.109508 
L 281.694966 239.645082 
L 285.421488 227.598937 
L 289.148009 217.063535 
L 292.87453 208.050883 
L 296.601052 200.515047 
L 300.327573 194.38135 
L 304.054095 189.577893 
L 307.780616 186.065504 
L 311.507137 183.862561 
L 315.233659 183.060856 
L 318.96018 183.827717 
L 322.686702 186.389293 
L 326.413223 190.991538 
L 330.139745 197.840422 
L 333.866266 207.030516 
L 337.592787 218.478769 
L 341.319309 231.884111 
L 345.04583 246.730363 
L 348.772352 262.339466 
L 352.498873 277.967365 
L 356.225394 292.92132 
L 359.951916 306.670331 
L 363.678437 318.922182 
L 367.404959 329.650453 
L 371.13148 339.06855 
L 374.858002 347.560747 
L 378.584523 355.58869 
L 382.311044 363.594638 
L 386.037566 371.920455 
L 389.764087 380.75589 
L 393.490609 390.122489 
L 397.21713 399.89199 
L 400.943651 409.831343 
L 404.670173 419.661644 
L 408.396694 429.116467 
L 412.123216 437.986771 
L 415.849737 446.144474 
L 419.576258 453.54343 
L 423.30278 460.202788 
L 427.029301 466.181617 
L 430.755823 471.554202 
L 434.482344 476.392761 
L 438.208866 480.759869 
L 441.935387 484.708632 
L 445.661908 488.28616 
L 449.38843 491.536017 
L 453.114951 494.497571 
L 456.841473 497.20311 
L 460.567994 499.675735 
L 464.294515 501.93113 
L 468.021037 503.984468 
L 471.747558 505.860747 
L 475.47408 507.604381 
L 479.200601 509.283124 
L 482.927122 510.982881 
L 486.653644 512.793224 
L 490.380165 514.787087 
L 494.106687 517.000806 
L 497.833208 519.421174 
L 501.55973 521.984285 
L 505.286251 524.587256 
L 509.012772 527.109778 
L 512.739294 529.439361 
L 516.465815 531.493185 
L 520.192337 533.230883 
L 523.918858 534.655775 
L 527.645379 535.80574 
L 531.371901 536.737821 
" style="fill:none;stroke:#00bfbf;stroke-linecap:square;stroke-linejoin:miter;stroke-width:5;"/>
   </g>
   <g id="patch_13">
    <path d="M 144 541.44 
L 144 138.24 
" style="fill:none;stroke:#000000;stroke-linecap:square;stroke-linejoin:miter;stroke-width:2;"/>
   </g>
   <g id="patch_14">
    <path d="M 144 541.44 
L 549.818182 541.44 
" style="fill:none;stroke:#000000;stroke-linecap:square;stroke-linejoin:miter;stroke-width:2;"/>
   </g>
   <g id="text_13">
    <!-- uniform13 (n=400) -->
    <defs>
     <path d="M 8.6875 0 
L 8.6875 45.015625 
L 0.921875 45.015625 
L 0.921875 51.859375 
L 8.6875 51.859375 
L 8.6875 57.375 
Q 8.6875 62.59375 9.625 65.140625 
Q 10.890625 68.5625 14.078125 70.671875 
Q 17.28125 72.796875 23.046875 72.796875 
Q 26.765625 72.796875 31.25 71.921875 
L 29.9375 64.265625 
Q 27.203125 64.75 24.75 64.75 
Q 20.75 64.75 19.09375 63.03125 
Q 17.4375 61.328125 17.4375 56.640625 
L 17.4375 51.859375 
L 27.546875 51.859375 
L 27.546875 45.015625 
L 17.4375 45.015625 
L 17.4375 0 
z
" id="ArialMT-102"/>
     <path d="M 6.59375 0 
L 6.59375 51.859375 
L 14.453125 51.859375 
L 14.453125 44.578125 
Q 16.890625 48.390625 20.9375 50.703125 
Q 25 53.03125 30.171875 53.03125 
Q 35.9375 53.03125 39.625 50.640625 
Q 43.3125 48.25 44.828125 43.953125 
Q 50.984375 53.03125 60.84375 53.03125 
Q 68.5625 53.03125 72.703125 48.75 
Q 76.859375 44.484375 76.859375 35.59375 
L 76.859375 0 
L 68.109375 0 
L 68.109375 32.671875 
Q 68.109375 37.9375 67.25 40.25 
Q 66.40625 42.578125 64.15625 43.984375 
Q 61.921875 45.40625 58.890625 45.40625 
Q 53.421875 45.40625 49.796875 41.765625 
Q 46.1875 38.140625 46.1875 30.125 
L 46.1875 0 
L 37.40625 0 
L 37.40625 33.6875 
Q 37.40625 39.546875 35.25 42.46875 
Q 33.109375 45.40625 28.21875 45.40625 
Q 24.515625 45.40625 21.359375 43.453125 
Q 18.21875 41.5 16.796875 37.734375 
Q 15.375 33.984375 15.375 26.90625 
L 15.375 0 
z
" id="ArialMT-109"/>
     <path d="M 23.390625 -21.046875 
Q 16.109375 -11.859375 11.078125 0.4375 
Q 6.0625 12.75 6.0625 25.921875 
Q 6.0625 37.546875 9.8125 48.1875 
Q 14.203125 60.546875 23.390625 72.796875 
L 29.6875 72.796875 
Q 23.78125 62.640625 21.875 58.296875 
Q 18.890625 51.5625 17.1875 44.234375 
Q 15.09375 35.109375 15.09375 25.875 
Q 15.09375 2.390625 29.6875 -21.046875 
z
" id="ArialMT-40"/>
     <path d="M 52.828125 42.09375 
L 5.5625 42.09375 
L 5.5625 50.296875 
L 52.828125 50.296875 
z
M 52.828125 20.359375 
L 5.5625 20.359375 
L 5.5625 28.5625 
L 52.828125 28.5625 
z
" id="ArialMT-61"/>
     <path d="M 12.359375 -21.046875 
L 6.0625 -21.046875 
Q 20.65625 2.390625 20.65625 25.875 
Q 20.65625 35.0625 18.5625 44.09375 
Q 16.890625 51.421875 13.921875 58.15625 
Q 12.015625 62.546875 6.0625 72.796875 
L 12.359375 72.796875 
Q 21.53125 60.546875 25.921875 48.1875 
Q 29.6875 37.546875 29.6875 25.921875 
Q 29.6875 12.75 24.625 0.4375 
Q 19.578125 -11.859375 12.359375 -21.046875 
z
" id="ArialMT-41"/>
    </defs>
    <g transform="translate(248.525966 132.24)scale(0.24 -0.24)">
     <use xlink:href="#ArialMT-117"/>
     <use x="55.615234" xlink:href="#ArialMT-110"/>
     <use x="111.230469" xlink:href="#ArialMT-105"/>
     <use x="133.447266" xlink:href="#ArialMT-102"/>
     <use x="161.230469" xlink:href="#ArialMT-111"/>
     <use x="216.845703" xlink:href="#ArialMT-114"/>
     <use x="250.146484" xlink:href="#ArialMT-109"/>
     <use x="333.447266" xlink:href="#ArialMT-49"/>
     <use x="389.0625" xlink:href="#ArialMT-51"/>
     <use x="444.677734" xlink:href="#ArialMT-32"/>
     <use x="472.460938" xlink:href="#ArialMT-40"/>
     <use x="505.761719" xlink:href="#ArialMT-110"/>
     <use x="561.376953" xlink:href="#ArialMT-61"/>
     <use x="619.775391" xlink:href="#ArialMT-52"/>
     <use x="675.390625" xlink:href="#ArialMT-48"/>
     <use x="731.005859" xlink:href="#ArialMT-48"/>
     <use x="786.621094" xlink:href="#ArialMT-41"/>
    </g>
   </g>
  </g>
  <g id="axes_2">
   <g id="patch_15">
    <path d="M 630.981818 541.44 
L 1036.8 541.44 
L 1036.8 138.24 
L 630.981818 138.24 
z
" style="fill:none;"/>
   </g>
   <g id="matplotlib.axis_3">
    <g id="xtick_5">
     <g id="line2d_12">
      <g>
       <use style="stroke:#000000;stroke-width:1.5;" x="649.428099" xlink:href="#mfa39e15068" y="541.44"/>
      </g>
     </g>
     <g id="text_14">
      <!-- 0 -->
      <g transform="translate(643.867162 564.255625)scale(0.2 -0.2)">
       <use xlink:href="#ArialMT-48"/>
      </g>
     </g>
    </g>
    <g id="xtick_6">
     <g id="line2d_13">
      <g>
       <use style="stroke:#000000;stroke-width:1.5;" x="772.403306" xlink:href="#mfa39e15068" y="541.44"/>
      </g>
     </g>
     <g id="text_15">
      <!-- 10 -->
      <g transform="translate(761.281431 564.255625)scale(0.2 -0.2)">
       <use xlink:href="#ArialMT-49"/>
       <use x="55.615234" xlink:href="#ArialMT-48"/>
      </g>
     </g>
    </g>
    <g id="xtick_7">
     <g id="line2d_14">
      <g>
       <use style="stroke:#000000;stroke-width:1.5;" x="895.378512" xlink:href="#mfa39e15068" y="541.44"/>
      </g>
     </g>
     <g id="text_16">
      <!-- 20 -->
      <g transform="translate(884.256637 564.255625)scale(0.2 -0.2)">
       <use xlink:href="#ArialMT-50"/>
       <use x="55.615234" xlink:href="#ArialMT-48"/>
      </g>
     </g>
    </g>
    <g id="xtick_8">
     <g id="line2d_15">
      <g>
       <use style="stroke:#000000;stroke-width:1.5;" x="1018.353719" xlink:href="#mfa39e15068" y="541.44"/>
      </g>
     </g>
     <g id="text_17">
      <!-- 30 -->
      <g transform="translate(1007.231844 564.255625)scale(0.2 -0.2)">
       <use xlink:href="#ArialMT-51"/>
       <use x="55.615234" xlink:href="#ArialMT-48"/>
      </g>
     </g>
    </g>
    <g id="text_18">
     <!-- Distance red to red cell -->
     <g transform="translate(731.626847 586.54625)scale(0.2 -0.2)">
      <use xlink:href="#ArialMT-68"/>
      <use x="72.216797" xlink:href="#ArialMT-105"/>
      <use x="94.433594" xlink:href="#ArialMT-115"/>
      <use x="144.433594" xlink:href="#ArialMT-116"/>
      <use x="172.216797" xlink:href="#ArialMT-97"/>
      <use x="227.832031" xlink:href="#ArialMT-110"/>
      <use x="283.447266" xlink:href="#ArialMT-99"/>
      <use x="333.447266" xlink:href="#ArialMT-101"/>
      <use x="389.0625" xlink:href="#ArialMT-32"/>
      <use x="416.845703" xlink:href="#ArialMT-114"/>
      <use x="450.146484" xlink:href="#ArialMT-101"/>
      <use x="505.761719" xlink:href="#ArialMT-100"/>
      <use x="561.376953" xlink:href="#ArialMT-32"/>
      <use x="589.160156" xlink:href="#ArialMT-116"/>
      <use x="616.943359" xlink:href="#ArialMT-111"/>
      <use x="672.558594" xlink:href="#ArialMT-32"/>
      <use x="700.341797" xlink:href="#ArialMT-114"/>
      <use x="733.642578" xlink:href="#ArialMT-101"/>
      <use x="789.257812" xlink:href="#ArialMT-100"/>
      <use x="844.873047" xlink:href="#ArialMT-32"/>
      <use x="872.65625" xlink:href="#ArialMT-99"/>
      <use x="922.65625" xlink:href="#ArialMT-101"/>
      <use x="978.271484" xlink:href="#ArialMT-108"/>
      <use x="1000.488281" xlink:href="#ArialMT-108"/>
     </g>
    </g>
   </g>
   <g id="matplotlib.axis_4">
    <g id="ytick_7">
     <g id="line2d_16">
      <g>
       <use style="stroke:#000000;stroke-width:1.5;" x="630.981818" xlink:href="#m01209ac110" y="541.44"/>
      </g>
     </g>
     <g id="text_19">
      <!-- 0 -->
      <g transform="translate(611.359943 548.597812)scale(0.2 -0.2)">
       <use xlink:href="#ArialMT-48"/>
      </g>
     </g>
    </g>
    <g id="ytick_8">
     <g id="line2d_17">
      <g>
       <use style="stroke:#000000;stroke-width:1.5;" x="630.981818" xlink:href="#m01209ac110" y="491.716044"/>
      </g>
     </g>
     <g id="text_20">
      <!-- 20 -->
      <g transform="translate(600.238068 498.873856)scale(0.2 -0.2)">
       <use xlink:href="#ArialMT-50"/>
       <use x="55.615234" xlink:href="#ArialMT-48"/>
      </g>
     </g>
    </g>
    <g id="ytick_9">
     <g id="line2d_18">
      <g>
       <use style="stroke:#000000;stroke-width:1.5;" x="630.981818" xlink:href="#m01209ac110" y="441.992087"/>
      </g>
     </g>
     <g id="text_21">
      <!-- 40 -->
      <g transform="translate(600.238068 449.1499)scale(0.2 -0.2)">
       <use xlink:href="#ArialMT-52"/>
       <use x="55.615234" xlink:href="#ArialMT-48"/>
      </g>
     </g>
    </g>
    <g id="ytick_10">
     <g id="line2d_19">
      <g>
       <use style="stroke:#000000;stroke-width:1.5;" x="630.981818" xlink:href="#m01209ac110" y="392.268131"/>
      </g>
     </g>
     <g id="text_22">
      <!-- 60 -->
      <g transform="translate(600.238068 399.425943)scale(0.2 -0.2)">
       <use xlink:href="#ArialMT-54"/>
       <use x="55.615234" xlink:href="#ArialMT-48"/>
      </g>
     </g>
    </g>
    <g id="ytick_11">
     <g id="line2d_20">
      <g>
       <use style="stroke:#000000;stroke-width:1.5;" x="630.981818" xlink:href="#m01209ac110" y="342.544175"/>
      </g>
     </g>
     <g id="text_23">
      <!-- 80 -->
      <g transform="translate(600.238068 349.701987)scale(0.2 -0.2)">
       <use xlink:href="#ArialMT-56"/>
       <use x="55.615234" xlink:href="#ArialMT-48"/>
      </g>
     </g>
    </g>
    <g id="ytick_12">
     <g id="line2d_21">
      <g>
       <use style="stroke:#000000;stroke-width:1.5;" x="630.981818" xlink:href="#m01209ac110" y="292.820218"/>
      </g>
     </g>
     <g id="text_24">
      <!-- 100 -->
      <g transform="translate(589.116193 299.978031)scale(0.2 -0.2)">
       <use xlink:href="#ArialMT-49"/>
       <use x="55.615234" xlink:href="#ArialMT-48"/>
       <use x="111.230469" xlink:href="#ArialMT-48"/>
      </g>
     </g>
    </g>
    <g id="ytick_13">
     <g id="line2d_22">
      <g>
       <use style="stroke:#000000;stroke-width:1.5;" x="630.981818" xlink:href="#m01209ac110" y="243.096262"/>
      </g>
     </g>
     <g id="text_25">
      <!-- 120 -->
      <g transform="translate(589.116193 250.254074)scale(0.2 -0.2)">
       <use xlink:href="#ArialMT-49"/>
       <use x="55.615234" xlink:href="#ArialMT-50"/>
       <use x="111.230469" xlink:href="#ArialMT-48"/>
      </g>
     </g>
    </g>
    <g id="ytick_14">
     <g id="line2d_23">
      <g>
       <use style="stroke:#000000;stroke-width:1.5;" x="630.981818" xlink:href="#m01209ac110" y="193.372305"/>
      </g>
     </g>
     <g id="text_26">
      <!-- 140 -->
      <g transform="translate(589.116193 200.530118)scale(0.2 -0.2)">
       <use xlink:href="#ArialMT-49"/>
       <use x="55.615234" xlink:href="#ArialMT-52"/>
       <use x="111.230469" xlink:href="#ArialMT-48"/>
      </g>
     </g>
    </g>
    <g id="ytick_15">
     <g id="line2d_24">
      <g>
       <use style="stroke:#000000;stroke-width:1.5;" x="630.981818" xlink:href="#m01209ac110" y="143.648349"/>
      </g>
     </g>
     <g id="text_27">
      <!-- 160 -->
      <g transform="translate(589.116193 150.806162)scale(0.2 -0.2)">
       <use xlink:href="#ArialMT-49"/>
       <use x="55.615234" xlink:href="#ArialMT-54"/>
       <use x="111.230469" xlink:href="#ArialMT-48"/>
      </g>
     </g>
    </g>
    <g id="text_28">
     <!-- Counts -->
     <g transform="translate(581.141193 371.522812)rotate(-90)scale(0.2 -0.2)">
      <use xlink:href="#ArialMT-67"/>
      <use x="72.216797" xlink:href="#ArialMT-111"/>
      <use x="127.832031" xlink:href="#ArialMT-117"/>
      <use x="183.447266" xlink:href="#ArialMT-110"/>
      <use x="239.0625" xlink:href="#ArialMT-116"/>
      <use x="266.845703" xlink:href="#ArialMT-115"/>
     </g>
    </g>
   </g>
   <g id="patch_16">
    <path clip-path="url(#p7aa441b3be)" d="M 654.961983 541.44 
L 680.786777 541.44 
L 680.786777 541.44 
L 654.961983 541.44 
z
" style="fill:#1f77b4;"/>
   </g>
   <g id="patch_17">
    <path clip-path="url(#p7aa441b3be)" d="M 691.854545 541.44 
L 717.679339 541.44 
L 717.679339 414.643911 
L 691.854545 414.643911 
z
" style="fill:#1f77b4;"/>
   </g>
   <g id="patch_18">
    <path clip-path="url(#p7aa441b3be)" d="M 728.747107 541.44 
L 754.571901 541.44 
L 754.571901 188.39991 
L 728.747107 188.39991 
z
" style="fill:#1f77b4;"/>
   </g>
   <g id="patch_19">
    <path clip-path="url(#p7aa441b3be)" d="M 765.639669 541.44 
L 791.464463 541.44 
L 791.464463 228.179075 
L 765.639669 228.179075 
z
" style="fill:#1f77b4;"/>
   </g>
   <g id="patch_20">
    <path clip-path="url(#p7aa441b3be)" d="M 802.532231 541.44 
L 828.357025 541.44 
L 828.357025 374.864746 
L 802.532231 374.864746 
z
" style="fill:#1f77b4;"/>
   </g>
   <g id="patch_21">
    <path clip-path="url(#p7aa441b3be)" d="M 839.424793 541.44 
L 865.249587 541.44 
L 865.249587 514.091824 
L 839.424793 514.091824 
z
" style="fill:#1f77b4;"/>
   </g>
   <g id="patch_22">
    <path clip-path="url(#p7aa441b3be)" d="M 876.317355 541.44 
L 902.142149 541.44 
L 902.142149 533.981407 
L 876.317355 533.981407 
z
" style="fill:#1f77b4;"/>
   </g>
   <g id="patch_23">
    <path clip-path="url(#p7aa441b3be)" d="M 913.209917 541.44 
L 939.034711 541.44 
L 939.034711 541.44 
L 913.209917 541.44 
z
" style="fill:#1f77b4;"/>
   </g>
   <g id="patch_24">
    <path clip-path="url(#p7aa441b3be)" d="M 950.102479 541.44 
L 975.927273 541.44 
L 975.927273 541.44 
L 950.102479 541.44 
z
" style="fill:#1f77b4;"/>
   </g>
   <g id="patch_25">
    <path clip-path="url(#p7aa441b3be)" d="M 986.995041 541.44 
L 1012.819835 541.44 
L 1012.819835 541.44 
L 986.995041 541.44 
z
" style="fill:#1f77b4;"/>
   </g>
   <g id="line2d_25">
    <path clip-path="url(#p7aa441b3be)" d="M 649.428099 541.439999 
L 653.154621 541.43999 
L 656.881142 541.439934 
L 660.607663 541.439604 
L 664.334185 541.437904 
L 668.060706 541.430128 
L 671.787228 541.398624 
L 675.513749 541.285539 
L 679.24027 540.925843 
L 682.966792 539.912048 
L 686.693313 537.380264 
L 690.419835 531.779236 
L 694.146356 520.807448 
L 697.872878 501.791654 
L 701.599399 472.668057 
L 705.32592 433.321346 
L 709.052442 386.531767 
L 712.778963 337.66084 
L 716.505485 292.835723 
L 720.232006 256.489139 
L 723.958527 229.771629 
L 727.685049 210.845549 
L 731.41157 196.690039 
L 735.138092 184.991078 
L 738.864613 174.901405 
L 742.591134 166.619866 
L 746.317656 160.645584 
L 750.044177 157.44 
L 753.770699 157.499351 
L 757.49722 161.415852 
L 761.223742 169.682313 
L 764.950263 182.33627 
L 768.676784 198.652121 
L 772.403306 217.042444 
L 776.129827 235.297625 
L 779.856349 251.205171 
L 783.58287 263.344031 
L 787.309391 271.634116 
L 791.035913 277.332257 
L 794.762434 282.547062 
L 798.488956 289.593226 
L 802.215477 300.408386 
L 805.941998 316.071429 
L 809.66852 336.491993 
L 813.395041 360.454147 
L 817.121563 386.069204 
L 820.848084 411.383347 
L 824.574606 434.795788 
L 828.301127 455.201582 
L 832.027648 472.030507 
L 835.75417 485.296271 
L 839.480691 495.5513 
L 843.207213 503.615556 
L 846.933734 510.169174 
L 850.660255 515.486324 
L 854.386777 519.504986 
L 858.113298 522.149962 
L 861.83982 523.627187 
L 865.566341 524.460023 
L 869.292863 525.267503 
L 873.019384 526.475314 
L 876.745905 528.163177 
L 880.472427 530.121147 
L 884.198948 532.041748 
L 887.92547 533.710976 
L 891.651991 535.091695 
L 895.378512 536.277547 
L 899.105034 537.378576 
L 902.831555 538.431253 
L 906.558077 539.388145 
L 910.284598 540.172047 
L 914.011119 540.737048 
L 917.737641 541.09245 
L 921.464162 541.287295 
L 925.190684 541.380497 
L 928.917205 541.419461 
L 932.643727 541.433725 
L 936.370248 541.438304 
L 940.096769 541.439594 
L 943.823291 541.439914 
L 947.549812 541.439984 
L 951.276334 541.439997 
L 955.002855 541.44 
L 958.729376 541.44 
L 962.455898 541.44 
L 966.182419 541.44 
L 969.908941 541.44 
L 973.635462 541.44 
L 977.361983 541.44 
L 981.088505 541.44 
L 984.815026 541.44 
L 988.541548 541.44 
L 992.268069 541.44 
L 995.994591 541.44 
L 999.721112 541.44 
L 1003.447633 541.44 
L 1007.174155 541.44 
L 1010.900676 541.44 
L 1014.627198 541.44 
L 1018.353719 541.44 
" style="fill:none;stroke:#00bfbf;stroke-linecap:square;stroke-linejoin:miter;stroke-width:5;"/>
   </g>
   <g id="patch_26">
    <path d="M 630.981818 541.44 
L 630.981818 138.24 
" style="fill:none;stroke:#000000;stroke-linecap:square;stroke-linejoin:miter;stroke-width:2;"/>
   </g>
   <g id="patch_27">
    <path d="M 630.981818 541.44 
L 1036.8 541.44 
" style="fill:none;stroke:#000000;stroke-linecap:square;stroke-linejoin:miter;stroke-width:2;"/>
   </g>
   <g id="text_29">
    <!-- uniform13 (n=400) -->
    <g transform="translate(735.507784 132.24)scale(0.24 -0.24)">
     <use xlink:href="#ArialMT-117"/>
     <use x="55.615234" xlink:href="#ArialMT-110"/>
     <use x="111.230469" xlink:href="#ArialMT-105"/>
     <use x="133.447266" xlink:href="#ArialMT-102"/>
     <use x="161.230469" xlink:href="#ArialMT-111"/>
     <use x="216.845703" xlink:href="#ArialMT-114"/>
     <use x="250.146484" xlink:href="#ArialMT-109"/>
     <use x="333.447266" xlink:href="#ArialMT-49"/>
     <use x="389.0625" xlink:href="#ArialMT-51"/>
     <use x="444.677734" xlink:href="#ArialMT-32"/>
     <use x="472.460938" xlink:href="#ArialMT-40"/>
     <use x="505.761719" xlink:href="#ArialMT-110"/>
     <use x="561.376953" xlink:href="#ArialMT-61"/>
     <use x="619.775391" xlink:href="#ArialMT-52"/>
     <use x="675.390625" xlink:href="#ArialMT-48"/>
     <use x="731.005859" xlink:href="#ArialMT-48"/>
     <use x="786.621094" xlink:href="#ArialMT-41"/>
    </g>
   </g>
  </g>
  <g id="axes_3">
   <g id="patch_28">
    <path d="M 144 1025.28 
L 549.818182 1025.28 
L 549.818182 622.08 
L 144 622.08 
z
" style="fill:none;"/>
   </g>
   <g id="matplotlib.axis_5">
    <g id="xtick_9">
     <g id="line2d_26">
      <g>
       <use style="stroke:#000000;stroke-width:1.5;" x="162.446281" xlink:href="#mfa39e15068" y="1025.28"/>
      </g>
     </g>
     <g id="text_30">
      <!-- 0 -->
      <g transform="translate(156.885343 1048.095625)scale(0.2 -0.2)">
       <use xlink:href="#ArialMT-48"/>
      </g>
     </g>
    </g>
    <g id="xtick_10">
     <g id="line2d_27">
      <g>
       <use style="stroke:#000000;stroke-width:1.5;" x="254.677686" xlink:href="#mfa39e15068" y="1025.28"/>
      </g>
     </g>
     <g id="text_31">
      <!-- 5 -->
      <defs>
       <path d="M 4.15625 18.75 
L 13.375 19.53125 
Q 14.40625 12.796875 18.140625 9.390625 
Q 21.875 6 27.15625 6 
Q 33.5 6 37.890625 10.78125 
Q 42.28125 15.578125 42.28125 23.484375 
Q 42.28125 31 38.0625 35.34375 
Q 33.84375 39.703125 27 39.703125 
Q 22.75 39.703125 19.328125 37.765625 
Q 15.921875 35.84375 13.96875 32.765625 
L 5.71875 33.84375 
L 12.640625 70.609375 
L 48.25 70.609375 
L 48.25 62.203125 
L 19.671875 62.203125 
L 15.828125 42.96875 
Q 22.265625 47.46875 29.34375 47.46875 
Q 38.71875 47.46875 45.15625 40.96875 
Q 51.609375 34.46875 51.609375 24.265625 
Q 51.609375 14.546875 45.953125 7.46875 
Q 39.0625 -1.21875 27.15625 -1.21875 
Q 17.390625 -1.21875 11.203125 4.25 
Q 5.03125 9.71875 4.15625 18.75 
z
" id="ArialMT-53"/>
      </defs>
      <g transform="translate(249.116748 1048.095625)scale(0.2 -0.2)">
       <use xlink:href="#ArialMT-53"/>
      </g>
     </g>
    </g>
    <g id="xtick_11">
     <g id="line2d_28">
      <g>
       <use style="stroke:#000000;stroke-width:1.5;" x="346.909091" xlink:href="#mfa39e15068" y="1025.28"/>
      </g>
     </g>
     <g id="text_32">
      <!-- 10 -->
      <g transform="translate(335.787216 1048.095625)scale(0.2 -0.2)">
       <use xlink:href="#ArialMT-49"/>
       <use x="55.615234" xlink:href="#ArialMT-48"/>
      </g>
     </g>
    </g>
    <g id="xtick_12">
     <g id="line2d_29">
      <g>
       <use style="stroke:#000000;stroke-width:1.5;" x="439.140496" xlink:href="#mfa39e15068" y="1025.28"/>
      </g>
     </g>
     <g id="text_33">
      <!-- 15 -->
      <g transform="translate(428.018621 1048.095625)scale(0.2 -0.2)">
       <use xlink:href="#ArialMT-49"/>
       <use x="55.615234" xlink:href="#ArialMT-53"/>
      </g>
     </g>
    </g>
    <g id="xtick_13">
     <g id="line2d_30">
      <g>
       <use style="stroke:#000000;stroke-width:1.5;" x="531.371901" xlink:href="#mfa39e15068" y="1025.28"/>
      </g>
     </g>
     <g id="text_34">
      <!-- 20 -->
      <g transform="translate(520.250026 1048.095625)scale(0.2 -0.2)">
       <use xlink:href="#ArialMT-50"/>
       <use x="55.615234" xlink:href="#ArialMT-48"/>
      </g>
     </g>
    </g>
    <g id="text_35">
     <!-- Number of green neighbors for red -->
     <defs>
      <path d="M 7.625 0 
L 7.625 71.578125 
L 17.328125 71.578125 
L 54.9375 15.375 
L 54.9375 71.578125 
L 64.015625 71.578125 
L 64.015625 0 
L 54.296875 0 
L 16.703125 56.25 
L 16.703125 0 
z
" id="ArialMT-78"/>
      <path d="M 14.703125 0 
L 6.546875 0 
L 6.546875 71.578125 
L 15.328125 71.578125 
L 15.328125 46.046875 
Q 20.90625 53.03125 29.546875 53.03125 
Q 34.328125 53.03125 38.59375 51.09375 
Q 42.875 49.171875 45.625 45.671875 
Q 48.390625 42.1875 49.953125 37.25 
Q 51.515625 32.328125 51.515625 26.703125 
Q 51.515625 13.375 44.921875 6.09375 
Q 38.328125 -1.171875 29.109375 -1.171875 
Q 19.921875 -1.171875 14.703125 6.5 
z
M 14.59375 26.3125 
Q 14.59375 17 17.140625 12.84375 
Q 21.296875 6.0625 28.375 6.0625 
Q 34.125 6.0625 38.328125 11.0625 
Q 42.53125 16.0625 42.53125 25.984375 
Q 42.53125 36.140625 38.5 40.96875 
Q 34.46875 45.796875 28.765625 45.796875 
Q 23 45.796875 18.796875 40.796875 
Q 14.59375 35.796875 14.59375 26.3125 
z
" id="ArialMT-98"/>
      <path d="M 6.59375 0 
L 6.59375 71.578125 
L 15.375 71.578125 
L 15.375 45.90625 
Q 21.53125 53.03125 30.90625 53.03125 
Q 36.671875 53.03125 40.921875 50.75 
Q 45.171875 48.484375 47 44.484375 
Q 48.828125 40.484375 48.828125 32.859375 
L 48.828125 0 
L 40.046875 0 
L 40.046875 32.859375 
Q 40.046875 39.453125 37.1875 42.453125 
Q 34.328125 45.453125 29.109375 45.453125 
Q 25.203125 45.453125 21.75 43.421875 
Q 18.3125 41.40625 16.84375 37.9375 
Q 15.375 34.46875 15.375 28.375 
L 15.375 0 
z
" id="ArialMT-104"/>
     </defs>
     <g transform="translate(193.504403 1070.63)scale(0.2 -0.2)">
      <use xlink:href="#ArialMT-78"/>
      <use x="72.216797" xlink:href="#ArialMT-117"/>
      <use x="127.832031" xlink:href="#ArialMT-109"/>
      <use x="211.132812" xlink:href="#ArialMT-98"/>
      <use x="266.748047" xlink:href="#ArialMT-101"/>
      <use x="322.363281" xlink:href="#ArialMT-114"/>
      <use x="355.664062" xlink:href="#ArialMT-32"/>
      <use x="383.447266" xlink:href="#ArialMT-111"/>
      <use x="439.0625" xlink:href="#ArialMT-102"/>
      <use x="466.845703" xlink:href="#ArialMT-32"/>
      <use x="494.628906" xlink:href="#ArialMT-103"/>
      <use x="550.244141" xlink:href="#ArialMT-114"/>
      <use x="583.544922" xlink:href="#ArialMT-101"/>
      <use x="639.160156" xlink:href="#ArialMT-101"/>
      <use x="694.775391" xlink:href="#ArialMT-110"/>
      <use x="750.390625" xlink:href="#ArialMT-32"/>
      <use x="778.173828" xlink:href="#ArialMT-110"/>
      <use x="833.789062" xlink:href="#ArialMT-101"/>
      <use x="889.404297" xlink:href="#ArialMT-105"/>
      <use x="911.621094" xlink:href="#ArialMT-103"/>
      <use x="967.236328" xlink:href="#ArialMT-104"/>
      <use x="1022.851562" xlink:href="#ArialMT-98"/>
      <use x="1078.466797" xlink:href="#ArialMT-111"/>
      <use x="1134.082031" xlink:href="#ArialMT-114"/>
      <use x="1167.382812" xlink:href="#ArialMT-115"/>
      <use x="1217.382812" xlink:href="#ArialMT-32"/>
      <use x="1245.166016" xlink:href="#ArialMT-102"/>
      <use x="1272.949219" xlink:href="#ArialMT-111"/>
      <use x="1328.564453" xlink:href="#ArialMT-114"/>
      <use x="1361.865234" xlink:href="#ArialMT-32"/>
      <use x="1389.648438" xlink:href="#ArialMT-114"/>
      <use x="1422.949219" xlink:href="#ArialMT-101"/>
      <use x="1478.564453" xlink:href="#ArialMT-100"/>
     </g>
    </g>
   </g>
   <g id="matplotlib.axis_6">
    <g id="ytick_16">
     <g id="line2d_31">
      <g>
       <use style="stroke:#000000;stroke-width:1.5;" x="144" xlink:href="#m01209ac110" y="1025.28"/>
      </g>
     </g>
     <g id="text_36">
      <!-- 0 -->
      <g transform="translate(124.378125 1032.437813)scale(0.2 -0.2)">
       <use xlink:href="#ArialMT-48"/>
      </g>
     </g>
    </g>
    <g id="ytick_17">
     <g id="line2d_32">
      <g>
       <use style="stroke:#000000;stroke-width:1.5;" x="144" xlink:href="#m01209ac110" y="949.240396"/>
      </g>
     </g>
     <g id="text_37">
      <!-- 20 -->
      <g transform="translate(113.25625 956.398209)scale(0.2 -0.2)">
       <use xlink:href="#ArialMT-50"/>
       <use x="55.615234" xlink:href="#ArialMT-48"/>
      </g>
     </g>
    </g>
    <g id="ytick_18">
     <g id="line2d_33">
      <g>
       <use style="stroke:#000000;stroke-width:1.5;" x="144" xlink:href="#m01209ac110" y="873.200792"/>
      </g>
     </g>
     <g id="text_38">
      <!-- 40 -->
      <g transform="translate(113.25625 880.358605)scale(0.2 -0.2)">
       <use xlink:href="#ArialMT-52"/>
       <use x="55.615234" xlink:href="#ArialMT-48"/>
      </g>
     </g>
    </g>
    <g id="ytick_19">
     <g id="line2d_34">
      <g>
       <use style="stroke:#000000;stroke-width:1.5;" x="144" xlink:href="#m01209ac110" y="797.161188"/>
      </g>
     </g>
     <g id="text_39">
      <!-- 60 -->
      <g transform="translate(113.25625 804.319001)scale(0.2 -0.2)">
       <use xlink:href="#ArialMT-54"/>
       <use x="55.615234" xlink:href="#ArialMT-48"/>
      </g>
     </g>
    </g>
    <g id="ytick_20">
     <g id="line2d_35">
      <g>
       <use style="stroke:#000000;stroke-width:1.5;" x="144" xlink:href="#m01209ac110" y="721.121584"/>
      </g>
     </g>
     <g id="text_40">
      <!-- 80 -->
      <g transform="translate(113.25625 728.279397)scale(0.2 -0.2)">
       <use xlink:href="#ArialMT-56"/>
       <use x="55.615234" xlink:href="#ArialMT-48"/>
      </g>
     </g>
    </g>
    <g id="ytick_21">
     <g id="line2d_36">
      <g>
       <use style="stroke:#000000;stroke-width:1.5;" x="144" xlink:href="#m01209ac110" y="645.08198"/>
      </g>
     </g>
     <g id="text_41">
      <!-- 100 -->
      <g transform="translate(102.134375 652.239793)scale(0.2 -0.2)">
       <use xlink:href="#ArialMT-49"/>
       <use x="55.615234" xlink:href="#ArialMT-48"/>
       <use x="111.230469" xlink:href="#ArialMT-48"/>
      </g>
     </g>
    </g>
    <g id="text_42">
     <!-- Counts -->
     <g transform="translate(94.159375 855.362813)rotate(-90)scale(0.2 -0.2)">
      <use xlink:href="#ArialMT-67"/>
      <use x="72.216797" xlink:href="#ArialMT-111"/>
      <use x="127.832031" xlink:href="#ArialMT-117"/>
      <use x="183.447266" xlink:href="#ArialMT-110"/>
      <use x="239.0625" xlink:href="#ArialMT-116"/>
      <use x="266.845703" xlink:href="#ArialMT-115"/>
     </g>
    </g>
   </g>
   <g id="patch_29">
    <path clip-path="url(#p37ebd9ee0a)" d="M 165.213223 1025.28 
L 178.12562 1025.28 
L 178.12562 877.002772 
L 165.213223 877.002772 
z
" style="fill:#1f77b4;"/>
   </g>
   <g id="patch_30">
    <path clip-path="url(#p37ebd9ee0a)" d="M 183.659504 1025.28 
L 196.571901 1025.28 
L 196.571901 740.131485 
L 183.659504 740.131485 
z
" style="fill:#1f77b4;"/>
   </g>
   <g id="patch_31">
    <path clip-path="url(#p37ebd9ee0a)" d="M 202.105785 1025.28 
L 215.018182 1025.28 
L 215.018182 694.507723 
L 202.105785 694.507723 
z
" style="fill:#1f77b4;"/>
   </g>
   <g id="patch_32">
    <path clip-path="url(#p37ebd9ee0a)" d="M 220.552066 1025.28 
L 233.464463 1025.28 
L 233.464463 641.28 
L 220.552066 641.28 
z
" style="fill:#1f77b4;"/>
   </g>
   <g id="patch_33">
    <path clip-path="url(#p37ebd9ee0a)" d="M 238.998347 1025.28 
L 251.910744 1025.28 
L 251.910744 823.77505 
L 238.998347 823.77505 
z
" style="fill:#1f77b4;"/>
   </g>
   <g id="patch_34">
    <path clip-path="url(#p37ebd9ee0a)" d="M 257.444628 1025.28 
L 270.357025 1025.28 
L 270.357025 896.012673 
L 257.444628 896.012673 
z
" style="fill:#1f77b4;"/>
   </g>
   <g id="patch_35">
    <path clip-path="url(#p37ebd9ee0a)" d="M 275.890909 1025.28 
L 288.803306 1025.28 
L 288.803306 991.062178 
L 275.890909 991.062178 
z
" style="fill:#1f77b4;"/>
   </g>
   <g id="patch_36">
    <path clip-path="url(#p37ebd9ee0a)" d="M 294.33719 1025.28 
L 307.249587 1025.28 
L 307.249587 1017.67604 
L 294.33719 1017.67604 
z
" style="fill:#1f77b4;"/>
   </g>
   <g id="patch_37">
    <path clip-path="url(#p37ebd9ee0a)" d="M 312.783471 1025.28 
L 325.695868 1025.28 
L 325.695868 1025.28 
L 312.783471 1025.28 
z
" style="fill:#1f77b4;"/>
   </g>
   <g id="patch_38">
    <path clip-path="url(#p37ebd9ee0a)" d="M 331.229752 1025.28 
L 344.142149 1025.28 
L 344.142149 1025.28 
L 331.229752 1025.28 
z
" style="fill:#1f77b4;"/>
   </g>
   <g id="patch_39">
    <path clip-path="url(#p37ebd9ee0a)" d="M 349.676033 1025.28 
L 362.58843 1025.28 
L 362.58843 1025.28 
L 349.676033 1025.28 
z
" style="fill:#1f77b4;"/>
   </g>
   <g id="patch_40">
    <path clip-path="url(#p37ebd9ee0a)" d="M 368.122314 1025.28 
L 381.034711 1025.28 
L 381.034711 1025.28 
L 368.122314 1025.28 
z
" style="fill:#1f77b4;"/>
   </g>
   <g id="patch_41">
    <path clip-path="url(#p37ebd9ee0a)" d="M 386.568595 1025.28 
L 399.480992 1025.28 
L 399.480992 1025.28 
L 386.568595 1025.28 
z
" style="fill:#1f77b4;"/>
   </g>
   <g id="patch_42">
    <path clip-path="url(#p37ebd9ee0a)" d="M 405.014876 1025.28 
L 417.927273 1025.28 
L 417.927273 1025.28 
L 405.014876 1025.28 
z
" style="fill:#1f77b4;"/>
   </g>
   <g id="patch_43">
    <path clip-path="url(#p37ebd9ee0a)" d="M 423.461157 1025.28 
L 436.373554 1025.28 
L 436.373554 1025.28 
L 423.461157 1025.28 
z
" style="fill:#1f77b4;"/>
   </g>
   <g id="patch_44">
    <path clip-path="url(#p37ebd9ee0a)" d="M 441.907438 1025.28 
L 454.819835 1025.28 
L 454.819835 1025.28 
L 441.907438 1025.28 
z
" style="fill:#1f77b4;"/>
   </g>
   <g id="patch_45">
    <path clip-path="url(#p37ebd9ee0a)" d="M 460.353719 1025.28 
L 473.266116 1025.28 
L 473.266116 1025.28 
L 460.353719 1025.28 
z
" style="fill:#1f77b4;"/>
   </g>
   <g id="patch_46">
    <path clip-path="url(#p37ebd9ee0a)" d="M 478.8 1025.28 
L 491.712397 1025.28 
L 491.712397 1025.28 
L 478.8 1025.28 
z
" style="fill:#1f77b4;"/>
   </g>
   <g id="patch_47">
    <path clip-path="url(#p37ebd9ee0a)" d="M 497.246281 1025.28 
L 510.158678 1025.28 
L 510.158678 1025.28 
L 497.246281 1025.28 
z
" style="fill:#1f77b4;"/>
   </g>
   <g id="patch_48">
    <path clip-path="url(#p37ebd9ee0a)" d="M 515.692562 1025.28 
L 528.604959 1025.28 
L 528.604959 1025.28 
L 515.692562 1025.28 
z
" style="fill:#1f77b4;"/>
   </g>
   <g id="line2d_37">
    <path clip-path="url(#p37ebd9ee0a)" d="M 162.446281 851.566533 
L 166.172802 833.372708 
L 169.899324 815.374032 
L 173.625845 797.895225 
L 177.352367 781.26236 
L 181.078888 765.79349 
L 184.805409 751.789733 
L 188.531931 739.52699 
L 192.258452 729.248412 
L 195.984974 721.157692 
L 199.711495 715.413276 
L 203.438017 712.123615 
L 207.164538 711.343668 
L 210.891059 713.072864 
L 214.617581 717.254797 
L 218.344102 723.778836 
L 222.070624 732.483772 
L 225.797145 743.163468 
L 229.523666 755.574305 
L 233.250188 769.444066 
L 236.976709 784.481739 
L 240.703231 800.387667 
L 244.429752 816.863421 
L 248.156273 833.620873 
L 251.882795 850.390003 
L 255.609316 866.925171 
L 259.335838 883.009704 
L 263.062359 898.458832 
L 266.788881 913.121084 
L 270.515402 926.878367 
L 274.241923 939.644951 
L 277.968445 951.36562 
L 281.694966 962.013186 
L 285.421488 971.585553 
L 289.148009 980.102493 
L 292.87453 987.602234 
L 296.601052 994.137975 
L 300.327573 999.774426 
L 304.054095 1004.584451 
L 307.780616 1008.645921 
L 311.507137 1012.038838 
L 315.233659 1014.842818 
L 318.96018 1017.134968 
L 322.686702 1018.9882 
L 326.413223 1020.469981 
L 330.139745 1021.641502 
L 333.866266 1022.557229 
L 337.592787 1023.264795 
L 341.319309 1023.805147 
L 345.04583 1024.212919 
L 348.772352 1024.516938 
L 352.498873 1024.740827 
L 356.225394 1024.90365 
L 359.951916 1025.020558 
L 363.678437 1025.103412 
L 367.404959 1025.161357 
L 371.13148 1025.201336 
L 374.858002 1025.228543 
L 378.584523 1025.246798 
L 382.311044 1025.258875 
L 386.037566 1025.266748 
L 389.764087 1025.271806 
L 393.490609 1025.275007 
L 397.21713 1025.277002 
L 400.943651 1025.278227 
L 404.670173 1025.278967 
L 408.396694 1025.279407 
L 412.123216 1025.279665 
L 415.849737 1025.279814 
L 419.576258 1025.279898 
L 423.30278 1025.279945 
L 427.029301 1025.279971 
L 430.755823 1025.279985 
L 434.482344 1025.279992 
L 438.208866 1025.279996 
L 441.935387 1025.279998 
L 445.661908 1025.279999 
L 449.38843 1025.28 
L 453.114951 1025.28 
L 456.841473 1025.28 
L 460.567994 1025.28 
L 464.294515 1025.28 
L 468.021037 1025.28 
L 471.747558 1025.28 
L 475.47408 1025.28 
L 479.200601 1025.28 
L 482.927122 1025.28 
L 486.653644 1025.28 
L 490.380165 1025.28 
L 494.106687 1025.28 
L 497.833208 1025.28 
L 501.55973 1025.28 
L 505.286251 1025.28 
L 509.012772 1025.28 
L 512.739294 1025.28 
L 516.465815 1025.28 
L 520.192337 1025.28 
L 523.918858 1025.28 
L 527.645379 1025.28 
L 531.371901 1025.28 
" style="fill:none;stroke:#00bfbf;stroke-linecap:square;stroke-linejoin:miter;stroke-width:5;"/>
   </g>
   <g id="patch_49">
    <path d="M 144 1025.28 
L 144 622.08 
" style="fill:none;stroke:#000000;stroke-linecap:square;stroke-linejoin:miter;stroke-width:2;"/>
   </g>
   <g id="patch_50">
    <path d="M 144 1025.28 
L 549.818182 1025.28 
" style="fill:none;stroke:#000000;stroke-linecap:square;stroke-linejoin:miter;stroke-width:2;"/>
   </g>
   <g id="text_43">
    <!-- uniform13 (n=400) -->
    <g transform="translate(248.525966 616.08)scale(0.24 -0.24)">
     <use xlink:href="#ArialMT-117"/>
     <use x="55.615234" xlink:href="#ArialMT-110"/>
     <use x="111.230469" xlink:href="#ArialMT-105"/>
     <use x="133.447266" xlink:href="#ArialMT-102"/>
     <use x="161.230469" xlink:href="#ArialMT-111"/>
     <use x="216.845703" xlink:href="#ArialMT-114"/>
     <use x="250.146484" xlink:href="#ArialMT-109"/>
     <use x="333.447266" xlink:href="#ArialMT-49"/>
     <use x="389.0625" xlink:href="#ArialMT-51"/>
     <use x="444.677734" xlink:href="#ArialMT-32"/>
     <use x="472.460938" xlink:href="#ArialMT-40"/>
     <use x="505.761719" xlink:href="#ArialMT-110"/>
     <use x="561.376953" xlink:href="#ArialMT-61"/>
     <use x="619.775391" xlink:href="#ArialMT-52"/>
     <use x="675.390625" xlink:href="#ArialMT-48"/>
     <use x="731.005859" xlink:href="#ArialMT-48"/>
     <use x="786.621094" xlink:href="#ArialMT-41"/>
    </g>
   </g>
  </g>
  <g id="axes_4">
   <g id="patch_51">
    <path d="M 630.981818 1025.28 
L 1036.8 1025.28 
L 1036.8 622.08 
L 630.981818 622.08 
z
" style="fill:none;"/>
   </g>
   <g id="matplotlib.axis_7">
    <g id="xtick_14">
     <g id="line2d_38">
      <g>
       <use style="stroke:#000000;stroke-width:1.5;" x="649.428099" xlink:href="#mfa39e15068" y="1025.28"/>
      </g>
     </g>
     <g id="text_44">
      <!-- 0 -->
      <g transform="translate(643.867162 1048.095625)scale(0.2 -0.2)">
       <use xlink:href="#ArialMT-48"/>
      </g>
     </g>
    </g>
    <g id="xtick_15">
     <g id="line2d_39">
      <g>
       <use style="stroke:#000000;stroke-width:1.5;" x="741.659504" xlink:href="#mfa39e15068" y="1025.28"/>
      </g>
     </g>
     <g id="text_45">
      <!-- 5 -->
      <g transform="translate(736.098567 1048.095625)scale(0.2 -0.2)">
       <use xlink:href="#ArialMT-53"/>
      </g>
     </g>
    </g>
    <g id="xtick_16">
     <g id="line2d_40">
      <g>
       <use style="stroke:#000000;stroke-width:1.5;" x="833.890909" xlink:href="#mfa39e15068" y="1025.28"/>
      </g>
     </g>
     <g id="text_46">
      <!-- 10 -->
      <g transform="translate(822.769034 1048.095625)scale(0.2 -0.2)">
       <use xlink:href="#ArialMT-49"/>
       <use x="55.615234" xlink:href="#ArialMT-48"/>
      </g>
     </g>
    </g>
    <g id="xtick_17">
     <g id="line2d_41">
      <g>
       <use style="stroke:#000000;stroke-width:1.5;" x="926.122314" xlink:href="#mfa39e15068" y="1025.28"/>
      </g>
     </g>
     <g id="text_47">
      <!-- 15 -->
      <g transform="translate(915.000439 1048.095625)scale(0.2 -0.2)">
       <use xlink:href="#ArialMT-49"/>
       <use x="55.615234" xlink:href="#ArialMT-53"/>
      </g>
     </g>
    </g>
    <g id="xtick_18">
     <g id="line2d_42">
      <g>
       <use style="stroke:#000000;stroke-width:1.5;" x="1018.353719" xlink:href="#mfa39e15068" y="1025.28"/>
      </g>
     </g>
     <g id="text_48">
      <!-- 20 -->
      <g transform="translate(1007.231844 1048.095625)scale(0.2 -0.2)">
       <use xlink:href="#ArialMT-50"/>
       <use x="55.615234" xlink:href="#ArialMT-48"/>
      </g>
     </g>
    </g>
    <g id="text_49">
     <!-- Number of red neighbors for red -->
     <g transform="translate(691.608097 1070.63)scale(0.2 -0.2)">
      <use xlink:href="#ArialMT-78"/>
      <use x="72.216797" xlink:href="#ArialMT-117"/>
      <use x="127.832031" xlink:href="#ArialMT-109"/>
      <use x="211.132812" xlink:href="#ArialMT-98"/>
      <use x="266.748047" xlink:href="#ArialMT-101"/>
      <use x="322.363281" xlink:href="#ArialMT-114"/>
      <use x="355.664062" xlink:href="#ArialMT-32"/>
      <use x="383.447266" xlink:href="#ArialMT-111"/>
      <use x="439.0625" xlink:href="#ArialMT-102"/>
      <use x="466.845703" xlink:href="#ArialMT-32"/>
      <use x="494.628906" xlink:href="#ArialMT-114"/>
      <use x="527.929688" xlink:href="#ArialMT-101"/>
      <use x="583.544922" xlink:href="#ArialMT-100"/>
      <use x="639.160156" xlink:href="#ArialMT-32"/>
      <use x="666.943359" xlink:href="#ArialMT-110"/>
      <use x="722.558594" xlink:href="#ArialMT-101"/>
      <use x="778.173828" xlink:href="#ArialMT-105"/>
      <use x="800.390625" xlink:href="#ArialMT-103"/>
      <use x="856.005859" xlink:href="#ArialMT-104"/>
      <use x="911.621094" xlink:href="#ArialMT-98"/>
      <use x="967.236328" xlink:href="#ArialMT-111"/>
      <use x="1022.851562" xlink:href="#ArialMT-114"/>
      <use x="1056.152344" xlink:href="#ArialMT-115"/>
      <use x="1106.152344" xlink:href="#ArialMT-32"/>
      <use x="1133.935547" xlink:href="#ArialMT-102"/>
      <use x="1161.71875" xlink:href="#ArialMT-111"/>
      <use x="1217.333984" xlink:href="#ArialMT-114"/>
      <use x="1250.634766" xlink:href="#ArialMT-32"/>
      <use x="1278.417969" xlink:href="#ArialMT-114"/>
      <use x="1311.71875" xlink:href="#ArialMT-101"/>
      <use x="1367.333984" xlink:href="#ArialMT-100"/>
     </g>
    </g>
   </g>
   <g id="matplotlib.axis_8">
    <g id="ytick_22">
     <g id="line2d_43">
      <g>
       <use style="stroke:#000000;stroke-width:1.5;" x="630.981818" xlink:href="#m01209ac110" y="1025.28"/>
      </g>
     </g>
     <g id="text_50">
      <!-- 0 -->
      <g transform="translate(611.359943 1032.437813)scale(0.2 -0.2)">
       <use xlink:href="#ArialMT-48"/>
      </g>
     </g>
    </g>
    <g id="ytick_23">
     <g id="line2d_44">
      <g>
       <use style="stroke:#000000;stroke-width:1.5;" x="630.981818" xlink:href="#m01209ac110" y="956.708571"/>
      </g>
     </g>
     <g id="text_51">
      <!-- 10 -->
      <g transform="translate(600.238068 963.866384)scale(0.2 -0.2)">
       <use xlink:href="#ArialMT-49"/>
       <use x="55.615234" xlink:href="#ArialMT-48"/>
      </g>
     </g>
    </g>
    <g id="ytick_24">
     <g id="line2d_45">
      <g>
       <use style="stroke:#000000;stroke-width:1.5;" x="630.981818" xlink:href="#m01209ac110" y="888.137143"/>
      </g>
     </g>
     <g id="text_52">
      <!-- 20 -->
      <g transform="translate(600.238068 895.294955)scale(0.2 -0.2)">
       <use xlink:href="#ArialMT-50"/>
       <use x="55.615234" xlink:href="#ArialMT-48"/>
      </g>
     </g>
    </g>
    <g id="ytick_25">
     <g id="line2d_46">
      <g>
       <use style="stroke:#000000;stroke-width:1.5;" x="630.981818" xlink:href="#m01209ac110" y="819.565714"/>
      </g>
     </g>
     <g id="text_53">
      <!-- 30 -->
      <g transform="translate(600.238068 826.723527)scale(0.2 -0.2)">
       <use xlink:href="#ArialMT-51"/>
       <use x="55.615234" xlink:href="#ArialMT-48"/>
      </g>
     </g>
    </g>
    <g id="ytick_26">
     <g id="line2d_47">
      <g>
       <use style="stroke:#000000;stroke-width:1.5;" x="630.981818" xlink:href="#m01209ac110" y="750.994286"/>
      </g>
     </g>
     <g id="text_54">
      <!-- 40 -->
      <g transform="translate(600.238068 758.152098)scale(0.2 -0.2)">
       <use xlink:href="#ArialMT-52"/>
       <use x="55.615234" xlink:href="#ArialMT-48"/>
      </g>
     </g>
    </g>
    <g id="ytick_27">
     <g id="line2d_48">
      <g>
       <use style="stroke:#000000;stroke-width:1.5;" x="630.981818" xlink:href="#m01209ac110" y="682.422857"/>
      </g>
     </g>
     <g id="text_55">
      <!-- 50 -->
      <g transform="translate(600.238068 689.58067)scale(0.2 -0.2)">
       <use xlink:href="#ArialMT-53"/>
       <use x="55.615234" xlink:href="#ArialMT-48"/>
      </g>
     </g>
    </g>
    <g id="text_56">
     <!-- Counts -->
     <g transform="translate(592.263068 855.362813)rotate(-90)scale(0.2 -0.2)">
      <use xlink:href="#ArialMT-67"/>
      <use x="72.216797" xlink:href="#ArialMT-111"/>
      <use x="127.832031" xlink:href="#ArialMT-117"/>
      <use x="183.447266" xlink:href="#ArialMT-110"/>
      <use x="239.0625" xlink:href="#ArialMT-116"/>
      <use x="266.845703" xlink:href="#ArialMT-115"/>
     </g>
    </g>
   </g>
   <g id="patch_52">
    <path clip-path="url(#pdb2c92e242)" d="M 652.195041 1025.28 
L 665.107438 1025.28 
L 665.107438 1025.28 
L 652.195041 1025.28 
z
" style="fill:#1f77b4;"/>
   </g>
   <g id="patch_53">
    <path clip-path="url(#pdb2c92e242)" d="M 670.641322 1025.28 
L 683.553719 1025.28 
L 683.553719 997.851429 
L 670.641322 997.851429 
z
" style="fill:#1f77b4;"/>
   </g>
   <g id="patch_54">
    <path clip-path="url(#pdb2c92e242)" d="M 689.087603 1025.28 
L 702 1025.28 
L 702 936.137143 
L 689.087603 936.137143 
z
" style="fill:#1f77b4;"/>
   </g>
   <g id="patch_55">
    <path clip-path="url(#pdb2c92e242)" d="M 707.533884 1025.28 
L 720.446281 1025.28 
L 720.446281 881.28 
L 707.533884 881.28 
z
" style="fill:#1f77b4;"/>
   </g>
   <g id="patch_56">
    <path clip-path="url(#pdb2c92e242)" d="M 725.980165 1025.28 
L 738.892562 1025.28 
L 738.892562 833.28 
L 725.980165 833.28 
z
" style="fill:#1f77b4;"/>
   </g>
   <g id="patch_57">
    <path clip-path="url(#pdb2c92e242)" d="M 744.426446 1025.28 
L 757.338843 1025.28 
L 757.338843 750.994286 
L 744.426446 750.994286 
z
" style="fill:#1f77b4;"/>
   </g>
   <g id="patch_58">
    <path clip-path="url(#pdb2c92e242)" d="M 762.872727 1025.28 
L 775.785124 1025.28 
L 775.785124 696.137143 
L 762.872727 696.137143 
z
" style="fill:#1f77b4;"/>
   </g>
   <g id="patch_59">
    <path clip-path="url(#pdb2c92e242)" d="M 781.319008 1025.28 
L 794.231405 1025.28 
L 794.231405 641.28 
L 781.319008 641.28 
z
" style="fill:#1f77b4;"/>
   </g>
   <g id="patch_60">
    <path clip-path="url(#pdb2c92e242)" d="M 799.765289 1025.28 
L 812.677686 1025.28 
L 812.677686 689.28 
L 799.765289 689.28 
z
" style="fill:#1f77b4;"/>
   </g>
   <g id="patch_61">
    <path clip-path="url(#pdb2c92e242)" d="M 818.21157 1025.28 
L 831.123967 1025.28 
L 831.123967 730.422857 
L 818.21157 730.422857 
z
" style="fill:#1f77b4;"/>
   </g>
   <g id="patch_62">
    <path clip-path="url(#pdb2c92e242)" d="M 836.657851 1025.28 
L 849.570248 1025.28 
L 849.570248 723.565714 
L 836.657851 723.565714 
z
" style="fill:#1f77b4;"/>
   </g>
   <g id="patch_63">
    <path clip-path="url(#pdb2c92e242)" d="M 855.104132 1025.28 
L 868.016529 1025.28 
L 868.016529 874.422857 
L 855.104132 874.422857 
z
" style="fill:#1f77b4;"/>
   </g>
   <g id="patch_64">
    <path clip-path="url(#pdb2c92e242)" d="M 873.550413 1025.28 
L 886.46281 1025.28 
L 886.46281 915.565714 
L 873.550413 915.565714 
z
" style="fill:#1f77b4;"/>
   </g>
   <g id="patch_65">
    <path clip-path="url(#pdb2c92e242)" d="M 891.996694 1025.28 
L 904.909091 1025.28 
L 904.909091 984.137143 
L 891.996694 984.137143 
z
" style="fill:#1f77b4;"/>
   </g>
   <g id="patch_66">
    <path clip-path="url(#pdb2c92e242)" d="M 910.442975 1025.28 
L 923.355372 1025.28 
L 923.355372 977.28 
L 910.442975 977.28 
z
" style="fill:#1f77b4;"/>
   </g>
   <g id="patch_67">
    <path clip-path="url(#pdb2c92e242)" d="M 928.889256 1025.28 
L 941.801653 1025.28 
L 941.801653 1011.565714 
L 928.889256 1011.565714 
z
" style="fill:#1f77b4;"/>
   </g>
   <g id="patch_68">
    <path clip-path="url(#pdb2c92e242)" d="M 947.335537 1025.28 
L 960.247934 1025.28 
L 960.247934 1018.422857 
L 947.335537 1018.422857 
z
" style="fill:#1f77b4;"/>
   </g>
   <g id="patch_69">
    <path clip-path="url(#pdb2c92e242)" d="M 965.781818 1025.28 
L 978.694215 1025.28 
L 978.694215 1025.28 
L 965.781818 1025.28 
z
" style="fill:#1f77b4;"/>
   </g>
   <g id="patch_70">
    <path clip-path="url(#pdb2c92e242)" d="M 984.228099 1025.28 
L 997.140496 1025.28 
L 997.140496 1025.28 
L 984.228099 1025.28 
z
" style="fill:#1f77b4;"/>
   </g>
   <g id="patch_71">
    <path clip-path="url(#pdb2c92e242)" d="M 1002.67438 1025.28 
L 1015.586777 1025.28 
L 1015.586777 1025.28 
L 1002.67438 1025.28 
z
" style="fill:#1f77b4;"/>
   </g>
   <g id="line2d_49">
    <path clip-path="url(#pdb2c92e242)" d="M 649.428099 970.30818 
L 653.154621 965.036799 
L 656.881142 959.459208 
L 660.607663 953.579509 
L 664.334185 947.404352 
L 668.060706 940.943026 
L 671.787228 934.207535 
L 675.513749 927.212643 
L 679.24027 919.975894 
L 682.966792 912.517604 
L 686.693313 904.860824 
L 690.419835 897.031272 
L 694.146356 889.057233 
L 697.872878 880.969435 
L 701.599399 872.800891 
L 705.32592 864.586708 
L 709.052442 856.363875 
L 712.778963 848.171019 
L 716.505485 840.048134 
L 720.232006 832.036291 
L 723.958527 824.177322 
L 727.685049 816.513485 
L 731.41157 809.08712 
L 735.138092 801.940278 
L 738.864613 795.11436 
L 742.591134 788.649737 
L 746.317656 782.585373 
L 750.044177 776.958456 
L 753.770699 771.804038 
L 757.49722 767.154677 
L 761.223742 763.040115 
L 764.950263 759.486964 
L 768.676784 756.518428 
L 772.403306 754.154047 
L 776.129827 752.409488 
L 779.856349 751.29636 
L 783.58287 750.822086 
L 787.309391 750.989799 
L 791.035913 751.798301 
L 794.762434 753.242059 
L 798.488956 755.311245 
L 802.215477 757.991831 
L 805.941998 761.265722 
L 809.66852 765.110939 
L 813.395041 769.501838 
L 817.121563 774.409376 
L 820.848084 779.801406 
L 824.574606 785.643012 
L 828.301127 791.896864 
L 832.027648 798.523605 
L 835.75417 805.48225 
L 839.480691 812.730601 
L 843.207213 820.225666 
L 846.933734 827.924087 
L 850.660255 835.782549 
L 854.386777 843.758196 
L 858.113298 851.809015 
L 861.83982 859.894208 
L 865.566341 867.974532 
L 869.292863 876.012611 
L 873.019384 883.973211 
L 876.745905 891.823476 
L 880.472427 899.533128 
L 884.198948 907.074616 
L 887.92547 914.423234 
L 891.651991 921.557187 
L 895.378512 928.45762 
L 899.105034 935.108604 
L 902.831555 941.497094 
L 906.558077 947.612843 
L 910.284598 953.448287 
L 914.011119 958.998416 
L 917.737641 964.260606 
L 921.464162 969.23445 
L 925.190684 973.921561 
L 928.917205 978.325382 
L 932.643727 982.450982 
L 936.370248 986.304851 
L 940.096769 989.894704 
L 943.823291 993.229287 
L 947.549812 996.318193 
L 951.276334 999.171684 
L 955.002855 1001.800532 
L 958.729376 1004.215867 
L 962.455898 1006.42904 
L 966.182419 1008.451505 
L 969.908941 1010.294703 
L 973.635462 1011.969975 
L 977.361983 1013.488472 
L 981.088505 1014.861092 
L 984.815026 1016.098416 
L 988.541548 1017.210661 
L 992.268069 1018.207643 
L 995.994591 1019.098747 
L 999.721112 1019.892903 
L 1003.447633 1020.598571 
L 1007.174155 1021.223732 
L 1010.900676 1021.775887 
L 1014.627198 1022.262052 
L 1018.353719 1022.688769 
" style="fill:none;stroke:#00bfbf;stroke-linecap:square;stroke-linejoin:miter;stroke-width:5;"/>
   </g>
   <g id="patch_72">
    <path d="M 630.981818 1025.28 
L 630.981818 622.08 
" style="fill:none;stroke:#000000;stroke-linecap:square;stroke-linejoin:miter;stroke-width:2;"/>
   </g>
   <g id="patch_73">
    <path d="M 630.981818 1025.28 
L 1036.8 1025.28 
" style="fill:none;stroke:#000000;stroke-linecap:square;stroke-linejoin:miter;stroke-width:2;"/>
   </g>
   <g id="text_57">
    <!-- uniform13 (n=400) -->
    <g transform="translate(735.507784 616.08)scale(0.24 -0.24)">
     <use xlink:href="#ArialMT-117"/>
     <use x="55.615234" xlink:href="#ArialMT-110"/>
     <use x="111.230469" xlink:href="#ArialMT-105"/>
     <use x="133.447266" xlink:href="#ArialMT-102"/>
     <use x="161.230469" xlink:href="#ArialMT-111"/>
     <use x="216.845703" xlink:href="#ArialMT-114"/>
     <use x="250.146484" xlink:href="#ArialMT-109"/>
     <use x="333.447266" xlink:href="#ArialMT-49"/>
     <use x="389.0625" xlink:href="#ArialMT-51"/>
     <use x="444.677734" xlink:href="#ArialMT-32"/>
     <use x="472.460938" xlink:href="#ArialMT-40"/>
     <use x="505.761719" xlink:href="#ArialMT-110"/>
     <use x="561.376953" xlink:href="#ArialMT-61"/>
     <use x="619.775391" xlink:href="#ArialMT-52"/>
     <use x="675.390625" xlink:href="#ArialMT-48"/>
     <use x="731.005859" xlink:href="#ArialMT-48"/>
     <use x="786.621094" xlink:href="#ArialMT-41"/>
    </g>
   </g>
  </g>
 </g>
 <defs>
  <clipPath id="p96aa1b84a1">
   <rect height="403.2" width="405.818182" x="144" y="138.24"/>
  </clipPath>
  <clipPath id="p7aa441b3be">
   <rect height="403.2" width="405.818182" x="630.981818" y="138.24"/>
  </clipPath>
  <clipPath id="p37ebd9ee0a">
   <rect height="403.2" width="405.818182" x="144" y="622.08"/>
  </clipPath>
  <clipPath id="pdb2c92e242">
   <rect height="403.2" width="405.818182" x="630.981818" y="622.08"/>
  </clipPath>
 </defs>
</svg>
